RecursiveMonoVar-StrictSemiBold.ufo
<glyph name="exclam" format="1">
  <advance width="600"/>
  <unicode hex="0021"/>
  <outline>
    <contour>
      <point x="343" y="273" type="line"/>
      <point x="353" y="349"/>
      <point x="362" y="426"/>
      <point x="371" y="502" type="curve"/>
      <point x="371" y="689" type="line" smooth="yes"/>
      <point x="371" y="696"/>
      <point x="366" y="700"/>
      <point x="360" y="700" type="curve" smooth="yes"/>
      <point x="306" y="700"/>
      <point x="263" y="700"/>
      <point x="229" y="700" type="curve"/>
      <point x="229" y="662"/>
      <point x="229" y="627"/>
      <point x="229" y="590" type="curve" smooth="yes"/>
      <point x="229" y="502" type="line"/>
      <point x="254" y="284"/>
      <point x="255" y="280"/>
      <point x="259" y="276" type="curve" smooth="yes"/>
      <point x="261" y="274"/>
      <point x="263" y="273"/>
      <point x="267" y="273" type="curve"/>
    </contour>
    <contour>
      <point x="387" y="-8" type="curve"/>
      <point x="387" y="153" type="line" smooth="yes"/>
      <point x="387" y="159"/>
      <point x="382" y="164"/>
      <point x="376" y="164" type="curve" smooth="yes"/>
      <point x="324" y="164"/>
      <point x="265" y="164"/>
      <point x="213" y="164" type="curve"/>
      <point x="213" y="3" type="line" smooth="yes"/>
      <point x="213" y="-3"/>
      <point x="218" y="-8"/>
      <point x="224" y="-8" type="curve" smooth="yes"/>
      <point x="276" y="-8"/>
      <point x="335" y="-8"/>
    </contour>
  </outline>
</glyph>
<glyph name="dollar" format="1">
  <advance width="600"/>
  <unicode hex="0024"/>
  <outline>
    <contour>
      <point x="322" y="719" type="curve" smooth="yes"/>
      <point x="170" y="719"/>
      <point x="72" y="641"/>
      <point x="72" y="533" type="curve" smooth="yes"/>
      <point x="72" y="488" type="line" smooth="yes"/>
      <point x="72" y="471"/>
      <point x="118" y="455"/>
      <point x="181" y="455" type="curve"/>
      <point x="181" y="482"/>
      <point x="181" y="504"/>
      <point x="181" y="528" type="curve" smooth="yes"/>
      <point x="181" y="572"/>
      <point x="226" y="607"/>
      <point x="314" y="607" type="curve" smooth="yes"/>
      <point x="393" y="607"/>
      <point x="447" y="592"/>
      <point x="500" y="552" type="curve"/>
      <point x="517" y="552" type="line"/>
      <point x="517" y="575"/>
      <point x="517" y="616"/>
      <point x="517" y="662" type="curve" smooth="yes"/>
      <point x="517" y="665"/>
      <point x="516" y="668"/>
      <point x="514" y="670" type="curve" smooth="yes"/>
      <point x="482" y="702"/>
      <point x="406" y="719"/>
    </contour>
    <contour>
      <point x="380" y="390" type="curve" smooth="yes"/>
      <point x="284" y="419" type="line" smooth="yes"/>
      <point x="203" y="443"/>
      <point x="181" y="460"/>
      <point x="181" y="505" type="curve" smooth="yes"/>
      <point x="181" y="528"/>
      <point x="181" y="542"/>
      <point x="181" y="578" type="curve"/>
      <point x="121" y="573"/>
      <point x="72" y="560"/>
      <point x="72" y="488" type="curve" smooth="yes"/>
      <point x="72" y="425"/>
      <point x="110" y="358"/>
      <point x="241" y="318" type="curve" smooth="yes"/>
      <point x="336" y="289" type="line" smooth="yes"/>
      <point x="419" y="264"/>
      <point x="432" y="244"/>
      <point x="432" y="200" type="curve" smooth="yes"/>
      <point x="432" y="177"/>
      <point x="432" y="136"/>
      <point x="432" y="105" type="curve"/>
      <point x="479" y="105"/>
      <point x="539" y="166"/>
      <point x="539" y="216" type="curve"/>
      <point x="539" y="296"/>
      <point x="501" y="354"/>
    </contour>
    <contour>
      <point x="286" y="-19" type="curve" smooth="yes"/>
      <point x="442" y="-19"/>
      <point x="539" y="59"/>
      <point x="539" y="168" type="curve" smooth="yes"/>
      <point x="539" y="216" type="line" smooth="yes"/>
      <point x="539" y="233"/>
      <point x="494" y="251"/>
      <point x="432" y="251" type="curve"/>
      <point x="432" y="222"/>
      <point x="432" y="198"/>
      <point x="432" y="172" type="curve" smooth="yes"/>
      <point x="432" y="128"/>
      <point x="388" y="94"/>
      <point x="293" y="94" type="curve" smooth="yes"/>
      <point x="204" y="94"/>
      <point x="144" y="113"/>
      <point x="84" y="159" type="curve"/>
      <point x="67" y="159" type="line"/>
      <point x="67" y="136"/>
      <point x="67" y="95"/>
      <point x="67" y="49" type="curve" smooth="yes"/>
      <point x="67" y="47"/>
      <point x="68" y="43"/>
      <point x="70" y="41" type="curve" smooth="yes"/>
      <point x="107" y="3"/>
      <point x="191" y="-19"/>
    </contour>
    <contour>
      <point x="354" y="466" type="line"/>
      <point x="388" y="773" type="line" smooth="yes"/>
      <point x="389" y="782"/>
      <point x="384" y="786"/>
      <point x="378" y="786" type="curve" smooth="yes"/>
      <point x="341" y="786"/>
      <point x="326" y="786"/>
      <point x="289" y="786" type="curve"/>
      <point x="289" y="755"/>
      <point x="289" y="724"/>
      <point x="289" y="692" type="curve"/>
      <point x="289" y="494" type="line" smooth="yes"/>
      <point x="289" y="486"/>
      <point x="292" y="481"/>
      <point x="300" y="480" type="curve" smooth="yes"/>
    </contour>
    <contour>
      <point x="262" y="241" type="line"/>
      <point x="226" y="-72" type="line" smooth="yes"/>
      <point x="224" y="-82"/>
      <point x="230" y="-86"/>
      <point x="236" y="-86" type="curve" smooth="yes"/>
      <point x="273" y="-86"/>
      <point x="290" y="-86"/>
      <point x="327" y="-86" type="curve"/>
      <point x="327" y="-56"/>
      <point x="327" y="-23"/>
      <point x="327" y="7" type="curve"/>
      <point x="327" y="211" type="line" smooth="yes"/>
      <point x="327" y="221"/>
      <point x="324" y="225"/>
      <point x="316" y="227" type="curve" smooth="yes"/>
    </contour>
  </outline>
</glyph>
<glyph name="ampersand" format="1">
  <advance width="600"/>
  <unicode hex="0026"/>
  <outline>
    <contour>
      <point x="320" y="709" type="curve" smooth="yes"/>
      <point x="176" y="709"/>
      <point x="97" y="631"/>
      <point x="97" y="541" type="curve" smooth="yes"/>
      <point x="97" y="493"/>
      <point x="150" y="484"/>
      <point x="210" y="484" type="curve"/>
      <point x="210" y="498"/>
      <point x="210" y="515"/>
      <point x="210" y="532" type="curve" smooth="yes"/>
      <point x="210" y="566"/>
      <point x="242" y="597"/>
      <point x="312" y="597" type="curve" smooth="yes"/>
      <point x="371" y="597"/>
      <point x="408" y="588"/>
      <point x="453" y="574" type="curve"/>
      <point x="470" y="574" type="line"/>
      <point x="470" y="607"/>
      <point x="470" y="641"/>
      <point x="470" y="674" type="curve"/>
      <point x="470" y="679"/>
      <point x="470" y="681"/>
      <point x="467" y="684" type="curve" smooth="yes"/>
      <point x="457" y="694"/>
      <point x="401" y="709"/>
    </contour>
    <contour>
      <point x="247" y="450" type="curve" smooth="yes"/>
      <point x="216" y="493"/>
      <point x="210" y="508"/>
      <point x="210" y="532" type="curve" smooth="yes"/>
      <point x="210" y="553"/>
      <point x="212" y="580"/>
      <point x="223" y="605" type="curve"/>
      <point x="142" y="605"/>
      <point x="97" y="578"/>
      <point x="97" y="541" type="curve" smooth="yes"/>
      <point x="97" y="538" type="line" smooth="yes"/>
      <point x="97" y="483"/>
      <point x="113" y="451"/>
      <point x="180" y="359" type="curve" smooth="yes"/>
      <point x="257" y="254"/>
      <point x="364" y="105"/>
      <point x="394" y="64" type="curve" smooth="yes"/>
      <point x="433" y="11"/>
      <point x="467" y="-10"/>
      <point x="519" y="-10" type="curve" smooth="yes"/>
      <point x="567" y="-10" type="line" smooth="yes"/>
      <point x="575" y="-10"/>
      <point x="578" y="-6"/>
      <point x="578" y="1" type="curve" smooth="yes"/>
      <point x="578" y="51"/>
      <point x="578" y="65"/>
      <point x="578" y="106" type="curve"/>
      <point x="573" y="106" type="line"/>
      <point x="563" y="106"/>
      <point x="548" y="106"/>
      <point x="538" y="106" type="curve" smooth="yes"/>
      <point x="509" y="106"/>
      <point x="495" y="111"/>
      <point x="472" y="141" type="curve" smooth="yes"/>
      <point x="447" y="174"/>
      <point x="351" y="307"/>
    </contour>
    <contour>
      <point x="216" y="-9" type="curve" smooth="yes"/>
      <point x="303" y="-9"/>
      <point x="352" y="29"/>
      <point x="391" y="83" type="curve" smooth="yes"/>
      <point x="399" y="97"/>
      <point x="397" y="102"/>
      <point x="354" y="158" type="curve"/>
      <point x="312" y="108"/>
      <point x="280" y="92"/>
      <point x="235" y="92" type="curve" smooth="yes"/>
      <point x="179" y="92"/>
      <point x="153" y="121"/>
      <point x="153" y="176" type="curve" smooth="yes"/>
      <point x="153" y="233" type="line" smooth="yes"/>
      <point x="153" y="289"/>
      <point x="194" y="328"/>
      <point x="263" y="328" type="curve"/>
      <point x="249" y="364"/>
      <point x="227" y="389"/>
      <point x="199" y="388" type="curve" smooth="yes"/>
      <point x="114" y="385"/>
      <point x="37" y="323"/>
      <point x="37" y="231" type="curve" smooth="yes"/>
      <point x="37" y="160" type="line" smooth="yes"/>
      <point x="37" y="52"/>
      <point x="102" y="-9"/>
    </contour>
    <contour>
      <point x="550" y="427" type="curve" smooth="yes"/>
      <point x="523" y="427"/>
      <point x="490" y="427"/>
      <point x="452" y="427" type="curve"/>
      <point x="452" y="399"/>
      <point x="452" y="374"/>
      <point x="452" y="342" type="curve" smooth="yes"/>
      <point x="452" y="276"/>
      <point x="437" y="241"/>
      <point x="404" y="204" type="curve" smooth="yes"/>
      <point x="394" y="193"/>
      <point x="396" y="188"/>
      <point x="432" y="144" type="curve"/>
      <point x="510" y="192"/>
      <point x="561" y="258"/>
      <point x="561" y="345" type="curve" smooth="yes"/>
      <point x="561" y="416" type="line" smooth="yes"/>
      <point x="561" y="423"/>
      <point x="558" y="427"/>
    </contour>
  </outline>
</glyph>
<glyph name="quotesingle" format="1">
  <advance width="600"/>
  <unicode hex="0027"/>
  <outline>
    <contour>
      <point x="354" y="450" type="curve"/>
      <point x="377" y="737" type="line" smooth="yes"/>
      <point x="378" y="746"/>
      <point x="373" y="750"/>
      <point x="367" y="750" type="curve" smooth="yes"/>
      <point x="323" y="750"/>
      <point x="275" y="750"/>
      <point x="222" y="750" type="curve"/>
      <point x="225" y="714"/>
      <point x="227" y="683"/>
      <point x="230" y="648" type="curve" smooth="yes"/>
      <point x="245" y="461" type="line" smooth="yes"/>
      <point x="246" y="454"/>
      <point x="251" y="450"/>
      <point x="257" y="450" type="curve" smooth="yes"/>
      <point x="290" y="450"/>
      <point x="321" y="450"/>
    </contour>
  </outline>
</glyph>
<glyph name="parenleft" format="1">
  <advance width="600"/>
  <unicode hex="0028"/>
  <outline>
    <contour>
      <point x="366" y="745" type="curve" smooth="yes"/>
      <point x="247" y="627"/>
      <point x="191" y="478"/>
      <point x="191" y="314" type="curve" smooth="yes"/>
      <point x="191" y="306" type="line" smooth="yes"/>
      <point x="191" y="144"/>
      <point x="248" y="-4"/>
      <point x="366" y="-121" type="curve" smooth="yes"/>
      <point x="372" y="-128"/>
      <point x="378" y="-129"/>
      <point x="386" y="-129" type="curve" smooth="yes"/>
      <point x="429" y="-129"/>
      <point x="462" y="-129"/>
      <point x="509" y="-129" type="curve"/>
      <point x="509" y="-112" type="line"/>
      <point x="380" y="10"/>
      <point x="313" y="145"/>
      <point x="313" y="306" type="curve" smooth="yes"/>
      <point x="313" y="314" type="line" smooth="yes"/>
      <point x="313" y="476"/>
      <point x="377" y="618"/>
      <point x="506" y="736" type="curve"/>
      <point x="506" y="753" type="line"/>
      <point x="460" y="753"/>
      <point x="428" y="753"/>
      <point x="386" y="753" type="curve" smooth="yes"/>
      <point x="378" y="753"/>
      <point x="372" y="752"/>
    </contour>
  </outline>
</glyph>
<glyph name="parenright" format="1">
  <advance width="600"/>
  <unicode hex="0029"/>
  <outline>
    <contour>
      <point x="234" y="-121" type="curve" smooth="yes"/>
      <point x="353" y="-3"/>
      <point x="409" y="146"/>
      <point x="409" y="310" type="curve" smooth="yes"/>
      <point x="409" y="318" type="line" smooth="yes"/>
      <point x="409" y="480"/>
      <point x="352" y="628"/>
      <point x="234" y="745" type="curve" smooth="yes"/>
      <point x="228" y="752"/>
      <point x="222" y="753"/>
      <point x="214" y="753" type="curve" smooth="yes"/>
      <point x="171" y="753"/>
      <point x="138" y="753"/>
      <point x="91" y="753" type="curve"/>
      <point x="91" y="736" type="line"/>
      <point x="220" y="614"/>
      <point x="287" y="479"/>
      <point x="287" y="318" type="curve" smooth="yes"/>
      <point x="287" y="310" type="line" smooth="yes"/>
      <point x="287" y="148"/>
      <point x="223" y="6"/>
      <point x="94" y="-112" type="curve"/>
      <point x="94" y="-129" type="line"/>
      <point x="140" y="-129"/>
      <point x="172" y="-129"/>
      <point x="214" y="-129" type="curve" smooth="yes"/>
      <point x="222" y="-129"/>
      <point x="228" y="-128"/>
    </contour>
  </outline>
</glyph>
<glyph name="asterisk" format="1">
  <advance width="600"/>
  <unicode hex="002A"/>
  <outline>
    <contour>
      <point x="241" y="568" type="curve"/>
      <point x="247" y="533"/>
      <point x="253" y="499"/>
      <point x="259" y="465" type="curve" smooth="yes"/>
      <point x="283" y="309" type="line"/>
      <point x="242" y="60" type="line" smooth="yes"/>
      <point x="242" y="54"/>
      <point x="245" y="50"/>
      <point x="251" y="50" type="curve"/>
      <point x="286" y="50"/>
      <point x="322" y="50"/>
      <point x="358" y="50" type="curve"/>
      <point x="352" y="85"/>
      <point x="346" y="119"/>
      <point x="340" y="153" type="curve" smooth="yes"/>
      <point x="316" y="309" type="line"/>
      <point x="357" y="558" type="line" smooth="yes"/>
      <point x="357" y="564"/>
      <point x="354" y="568"/>
      <point x="348" y="568" type="curve" smooth="yes"/>
      <point x="313" y="568"/>
      <point x="277" y="568"/>
    </contour>
    <contour>
      <point x="494" y="489" type="curve"/>
      <point x="292" y="323" type="line"/>
      <point x="55" y="235" type="line" smooth="yes"/>
      <point x="50" y="232"/>
      <point x="47" y="227"/>
      <point x="51" y="220" type="curve"/>
      <point x="69" y="189"/>
      <point x="87" y="160"/>
      <point x="105" y="129" type="curve"/>
      <point x="308" y="295" type="line"/>
      <point x="543" y="384" type="line" smooth="yes"/>
      <point x="549" y="386"/>
      <point x="551" y="392"/>
      <point x="547" y="398" type="curve" smooth="yes"/>
      <point x="530" y="428"/>
      <point x="512" y="458"/>
    </contour>
    <contour>
      <point x="553" y="231" type="curve"/>
      <point x="308" y="324" type="line"/>
      <point x="113" y="484" type="line" smooth="yes"/>
      <point x="108" y="487"/>
      <point x="103" y="486"/>
      <point x="99" y="480" type="curve"/>
      <point x="81" y="449"/>
      <point x="63" y="419"/>
      <point x="46" y="389" type="curve"/>
      <point x="291" y="295" type="line"/>
      <point x="486" y="136" type="line" smooth="yes"/>
      <point x="491" y="132"/>
      <point x="497" y="133"/>
      <point x="500" y="139" type="curve"/>
      <point x="518" y="170"/>
      <point x="535" y="200"/>
    </contour>
  </outline>
</glyph>
<glyph name="plus" format="1">
  <advance width="600"/>
  <unicode hex="002B"/>
  <outline>
    <contour>
      <point x="65" y="357" type="line"/>
      <point x="65" y="323"/>
      <point x="65" y="288"/>
      <point x="65" y="254" type="curve" smooth="yes"/>
      <point x="65" y="251"/>
      <point x="66" y="248"/>
      <point x="68" y="246" type="curve" smooth="yes"/>
      <point x="70" y="244"/>
      <point x="73" y="243"/>
      <point x="76" y="243" type="curve"/>
      <point x="535" y="243" type="line"/>
      <point x="535" y="277"/>
      <point x="535" y="312"/>
      <point x="535" y="346" type="curve" smooth="yes"/>
      <point x="535" y="352"/>
      <point x="530" y="357"/>
      <point x="524" y="357" type="curve"/>
    </contour>
    <contour>
      <point x="358" y="66" type="curve"/>
      <point x="358" y="523" type="line" smooth="yes"/>
      <point x="358" y="526"/>
      <point x="357" y="529"/>
      <point x="355" y="531" type="curve" smooth="yes"/>
      <point x="353" y="533"/>
      <point x="350" y="534"/>
      <point x="347" y="534" type="curve" smooth="yes"/>
      <point x="313" y="534"/>
      <point x="283" y="534"/>
      <point x="242" y="534" type="curve"/>
      <point x="242" y="510"/>
      <point x="242" y="475"/>
      <point x="242" y="435" type="curve" smooth="yes"/>
      <point x="242" y="77" type="line" smooth="yes"/>
      <point x="242" y="71"/>
      <point x="247" y="66"/>
      <point x="253" y="66" type="curve" smooth="yes"/>
      <point x="290" y="66"/>
      <point x="321" y="66"/>
    </contour>
  </outline>
</glyph>
<glyph name="period" format="1">
  <advance width="600"/>
  <unicode hex="002E"/>
  <outline>
    <contour>
      <point x="387" y="-8" type="curve"/>
      <point x="387" y="153" type="line" smooth="yes"/>
      <point x="387" y="159"/>
      <point x="382" y="164"/>
      <point x="376" y="164" type="curve" smooth="yes"/>
      <point x="324" y="164"/>
      <point x="265" y="164"/>
      <point x="213" y="164" type="curve"/>
      <point x="213" y="3" type="line" smooth="yes"/>
      <point x="213" y="-3"/>
      <point x="218" y="-8"/>
      <point x="224" y="-8" type="curve" smooth="yes"/>
      <point x="276" y="-8"/>
      <point x="335" y="-8"/>
    </contour>
  </outline>
</glyph>
<glyph name="slash" format="1">
  <advance width="600"/>
  <unicode hex="002F"/>
  <outline>
    <contour>
      <point x="542" y="750" type="curve"/>
      <point x="503" y="750"/>
      <point x="469" y="750"/>
      <point x="431" y="750" type="curve" smooth="yes"/>
      <point x="425" y="750"/>
      <point x="421" y="748"/>
      <point x="419" y="743" type="curve" smooth="yes"/>
      <point x="320" y="489"/>
      <point x="220" y="233"/>
      <point x="121" y="-21" type="curve" smooth="yes"/>
      <point x="107" y="-57"/>
      <point x="93" y="-94"/>
      <point x="78" y="-130" type="curve"/>
      <point x="117" y="-130"/>
      <point x="150" y="-130"/>
      <point x="188" y="-130" type="curve" smooth="yes"/>
      <point x="194" y="-130"/>
      <point x="200" y="-127"/>
      <point x="203" y="-119" type="curve"/>
      <point x="317" y="170"/>
      <point x="429" y="461"/>
    </contour>
  </outline>
</glyph>
<glyph name="one" format="1">
  <advance width="600"/>
  <unicode hex="0031"/>
  <outline>
    <contour>
      <point x="393" y="30" type="curve"/>
      <point x="393" y="253"/>
      <point x="393" y="477"/>
      <point x="393" y="699" type="curve" smooth="yes"/>
      <point x="393" y="705"/>
      <point x="388" y="710"/>
      <point x="382" y="710" type="curve" smooth="yes"/>
      <point x="277" y="710" type="line"/>
      <point x="277" y="500"/>
      <point x="277" y="284"/>
      <point x="277" y="74" type="curve" smooth="yes"/>
      <point x="277" y="39"/>
      <point x="327" y="30"/>
    </contour>
    <contour>
      <point x="83" y="109" type="line"/>
      <point x="83" y="76"/>
      <point x="83" y="48"/>
      <point x="83" y="11" type="curve" smooth="yes"/>
      <point x="83" y="7"/>
      <point x="84" y="5"/>
      <point x="86" y="3" type="curve" smooth="yes"/>
      <point x="88" y="1"/>
      <point x="91" y="0"/>
      <point x="94" y="0" type="curve" smooth="yes"/>
      <point x="547" y="0" type="line"/>
      <point x="547" y="29"/>
      <point x="547" y="61"/>
      <point x="547" y="98" type="curve" smooth="yes"/>
      <point x="547" y="106"/>
      <point x="543" y="109"/>
      <point x="536" y="109" type="curve" smooth="yes"/>
    </contour>
    <contour>
      <point x="106" y="448" type="curve" smooth="yes"/>
      <point x="112" y="448"/>
      <point x="117" y="450"/>
      <point x="308" y="602" type="curve" smooth="yes"/>
      <point x="338" y="623"/>
      <point x="366" y="646"/>
      <point x="366" y="652" type="curve" smooth="yes"/>
      <point x="366" y="675"/>
      <point x="352" y="710"/>
      <point x="288" y="710" type="curve"/>
      <point x="267" y="710" type="line"/>
      <point x="240" y="688"/>
      <point x="212" y="666"/>
      <point x="184" y="644" type="curve"/>
      <point x="156" y="622"/>
      <point x="127" y="599"/>
      <point x="99" y="577" type="curve"/>
      <point x="99" y="456" type="line" smooth="yes"/>
      <point x="99" y="450"/>
      <point x="102" y="448"/>
    </contour>
  </outline>
</glyph>
<glyph name="three" format="1">
  <advance width="600"/>
  <unicode hex="0033"/>
  <outline>
    <contour>
      <point x="280" y="605" type="curve" smooth="yes"/>
      <point x="380" y="605"/>
      <point x="416" y="566"/>
      <point x="416" y="518" type="curve" smooth="yes"/>
      <point x="416" y="493"/>
      <point x="416" y="477"/>
      <point x="416" y="457" type="curve"/>
      <point x="477" y="457"/>
      <point x="531" y="479"/>
      <point x="531" y="529" type="curve" smooth="yes"/>
      <point x="531" y="555" type="line" smooth="yes"/>
      <point x="531" y="649"/>
      <point x="435" y="720"/>
      <point x="284" y="720" type="curve" smooth="yes"/>
      <point x="187" y="720"/>
      <point x="100" y="696"/>
      <point x="80" y="676" type="curve" smooth="yes"/>
      <point x="78" y="674"/>
      <point x="78" y="672"/>
      <point x="78" y="669" type="curve" smooth="yes"/>
      <point x="78" y="627"/>
      <point x="78" y="591"/>
      <point x="78" y="565" type="curve"/>
      <point x="95" y="565" type="line"/>
      <point x="153" y="593"/>
      <point x="198" y="605"/>
    </contour>
    <contour>
      <point x="169" y="339" type="curve" smooth="yes"/>
      <point x="387" y="339"/>
      <point x="531" y="390"/>
      <point x="531" y="529" type="curve" smooth="yes"/>
      <point x="531" y="557"/>
      <point x="470" y="584"/>
      <point x="414" y="584" type="curve"/>
      <point x="414" y="559"/>
      <point x="414" y="536"/>
      <point x="414" y="513" type="curve" smooth="yes"/>
      <point x="414" y="454"/>
      <point x="369" y="411"/>
      <point x="158" y="411" type="curve"/>
      <point x="158" y="394"/>
      <point x="158" y="367"/>
      <point x="158" y="350" type="curve" smooth="yes"/>
      <point x="158" y="344"/>
      <point x="163" y="339"/>
    </contour>
    <contour>
      <point x="169" y="303" type="curve" smooth="yes"/>
      <point x="358" y="303"/>
      <point x="424" y="267"/>
      <point x="424" y="194" type="curve" smooth="yes"/>
      <point x="424" y="170"/>
      <point x="424" y="158"/>
      <point x="424" y="126" type="curve"/>
      <point x="494" y="126"/>
      <point x="541" y="150"/>
      <point x="541" y="198" type="curve" smooth="yes"/>
      <point x="541" y="325"/>
      <point x="397" y="378"/>
      <point x="158" y="378" type="curve"/>
      <point x="158" y="357"/>
      <point x="158" y="334"/>
      <point x="158" y="314" type="curve" smooth="yes"/>
      <point x="158" y="306"/>
      <point x="162" y="303"/>
    </contour>
    <contour>
      <point x="277" y="95" type="curve" smooth="yes"/>
      <point x="189" y="95"/>
      <point x="141" y="105"/>
      <point x="78" y="139" type="curve"/>
      <point x="61" y="139" type="line"/>
      <point x="61" y="110"/>
      <point x="61" y="74"/>
      <point x="61" y="31" type="curve" smooth="yes"/>
      <point x="61" y="28"/>
      <point x="62" y="26"/>
      <point x="64" y="24" type="curve" smooth="yes"/>
      <point x="84" y="4"/>
      <point x="177" y="-20"/>
      <point x="281" y="-20" type="curve" smooth="yes"/>
      <point x="443" y="-20"/>
      <point x="541" y="53"/>
      <point x="541" y="168" type="curve" smooth="yes"/>
      <point x="541" y="198" type="line" smooth="yes"/>
      <point x="541" y="239"/>
      <point x="486" y="261"/>
      <point x="425" y="260" type="curve"/>
      <point x="425" y="234"/>
      <point x="425" y="217"/>
      <point x="425" y="193" type="curve" smooth="yes"/>
      <point x="425" y="139"/>
      <point x="386" y="95"/>
    </contour>
  </outline>
</glyph>
<glyph name="four" format="1">
  <advance width="600"/>
  <unicode hex="0034"/>
  <outline>
    <contour>
      <point x="151" y="217" type="curve"/>
      <point x="249" y="373"/>
      <point x="348" y="529"/>
      <point x="446" y="684" type="curve"/>
      <point x="446" y="700" type="line"/>
      <point x="381" y="700"/>
      <point x="338" y="700"/>
      <point x="329" y="700" type="curve" smooth="yes"/>
      <point x="323" y="700"/>
      <point x="317" y="699"/>
      <point x="312" y="691" type="curve" smooth="yes"/>
      <point x="194" y="500"/>
      <point x="45" y="254"/>
      <point x="45" y="247" type="curve" smooth="yes"/>
      <point x="45" y="227"/>
      <point x="108" y="217"/>
    </contour>
    <contour>
      <point x="560" y="151" type="line"/>
      <point x="560" y="184"/>
      <point x="560" y="216"/>
      <point x="560" y="249" type="curve" smooth="yes"/>
      <point x="560" y="255"/>
      <point x="555" y="260"/>
      <point x="549" y="260" type="curve" smooth="yes"/>
      <point x="389" y="260" type="line"/>
      <point x="343" y="260"/>
      <point x="186" y="254"/>
      <point x="45" y="247" type="curve"/>
      <point x="45" y="162" type="line" smooth="yes"/>
      <point x="45" y="159"/>
      <point x="46" y="156"/>
      <point x="48" y="154" type="curve" smooth="yes"/>
      <point x="50" y="152"/>
      <point x="53" y="151"/>
      <point x="56" y="151" type="curve" smooth="yes"/>
    </contour>
    <contour>
      <point x="490" y="0" type="curve"/>
      <point x="490" y="30"/>
      <point x="490" y="64"/>
      <point x="490" y="99" type="curve" smooth="yes"/>
      <point x="490" y="379" type="line" smooth="yes"/>
      <point x="490" y="386"/>
      <point x="486" y="390"/>
      <point x="479" y="390" type="curve" smooth="yes"/>
      <point x="395" y="390" type="line"/>
      <point x="388" y="340"/>
      <point x="381" y="292"/>
      <point x="374" y="242" type="curve"/>
      <point x="374" y="11" type="line" smooth="yes"/>
      <point x="374" y="5"/>
      <point x="379" y="0"/>
      <point x="385" y="0" type="curve" smooth="yes"/>
      <point x="420" y="0"/>
      <point x="455" y="0"/>
    </contour>
  </outline>
</glyph>
<glyph name="six" format="1">
  <advance width="600"/>
  <unicode hex="0036"/>
  <outline>
    <contour>
      <point x="200" y="88" type="curve"/>
      <point x="200" y="8"/>
      <point x="246" y="-21"/>
      <point x="308" y="-21" type="curve"/>
      <point x="447" y="-21"/>
      <point x="545" y="70"/>
      <point x="545" y="190" type="curve" smooth="yes"/>
      <point x="545" y="251" type="line" smooth="yes"/>
      <point x="545" y="293"/>
      <point x="491" y="322"/>
      <point x="432" y="322" type="curve"/>
      <point x="432" y="292"/>
      <point x="432" y="271"/>
      <point x="432" y="238" type="curve" smooth="yes"/>
      <point x="432" y="202" type="line" smooth="yes"/>
      <point x="432" y="134"/>
      <point x="386" y="88"/>
      <point x="301" y="88" type="curve" smooth="yes"/>
      <point x="255" y="88"/>
      <point x="227" y="88"/>
    </contour>
    <contour>
      <point x="236" y="605" type="curve"/>
      <point x="269" y="605"/>
      <point x="289" y="605"/>
      <point x="334" y="605" type="curve" smooth="yes"/>
      <point x="405" y="605"/>
      <point x="443" y="594"/>
      <point x="495" y="566" type="curve"/>
      <point x="512" y="566" type="line"/>
      <point x="512" y="595"/>
      <point x="512" y="630"/>
      <point x="512" y="673" type="curve" smooth="yes"/>
      <point x="512" y="676"/>
      <point x="512" y="678"/>
      <point x="510" y="680" type="curve" smooth="yes"/>
      <point x="493" y="697"/>
      <point x="425" y="720"/>
      <point x="348" y="720" type="curve" smooth="yes"/>
      <point x="252" y="720"/>
      <point x="236" y="662"/>
    </contour>
    <contour>
      <point x="59" y="410" type="curve" smooth="yes"/>
      <point x="59" y="265" type="line" smooth="yes"/>
      <point x="59" y="76"/>
      <point x="146" y="-21"/>
      <point x="308" y="-21" type="curve" smooth="yes"/>
      <point x="320" y="-21"/>
      <point x="329" y="0"/>
      <point x="301" y="88" type="curve"/>
      <point x="214" y="88"/>
      <point x="177" y="137"/>
      <point x="177" y="262" type="curve" smooth="yes"/>
      <point x="177" y="414" type="line" smooth="yes"/>
      <point x="177" y="549"/>
      <point x="227" y="605"/>
      <point x="334" y="605" type="curve"/>
      <point x="372" y="703"/>
      <point x="368" y="720"/>
      <point x="348" y="720" type="curve" smooth="yes"/>
      <point x="208" y="720"/>
      <point x="59" y="650"/>
    </contour>
    <contour>
      <point x="344" y="438" type="curve" smooth="yes"/>
      <point x="273" y="438"/>
      <point x="211" y="411"/>
      <point x="177" y="377" type="curve" smooth="yes"/>
      <point x="166" y="367"/>
      <point x="162" y="348"/>
      <point x="162" y="279" type="curve"/>
      <point x="207" y="318"/>
      <point x="255" y="334"/>
      <point x="311" y="334" type="curve" smooth="yes"/>
      <point x="394" y="334"/>
      <point x="432" y="303"/>
      <point x="432" y="238" type="curve" smooth="yes"/>
      <point x="432" y="225"/>
      <point x="432" y="209"/>
      <point x="432" y="201" type="curve"/>
      <point x="527" y="202"/>
      <point x="545" y="233"/>
      <point x="545" y="251" type="curve" smooth="yes"/>
      <point x="545" y="369"/>
      <point x="465" y="438"/>
    </contour>
  </outline>
</glyph>
<glyph name="seven" format="1">
  <advance width="600"/>
  <unicode hex="0037"/>
  <outline>
    <contour>
      <point x="460" y="591" type="line" smooth="yes"/>
      <point x="489" y="591"/>
      <point x="517" y="594"/>
      <point x="547" y="601" type="curve"/>
      <point x="547" y="689" type="line"/>
      <point x="547" y="695"/>
      <point x="542" y="700"/>
      <point x="536" y="700" type="curve"/>
      <point x="60" y="700" type="line"/>
      <point x="60" y="654" type="line" smooth="yes"/>
      <point x="60" y="611"/>
      <point x="74" y="591"/>
      <point x="94" y="591" type="curve" smooth="yes"/>
    </contour>
    <contour>
      <point x="309" y="0" type="line"/>
      <point x="455" y="368"/>
      <point x="547" y="593"/>
      <point x="547" y="601" type="curve" smooth="yes"/>
      <point x="547" y="632"/>
      <point x="513" y="639"/>
      <point x="441" y="638" type="curve"/>
      <point x="281" y="249"/>
      <point x="187" y="22"/>
      <point x="187" y="11" type="curve" smooth="yes"/>
      <point x="187" y="5"/>
      <point x="192" y="0"/>
      <point x="198" y="0" type="curve" smooth="yes"/>
    </contour>
    <contour>
      <point x="176" y="480" type="curve"/>
      <point x="176" y="529"/>
      <point x="176" y="616"/>
      <point x="176" y="666" type="curve"/>
      <point x="176" y="691"/>
      <point x="148" y="700"/>
      <point x="72" y="700" type="curve" smooth="yes"/>
      <point x="60" y="700" type="line"/>
      <point x="60" y="644"/>
      <point x="60" y="546"/>
      <point x="60" y="491" type="curve"/>
      <point x="60" y="485"/>
      <point x="65" y="480"/>
      <point x="71" y="480" type="curve" smooth="yes"/>
      <point x="106" y="480"/>
      <point x="141" y="480"/>
    </contour>
  </outline>
</glyph>
<glyph name="eight" format="1">
  <advance width="600"/>
  <unicode hex="0038"/>
  <outline>
    <contour>
      <point x="380" y="370" type="curve" smooth="yes"/>
      <point x="267" y="411" type="line" smooth="yes"/>
      <point x="209" y="431"/>
      <point x="182" y="462"/>
      <point x="182" y="506" type="curve" smooth="yes"/>
      <point x="182" y="527"/>
      <point x="182" y="547"/>
      <point x="182" y="577" type="curve"/>
      <point x="124" y="576"/>
      <point x="73" y="553"/>
      <point x="73" y="505" type="curve" smooth="yes"/>
      <point x="73" y="416"/>
      <point x="121" y="360"/>
      <point x="242" y="316" type="curve" smooth="yes"/>
      <point x="351" y="275" type="line" smooth="yes"/>
      <point x="414" y="251"/>
      <point x="436" y="230"/>
      <point x="436" y="185" type="curve" smooth="yes"/>
      <point x="436" y="139"/>
      <point x="435" y="125"/>
      <point x="435" y="105" type="curve"/>
      <point x="494" y="108"/>
      <point x="545" y="143"/>
      <point x="545" y="192" type="curve"/>
      <point x="545" y="276"/>
      <point x="494" y="329"/>
    </contour>
    <contour>
      <point x="299" y="-20" type="curve" smooth="yes"/>
      <point x="451" y="-20"/>
      <point x="545" y="59"/>
      <point x="545" y="157" type="curve" smooth="yes"/>
      <point x="545" y="192" type="line" smooth="yes"/>
      <point x="545" y="228"/>
      <point x="500" y="247"/>
      <point x="436" y="249" type="curve"/>
      <point x="436" y="242"/>
      <point x="436" y="215"/>
      <point x="436" y="174" type="curve" smooth="yes"/>
      <point x="436" y="121"/>
      <point x="390" y="88"/>
      <point x="299" y="88" type="curve" smooth="yes"/>
      <point x="246" y="88"/>
      <point x="220" y="88"/>
      <point x="191" y="88" type="curve"/>
      <point x="191" y="33"/>
      <point x="239" y="-20"/>
    </contour>
    <contour>
      <point x="301" y="720" type="curve" smooth="yes"/>
      <point x="163" y="720"/>
      <point x="73" y="639"/>
      <point x="73" y="534" type="curve" smooth="yes"/>
      <point x="73" y="505" type="line" smooth="yes"/>
      <point x="73" y="466"/>
      <point x="105" y="441"/>
      <point x="182" y="441" type="curve"/>
      <point x="182" y="462"/>
      <point x="182" y="483"/>
      <point x="182" y="520" type="curve" smooth="yes"/>
      <point x="182" y="573"/>
      <point x="226" y="612"/>
      <point x="300" y="612" type="curve" smooth="yes"/>
      <point x="360" y="612"/>
      <point x="383" y="612"/>
      <point x="412" y="612" type="curve"/>
      <point x="412" y="678"/>
      <point x="365" y="720"/>
    </contour>
    <contour>
      <point x="369" y="345" type="curve" smooth="yes"/>
      <point x="438" y="345"/>
      <point x="528" y="427"/>
      <point x="528" y="507" type="curve" smooth="yes"/>
      <point x="528" y="535" type="line" smooth="yes"/>
      <point x="528" y="642"/>
      <point x="439" y="720"/>
      <point x="301" y="720" type="curve" smooth="yes"/>
      <point x="281" y="720"/>
      <point x="277" y="708"/>
      <point x="300" y="612" type="curve"/>
      <point x="385" y="612"/>
      <point x="418" y="581"/>
      <point x="418" y="522" type="curve" smooth="yes"/>
      <point x="418" y="508" type="line" smooth="yes"/>
      <point x="418" y="458"/>
      <point x="385" y="407"/>
      <point x="291" y="380" type="curve"/>
      <point x="309" y="358"/>
      <point x="339" y="345"/>
    </contour>
    <contour>
      <point x="299" y="88" type="curve"/>
      <point x="212" y="88"/>
      <point x="164" y="121"/>
      <point x="164" y="174" type="curve" smooth="yes"/>
      <point x="164" y="185" type="line" smooth="yes"/>
      <point x="164" y="238"/>
      <point x="205" y="293"/>
      <point x="309" y="312" type="curve"/>
      <point x="289" y="336"/>
      <point x="270" y="349"/>
      <point x="226" y="349" type="curve" smooth="yes"/>
      <point x="148" y="349"/>
      <point x="55" y="278"/>
      <point x="55" y="191" type="curve" smooth="yes"/>
      <point x="55" y="156" type="line" smooth="yes"/>
      <point x="55" y="50"/>
      <point x="153" y="-20"/>
      <point x="299" y="-20" type="curve" smooth="yes"/>
      <point x="316" y="-20"/>
      <point x="332" y="8"/>
    </contour>
  </outline>
</glyph>
<glyph name="colon" format="1">
  <advance width="600"/>
  <unicode hex="003A"/>
  <outline>
    <contour>
      <point x="387" y="371" type="curve"/>
      <point x="387" y="532" type="line" smooth="yes"/>
      <point x="387" y="538"/>
      <point x="382" y="543"/>
      <point x="376" y="543" type="curve" smooth="yes"/>
      <point x="324" y="543"/>
      <point x="265" y="543"/>
      <point x="213" y="543" type="curve"/>
      <point x="213" y="382" type="line" smooth="yes"/>
      <point x="213" y="376"/>
      <point x="218" y="371"/>
      <point x="224" y="371" type="curve" smooth="yes"/>
      <point x="276" y="371"/>
      <point x="335" y="371"/>
    </contour>
    <contour>
      <point x="387" y="-8" type="curve"/>
      <point x="387" y="153" type="line" smooth="yes"/>
      <point x="387" y="159"/>
      <point x="382" y="164"/>
      <point x="376" y="164" type="curve" smooth="yes"/>
      <point x="324" y="164"/>
      <point x="265" y="164"/>
      <point x="213" y="164" type="curve"/>
      <point x="213" y="3" type="line" smooth="yes"/>
      <point x="213" y="-3"/>
      <point x="218" y="-8"/>
      <point x="224" y="-8" type="curve" smooth="yes"/>
      <point x="276" y="-8"/>
      <point x="335" y="-8"/>
    </contour>
  </outline>
</glyph>
<glyph name="semicolon" format="1">
  <advance width="600"/>
  <unicode hex="003B"/>
  <outline>
    <contour>
      <point x="387" y="371" type="curve"/>
      <point x="387" y="532" type="line" smooth="yes"/>
      <point x="387" y="538"/>
      <point x="382" y="543"/>
      <point x="376" y="543" type="curve" smooth="yes"/>
      <point x="324" y="543"/>
      <point x="265" y="543"/>
      <point x="213" y="543" type="curve"/>
      <point x="213" y="382" type="line" smooth="yes"/>
      <point x="213" y="376"/>
      <point x="218" y="371"/>
      <point x="224" y="371" type="curve" smooth="yes"/>
      <point x="276" y="371"/>
      <point x="335" y="371"/>
    </contour>
    <contour>
      <point x="291" y="-223" type="curve" smooth="yes"/>
      <point x="296" y="-223"/>
      <point x="299" y="-222"/>
      <point x="301" y="-216" type="curve"/>
      <point x="342" y="-112"/>
      <point x="387" y="4"/>
      <point x="423" y="92" type="curve"/>
      <point x="426" y="100"/>
      <point x="423" y="105"/>
      <point x="415" y="105" type="curve" smooth="yes"/>
      <point x="356" y="105"/>
      <point x="322" y="105"/>
      <point x="253" y="105" type="curve"/>
      <point x="229" y="-4"/>
      <point x="205" y="-114"/>
      <point x="181" y="-223" type="curve"/>
      <point x="210" y="-223"/>
      <point x="243" y="-223"/>
    </contour>
  </outline>
</glyph>
<glyph name="less" format="1">
  <advance width="600"/>
  <unicode hex="003C"/>
  <outline>
    <contour>
      <point x="520" y="468" type="curve"/>
      <point x="520" y="574" type="line"/>
      <point x="520" y="579"/>
      <point x="517" y="583"/>
      <point x="512" y="583" type="curve" smooth="yes"/>
      <point x="508" y="583"/>
      <point x="504" y="582"/>
      <point x="490" y="575" type="curve" smooth="yes"/>
      <point x="446" y="555"/>
      <point x="219" y="448"/>
      <point x="79" y="382" type="curve"/>
      <point x="79" y="243" type="line"/>
      <point x="93" y="263"/>
      <point x="108" y="277"/>
      <point x="155" y="297" type="curve"/>
      <point x="276" y="354"/>
      <point x="398" y="411"/>
    </contour>
    <contour>
      <point x="519" y="12" type="curve"/>
      <point x="519" y="49"/>
      <point x="519" y="82"/>
      <point x="519" y="119" type="curve" smooth="yes"/>
      <point x="519" y="129"/>
      <point x="518" y="132"/>
      <point x="509" y="136" type="curve" smooth="yes"/>
      <point x="408" y="184"/>
      <point x="305" y="232"/>
      <point x="203" y="280" type="curve" smooth="yes"/>
      <point x="194" y="284"/>
      <point x="192" y="288"/>
      <point x="192" y="296" type="curve" smooth="yes"/>
      <point x="192" y="315"/>
      <point x="192" y="338"/>
      <point x="192" y="369" type="curve"/>
      <point x="110" y="368"/>
      <point x="79" y="301"/>
      <point x="79" y="251" type="curve" smooth="yes"/>
      <point x="79" y="229" type="line" smooth="yes"/>
      <point x="79" y="219"/>
      <point x="83" y="213"/>
      <point x="93" y="209" type="curve" smooth="yes"/>
      <point x="235" y="144"/>
      <point x="377" y="78"/>
    </contour>
  </outline>
</glyph>
<glyph name="equal" format="1">
  <advance width="600"/>
  <unicode hex="003D"/>
  <outline>
    <contour>
      <point x="65" y="483" type="line"/>
      <point x="65" y="448"/>
      <point x="65" y="418"/>
      <point x="65" y="383" type="curve" smooth="yes"/>
      <point x="65" y="380"/>
      <point x="66" y="377"/>
      <point x="68" y="375" type="curve" smooth="yes"/>
      <point x="70" y="373"/>
      <point x="73" y="372"/>
      <point x="76" y="372" type="curve"/>
      <point x="535" y="372" type="line"/>
      <point x="535" y="407"/>
      <point x="535" y="437"/>
      <point x="535" y="472" type="curve" smooth="yes"/>
      <point x="535" y="478"/>
      <point x="530" y="483"/>
      <point x="524" y="483" type="curve"/>
    </contour>
    <contour>
      <point x="535" y="116" type="line"/>
      <point x="535" y="151"/>
      <point x="535" y="181"/>
      <point x="535" y="215" type="curve" smooth="yes"/>
      <point x="535" y="218"/>
      <point x="534" y="221"/>
      <point x="532" y="223" type="curve" smooth="yes"/>
      <point x="530" y="225"/>
      <point x="527" y="226"/>
      <point x="524" y="226" type="curve"/>
      <point x="65" y="226" type="line"/>
      <point x="65" y="192"/>
      <point x="65" y="162"/>
      <point x="65" y="127" type="curve" smooth="yes"/>
      <point x="65" y="121"/>
      <point x="70" y="116"/>
      <point x="76" y="116" type="curve"/>
    </contour>
  </outline>
</glyph>
<glyph name="greater" format="1">
  <advance width="600"/>
  <unicode hex="003E"/>
  <outline>
    <contour>
      <point x="80" y="132" type="curve"/>
      <point x="80" y="27" type="line"/>
      <point x="80" y="21"/>
      <point x="83" y="18"/>
      <point x="88" y="18" type="curve" smooth="yes"/>
      <point x="92" y="18"/>
      <point x="96" y="19"/>
      <point x="110" y="25" type="curve" smooth="yes"/>
      <point x="154" y="46"/>
      <point x="381" y="153"/>
      <point x="521" y="218" type="curve"/>
      <point x="521" y="358" type="line"/>
      <point x="507" y="337"/>
      <point x="492" y="324"/>
      <point x="445" y="303" type="curve"/>
      <point x="324" y="246"/>
      <point x="202" y="189"/>
    </contour>
    <contour>
      <point x="81" y="589" type="curve"/>
      <point x="81" y="551"/>
      <point x="81" y="518"/>
      <point x="81" y="481" type="curve" smooth="yes"/>
      <point x="81" y="472"/>
      <point x="82" y="469"/>
      <point x="91" y="464" type="curve" smooth="yes"/>
      <point x="192" y="417"/>
      <point x="295" y="368"/>
      <point x="397" y="320" type="curve" smooth="yes"/>
      <point x="406" y="316"/>
      <point x="408" y="312"/>
      <point x="408" y="304" type="curve" smooth="yes"/>
      <point x="408" y="285"/>
      <point x="408" y="262"/>
      <point x="408" y="231" type="curve"/>
      <point x="490" y="233"/>
      <point x="521" y="299"/>
      <point x="521" y="349" type="curve" smooth="yes"/>
      <point x="521" y="372" type="line" smooth="yes"/>
      <point x="521" y="381"/>
      <point x="517" y="388"/>
      <point x="507" y="391" type="curve" smooth="yes"/>
      <point x="365" y="457"/>
      <point x="223" y="523"/>
    </contour>
  </outline>
</glyph>
<glyph name="question" format="1">
  <advance width="600"/>
  <unicode hex="003F"/>
  <outline>
    <contour>
      <point x="296" y="720" type="curve" smooth="yes"/>
      <point x="200" y="720"/>
      <point x="115" y="695"/>
      <point x="86" y="666" type="curve" smooth="yes"/>
      <point x="83" y="663"/>
      <point x="82" y="661"/>
      <point x="82" y="656" type="curve" smooth="yes"/>
      <point x="82" y="611"/>
      <point x="82" y="570"/>
      <point x="82" y="549" type="curve"/>
      <point x="99" y="549" type="line"/>
      <point x="161" y="590"/>
      <point x="222" y="605"/>
      <point x="295" y="605" type="curve" smooth="yes"/>
      <point x="390" y="605"/>
      <point x="412" y="579"/>
      <point x="412" y="537" type="curve" smooth="yes"/>
      <point x="412" y="514"/>
      <point x="412" y="496"/>
      <point x="412" y="471" type="curve"/>
      <point x="495" y="471"/>
      <point x="527" y="511"/>
      <point x="527" y="556" type="curve" smooth="yes"/>
      <point x="527" y="643"/>
      <point x="457" y="720"/>
    </contour>
    <contour>
      <point x="412" y="616" type="curve"/>
      <point x="412" y="594"/>
      <point x="412" y="561"/>
      <point x="412" y="528" type="curve" smooth="yes"/>
      <point x="412" y="490"/>
      <point x="401" y="477"/>
      <point x="345" y="439" type="curve" smooth="yes"/>
      <point x="315" y="418" type="line" smooth="yes"/>
      <point x="239" y="366"/>
      <point x="218" y="334"/>
      <point x="218" y="277" type="curve" smooth="yes"/>
      <point x="218" y="258" type="line" smooth="yes"/>
      <point x="218" y="249"/>
      <point x="221" y="247"/>
      <point x="229" y="247" type="curve" smooth="yes"/>
      <point x="335" y="247" type="line"/>
      <point x="335" y="254" type="line" smooth="yes"/>
      <point x="335" y="292"/>
      <point x="344" y="305"/>
      <point x="394" y="339" type="curve" smooth="yes"/>
      <point x="430" y="363" type="line" smooth="yes"/>
      <point x="506" y="413"/>
      <point x="527" y="453"/>
      <point x="527" y="525" type="curve" smooth="yes"/>
      <point x="527" y="556" type="line" smooth="yes"/>
      <point x="527" y="592"/>
      <point x="505" y="616"/>
    </contour>
    <contour>
      <point x="368" y="-8" type="curve"/>
      <point x="368" y="147" type="line" smooth="yes"/>
      <point x="368" y="153"/>
      <point x="363" y="158"/>
      <point x="357" y="158" type="curve" smooth="yes"/>
      <point x="306" y="158"/>
      <point x="246" y="158"/>
      <point x="194" y="158" type="curve"/>
      <point x="194" y="3" type="line" smooth="yes"/>
      <point x="194" y="-3"/>
      <point x="199" y="-8"/>
      <point x="205" y="-8" type="curve" smooth="yes"/>
      <point x="257" y="-8"/>
      <point x="317" y="-8"/>
    </contour>
  </outline>
</glyph>
<glyph name="B" format="1">
  <advance width="600"/>
  <unicode hex="0042"/>
  <outline>
    <contour>
      <point x="203" y="9" type="curve"/>
      <point x="203" y="656" type="line" smooth="yes"/>
      <point x="203" y="665"/>
      <point x="162" y="670"/>
      <point x="84" y="670" type="curve"/>
      <point x="84" y="11" type="line"/>
      <point x="84" y="10"/>
      <point x="137" y="9"/>
    </contour>
    <contour>
      <point x="30" y="700" type="curve"/>
      <point x="30" y="673"/>
      <point x="30" y="636"/>
      <point x="30" y="602" type="curve" smooth="yes"/>
      <point x="30" y="599"/>
      <point x="31" y="596"/>
      <point x="33" y="594" type="curve" smooth="yes"/>
      <point x="35" y="592"/>
      <point x="38" y="591"/>
      <point x="41" y="591" type="curve" smooth="yes"/>
      <point x="57" y="591"/>
      <point x="82" y="591"/>
      <point x="102" y="591" type="curve" smooth="yes"/>
      <point x="168" y="591"/>
      <point x="248" y="591"/>
      <point x="313" y="591" type="curve" smooth="yes"/>
      <point x="384" y="591"/>
      <point x="398" y="591"/>
      <point x="441" y="591" type="curve"/>
      <point x="441" y="651"/>
      <point x="401" y="700"/>
      <point x="305" y="700" type="curve" smooth="yes"/>
      <point x="223" y="700"/>
      <point x="116" y="700"/>
    </contour>
    <contour>
      <point x="530" y="503" type="curve" smooth="yes"/>
      <point x="530" y="530" type="line" smooth="yes"/>
      <point x="530" y="618"/>
      <point x="471" y="700"/>
      <point x="305" y="700" type="curve" smooth="yes"/>
      <point x="288" y="700"/>
      <point x="288" y="685"/>
      <point x="313" y="591" type="curve"/>
      <point x="382" y="591"/>
      <point x="411" y="564"/>
      <point x="411" y="512" type="curve" smooth="yes"/>
      <point x="411" y="482" type="line" smooth="yes"/>
      <point x="411" y="429"/>
      <point x="385" y="396"/>
      <point x="302" y="396" type="curve" smooth="yes"/>
      <point x="252" y="396"/>
      <point x="216" y="396"/>
      <point x="168" y="396" type="curve"/>
      <point x="168" y="383"/>
      <point x="168" y="368"/>
      <point x="168" y="355" type="curve" smooth="yes"/>
      <point x="168" y="348"/>
      <point x="174" y="344"/>
      <point x="182" y="344" type="curve" smooth="yes"/>
      <point x="326" y="344" type="line" smooth="yes"/>
      <point x="456" y="344"/>
      <point x="530" y="405"/>
    </contour>
    <contour>
      <point x="535" y="181" type="curve" smooth="yes"/>
      <point x="535" y="213" type="line" smooth="yes"/>
      <point x="535" y="307"/>
      <point x="448" y="367"/>
      <point x="319" y="367" type="curve" smooth="yes"/>
      <point x="182" y="367" type="line" smooth="yes"/>
      <point x="176" y="367"/>
      <point x="168" y="362"/>
      <point x="168" y="357" type="curve"/>
      <point x="168" y="312" type="line"/>
      <point x="296" y="312" type="line"/>
      <point x="387" y="312"/>
      <point x="416" y="281"/>
      <point x="416" y="231" type="curve" smooth="yes"/>
      <point x="416" y="197" type="line" smooth="yes"/>
      <point x="416" y="143"/>
      <point x="384" y="109"/>
      <point x="314" y="109" type="curve" smooth="yes"/>
      <point x="266" y="109"/>
      <point x="205" y="109"/>
      <point x="143" y="109" type="curve"/>
      <point x="86" y="29"/>
      <point x="84" y="16"/>
      <point x="84" y="11" type="curve" smooth="yes"/>
      <point x="84" y="4"/>
      <point x="88" y="0"/>
      <point x="95" y="0" type="curve" smooth="yes"/>
      <point x="325" y="0" type="line" smooth="yes"/>
      <point x="451" y="0"/>
      <point x="535" y="59"/>
    </contour>
  </outline>
</glyph>
<glyph name="C" format="1">
  <advance width="600"/>
  <unicode hex="0043"/>
  <outline>
    <contour>
      <point x="331" y="610" type="curve" smooth="yes"/>
      <point x="402" y="610"/>
      <point x="441" y="588"/>
      <point x="477" y="555" type="curve"/>
      <point x="529" y="609"/>
      <point x="536" y="622"/>
      <point x="536" y="635" type="curve" smooth="yes"/>
      <point x="536" y="647"/>
      <point x="535" y="649"/>
      <point x="530" y="654" type="curve" smooth="yes"/>
      <point x="496" y="688"/>
      <point x="432" y="720"/>
      <point x="333" y="720" type="curve" smooth="yes"/>
      <point x="156" y="720"/>
      <point x="59" y="614"/>
      <point x="59" y="447" type="curve" smooth="yes"/>
      <point x="59" y="252" type="line" smooth="yes"/>
      <point x="59" y="175"/>
      <point x="106" y="116"/>
      <point x="181" y="116" type="curve"/>
      <point x="181" y="156"/>
      <point x="181" y="190"/>
      <point x="181" y="251" type="curve" smooth="yes"/>
      <point x="181" y="446" type="line" smooth="yes"/>
      <point x="181" y="560"/>
      <point x="234" y="610"/>
    </contour>
    <contour>
      <point x="335" y="-20" type="curve" smooth="yes"/>
      <point x="427" y="-20"/>
      <point x="508" y="4"/>
      <point x="538" y="34" type="curve" smooth="yes"/>
      <point x="540" y="36"/>
      <point x="541" y="39"/>
      <point x="541" y="42" type="curve" smooth="yes"/>
      <point x="541" y="77"/>
      <point x="541" y="112"/>
      <point x="541" y="147" type="curve"/>
      <point x="524" y="147" type="line"/>
      <point x="469" y="111"/>
      <point x="413" y="95"/>
      <point x="335" y="95" type="curve" smooth="yes"/>
      <point x="235" y="95"/>
      <point x="181" y="148"/>
      <point x="181" y="267" type="curve"/>
      <point x="98" y="271"/>
      <point x="59" y="262"/>
      <point x="59" y="252" type="curve" smooth="yes"/>
      <point x="59" y="82"/>
      <point x="152" y="-20"/>
    </contour>
    <contour>
      <point x="536" y="472" type="curve"/>
      <point x="536" y="635" type="line" smooth="yes"/>
      <point x="536" y="648"/>
      <point x="508" y="655"/>
      <point x="427" y="655" type="curve"/>
      <point x="427" y="641"/>
      <point x="427" y="624"/>
      <point x="427" y="613" type="curve" smooth="yes"/>
      <point x="427" y="483" type="line"/>
      <point x="427" y="480"/>
      <point x="428" y="477"/>
      <point x="430" y="475" type="curve" smooth="yes"/>
      <point x="432" y="473"/>
      <point x="435" y="472"/>
      <point x="438" y="472" type="curve"/>
      <point x="471" y="472"/>
      <point x="504" y="472"/>
    </contour>
    <contour>
      <point x="312" y="711" type="move" name="top"/>
    </contour>
    <contour>
      <point x="325" y="0" type="move" name="bottom"/>
    </contour>
  </outline>
</glyph>
<glyph name="E" format="1">
  <advance width="600"/>
  <unicode hex="0045"/>
  <outline>
    <contour>
      <point x="30" y="700" type="line"/>
      <point x="30" y="665"/>
      <point x="30" y="636"/>
      <point x="30" y="602" type="curve" smooth="yes"/>
      <point x="30" y="599"/>
      <point x="31" y="596"/>
      <point x="33" y="594" type="curve" smooth="yes"/>
      <point x="35" y="592"/>
      <point x="38" y="591"/>
      <point x="41" y="591" type="curve" smooth="yes"/>
      <point x="537" y="591" type="line"/>
      <point x="537" y="625"/>
      <point x="537" y="654"/>
      <point x="537" y="689" type="curve" smooth="yes"/>
      <point x="537" y="692"/>
      <point x="536" y="695"/>
      <point x="534" y="697" type="curve" smooth="yes"/>
      <point x="532" y="699"/>
      <point x="529" y="700"/>
      <point x="526" y="700" type="curve" smooth="yes"/>
    </contour>
    <contour>
      <point x="206" y="75" type="curve"/>
      <point x="206" y="653" type="line" smooth="yes"/>
      <point x="206" y="659"/>
      <point x="201" y="664"/>
      <point x="84" y="664" type="curve"/>
      <point x="84" y="109" type="line"/>
      <point x="84" y="94"/>
      <point x="105" y="75"/>
    </contour>
    <contour>
      <point x="84" y="109" type="line"/>
      <point x="84" y="11" type="line" smooth="yes"/>
      <point x="84" y="5"/>
      <point x="89" y="0"/>
      <point x="95" y="0" type="curve" smooth="yes"/>
      <point x="537" y="0" type="line"/>
      <point x="537" y="35"/>
      <point x="537" y="64"/>
      <point x="537" y="98" type="curve" smooth="yes"/>
      <point x="537" y="104"/>
      <point x="532" y="109"/>
      <point x="526" y="109" type="curve" smooth="yes"/>
    </contour>
    <contour>
      <point x="136" y="406" type="line"/>
      <point x="136" y="305"/>
      <point x="141" y="300"/>
      <point x="147" y="300" type="curve" smooth="yes"/>
      <point x="480" y="300" type="line"/>
      <point x="480" y="330"/>
      <point x="480" y="360"/>
      <point x="480" y="395" type="curve" smooth="yes"/>
      <point x="480" y="398"/>
      <point x="479" y="401"/>
      <point x="477" y="403" type="curve" smooth="yes"/>
      <point x="475" y="405"/>
      <point x="472" y="406"/>
      <point x="469" y="406" type="curve" smooth="yes"/>
    </contour>
    <contour>
      <point x="300" y="711" type="move" name="top"/>
    </contour>
    <contour>
      <point x="538" y="0" type="move" name="ogonek"/>
    </contour>
    <contour>
      <point x="320" y="-1" type="move" name="bottom"/>
    </contour>
  </outline>
</glyph>
<glyph name="F" format="1">
  <advance width="600"/>
  <unicode hex="0046"/>
  <outline>
    <contour>
      <point x="228" y="0" type="curve"/>
      <point x="228" y="31"/>
      <point x="228" y="64"/>
      <point x="228" y="98" type="curve" smooth="yes"/>
      <point x="228" y="647" type="line"/>
      <point x="228" y="656"/>
      <point x="217" y="662"/>
      <point x="105" y="662" type="curve"/>
      <point x="105" y="11" type="line" smooth="yes"/>
      <point x="105" y="5"/>
      <point x="110" y="0"/>
      <point x="116" y="0" type="curve" smooth="yes"/>
      <point x="154" y="0"/>
      <point x="190" y="0"/>
    </contour>
    <contour>
      <point x="52" y="700" type="line"/>
      <point x="52" y="665"/>
      <point x="52" y="636"/>
      <point x="52" y="602" type="curve" smooth="yes"/>
      <point x="52" y="599"/>
      <point x="53" y="596"/>
      <point x="55" y="594" type="curve" smooth="yes"/>
      <point x="57" y="592"/>
      <point x="60" y="591"/>
      <point x="63" y="591" type="curve"/>
      <point x="537" y="591" type="line"/>
      <point x="537" y="625"/>
      <point x="537" y="654"/>
      <point x="537" y="689" type="curve" smooth="yes"/>
      <point x="537" y="692"/>
      <point x="536" y="695"/>
      <point x="534" y="697" type="curve" smooth="yes"/>
      <point x="532" y="699"/>
      <point x="529" y="700"/>
      <point x="526" y="700" type="curve"/>
    </contour>
    <contour>
      <point x="158" y="380" type="line"/>
      <point x="158" y="284"/>
      <point x="161" y="272"/>
      <point x="169" y="272" type="curve"/>
      <point x="493" y="272" type="line"/>
      <point x="493" y="306"/>
      <point x="493" y="334"/>
      <point x="493" y="369" type="curve"/>
      <point x="493" y="372"/>
      <point x="492" y="375"/>
      <point x="490" y="377" type="curve" smooth="yes"/>
      <point x="488" y="379"/>
      <point x="485" y="380"/>
      <point x="482" y="380" type="curve"/>
    </contour>
  </outline>
</glyph>
<glyph name="G" format="1">
  <advance width="583"/>
  <unicode hex="0047"/>
  <outline>
    <contour>
      <point x="316" y="613" type="curve" smooth="yes"/>
      <point x="387" y="613"/>
      <point x="421" y="596"/>
      <point x="464" y="560" type="curve"/>
      <point x="518" y="617"/>
      <point x="522" y="628"/>
      <point x="522" y="638" type="curve" smooth="yes"/>
      <point x="522" y="649"/>
      <point x="521" y="652"/>
      <point x="516" y="657" type="curve" smooth="yes"/>
      <point x="482" y="691"/>
      <point x="415" y="720"/>
      <point x="321" y="720" type="curve" smooth="yes"/>
      <point x="154" y="720"/>
      <point x="59" y="631"/>
      <point x="59" y="457" type="curve" smooth="yes"/>
      <point x="59" y="234" type="line" smooth="yes"/>
      <point x="59" y="182"/>
      <point x="111" y="121"/>
      <point x="175" y="121" type="curve"/>
      <point x="175" y="157"/>
      <point x="175" y="187"/>
      <point x="175" y="234" type="curve" smooth="yes"/>
      <point x="175" y="458" type="line" smooth="yes"/>
      <point x="175" y="561"/>
      <point x="219" y="613"/>
    </contour>
    <contour>
      <point x="309" y="88" type="curve" smooth="yes"/>
      <point x="223" y="88"/>
      <point x="175" y="135"/>
      <point x="175" y="234" type="curve"/>
      <point x="84" y="250"/>
      <point x="59" y="241"/>
      <point x="59" y="234" type="curve" smooth="yes"/>
      <point x="59" y="77"/>
      <point x="145" y="-20"/>
      <point x="304" y="-20" type="curve" smooth="yes"/>
      <point x="453" y="-20"/>
      <point x="524" y="52"/>
      <point x="524" y="69" type="curve" smooth="yes"/>
      <point x="524" y="288" type="line" smooth="yes"/>
      <point x="524" y="303"/>
      <point x="451" y="310"/>
      <point x="415" y="310" type="curve"/>
      <point x="415" y="248"/>
      <point x="415" y="181"/>
      <point x="415" y="119" type="curve" smooth="yes"/>
      <point x="415" y="113"/>
      <point x="377" y="88"/>
    </contour>
    <contour>
      <point x="307" y="373" type="line"/>
      <point x="307" y="342"/>
      <point x="307" y="313"/>
      <point x="307" y="282" type="curve" smooth="yes"/>
      <point x="307" y="279"/>
      <point x="308" y="276"/>
      <point x="310" y="274" type="curve" smooth="yes"/>
      <point x="312" y="272"/>
      <point x="315" y="271"/>
      <point x="318" y="271" type="curve"/>
      <point x="563" y="271" type="line"/>
      <point x="563" y="362" type="line" smooth="yes"/>
      <point x="563" y="368"/>
      <point x="558" y="373"/>
      <point x="552" y="373" type="curve" smooth="yes"/>
    </contour>
    <contour>
      <point x="522" y="496" type="curve"/>
      <point x="522" y="638" type="line" smooth="yes"/>
      <point x="522" y="653"/>
      <point x="513" y="659"/>
      <point x="413" y="659" type="curve"/>
      <point x="413" y="646"/>
      <point x="413" y="628"/>
      <point x="413" y="616" type="curve" smooth="yes"/>
      <point x="413" y="507" type="line" smooth="yes"/>
      <point x="413" y="500"/>
      <point x="417" y="496"/>
      <point x="424" y="496" type="curve" smooth="yes"/>
      <point x="457" y="496"/>
      <point x="489" y="496"/>
    </contour>
    <contour>
      <point x="311" y="711" type="move" name="top"/>
    </contour>
    <contour>
      <point x="311" y="-1" type="move" name="bottom"/>
    </contour>
  </outline>
</glyph>
<glyph name="H" format="1">
  <advance width="600"/>
  <unicode hex="0048"/>
  <outline>
    <contour>
      <point x="74" y="700" type="curve"/>
      <point x="74" y="665"/>
      <point x="74" y="631"/>
      <point x="74" y="596" type="curve" smooth="yes"/>
      <point x="74" y="11" type="line" smooth="yes"/>
      <point x="74" y="5"/>
      <point x="79" y="0"/>
      <point x="85" y="0" type="curve" smooth="yes"/>
      <point x="122" y="0"/>
      <point x="159" y="0"/>
      <point x="196" y="0" type="curve"/>
      <point x="196" y="689" type="line" smooth="yes"/>
      <point x="196" y="692"/>
      <point x="195" y="695"/>
      <point x="193" y="697" type="curve" smooth="yes"/>
      <point x="191" y="699"/>
      <point x="188" y="700"/>
      <point x="185" y="700" type="curve" smooth="yes"/>
      <point x="148" y="700"/>
      <point x="111" y="700"/>
    </contour>
    <contour>
      <point x="526" y="0" type="curve"/>
      <point x="526" y="32"/>
      <point x="526" y="69"/>
      <point x="526" y="107" type="curve" smooth="yes"/>
      <point x="526" y="689" type="line" smooth="yes"/>
      <point x="526" y="695"/>
      <point x="521" y="700"/>
      <point x="515" y="700" type="curve" smooth="yes"/>
      <point x="478" y="700"/>
      <point x="441" y="700"/>
      <point x="404" y="700" type="curve"/>
      <point x="404" y="11" type="line" smooth="yes"/>
      <point x="404" y="8"/>
      <point x="405" y="5"/>
      <point x="407" y="3" type="curve" smooth="yes"/>
      <point x="409" y="1"/>
      <point x="412" y="0"/>
      <point x="415" y="0" type="curve" smooth="yes"/>
      <point x="452" y="0"/>
      <point x="489" y="0"/>
    </contour>
    <contour>
      <point x="129" y="406" type="line"/>
      <point x="129" y="308" type="line" smooth="yes"/>
      <point x="129" y="305"/>
      <point x="130" y="302"/>
      <point x="132" y="300" type="curve" smooth="yes"/>
      <point x="134" y="298"/>
      <point x="137" y="297"/>
      <point x="140" y="297" type="curve"/>
      <point x="473" y="297" type="line"/>
      <point x="473" y="406"/>
      <point x="468" y="406"/>
      <point x="462" y="406" type="curve" smooth="yes"/>
    </contour>
    <contour>
      <point x="300" y="711" type="move" name="top"/>
    </contour>
  </outline>
</glyph>
<glyph name="I" format="1">
  <advance width="600"/>
  <unicode hex="0049"/>
  <outline>
    <contour>
      <point x="361" y="40" type="curve"/>
      <point x="361" y="649" type="line" smooth="yes"/>
      <point x="361" y="655"/>
      <point x="356" y="660"/>
      <point x="239" y="660" type="curve"/>
      <point x="239" y="51" type="line" smooth="yes"/>
      <point x="239" y="45"/>
      <point x="244" y="40"/>
    </contour>
    <contour>
      <point x="77" y="700" type="line"/>
      <point x="77" y="665"/>
      <point x="77" y="636"/>
      <point x="77" y="602" type="curve"/>
      <point x="77" y="599"/>
      <point x="78" y="596"/>
      <point x="80" y="594" type="curve" smooth="yes"/>
      <point x="82" y="592"/>
      <point x="85" y="591"/>
      <point x="88" y="591" type="curve" smooth="yes"/>
      <point x="523" y="591" type="line"/>
      <point x="523" y="625"/>
      <point x="523" y="654"/>
      <point x="523" y="689" type="curve" smooth="yes"/>
      <point x="523" y="695"/>
      <point x="518" y="700"/>
      <point x="512" y="700" type="curve" smooth="yes"/>
    </contour>
    <contour>
      <point x="77" y="109" type="line"/>
      <point x="77" y="75"/>
      <point x="77" y="46"/>
      <point x="77" y="11" type="curve"/>
      <point x="77" y="8"/>
      <point x="78" y="5"/>
      <point x="80" y="3" type="curve" smooth="yes"/>
      <point x="82" y="1"/>
      <point x="85" y="0"/>
      <point x="88" y="0" type="curve" smooth="yes"/>
      <point x="523" y="0" type="line"/>
      <point x="523" y="35"/>
      <point x="523" y="64"/>
      <point x="523" y="98" type="curve" smooth="yes"/>
      <point x="523" y="104"/>
      <point x="518" y="109"/>
      <point x="512" y="109" type="curve" smooth="yes"/>
    </contour>
    <contour>
      <point x="300" y="711" type="move" name="top"/>
    </contour>
    <contour>
      <point x="524" y="0" type="move" name="ogonek"/>
    </contour>
    <contour>
      <point x="300" y="-1" type="move" name="bottom"/>
    </contour>
  </outline>
</glyph>
<glyph name="J" format="1">
  <advance width="600"/>
  <unicode hex="004A"/>
  <outline>
    <contour>
      <point x="128" y="700" type="line"/>
      <point x="128" y="665"/>
      <point x="128" y="636"/>
      <point x="128" y="602" type="curve" smooth="yes"/>
      <point x="128" y="599"/>
      <point x="129" y="596"/>
      <point x="131" y="594" type="curve" smooth="yes"/>
      <point x="133" y="592"/>
      <point x="136" y="591"/>
      <point x="139" y="591" type="curve" smooth="yes"/>
      <point x="463" y="591" type="line"/>
      <point x="463" y="641"/>
      <point x="448" y="700"/>
      <point x="410" y="700" type="curve"/>
    </contour>
    <contour>
      <point x="503" y="236" type="curve" smooth="yes"/>
      <point x="503" y="689" type="line" smooth="yes"/>
      <point x="503" y="695"/>
      <point x="499" y="700"/>
      <point x="492" y="700" type="curve" smooth="yes"/>
      <point x="380" y="700" type="line"/>
      <point x="380" y="229" type="line" smooth="yes"/>
      <point x="380" y="171"/>
      <point x="380" y="145"/>
      <point x="380" y="111" type="curve"/>
      <point x="472" y="111"/>
      <point x="503" y="153"/>
    </contour>
    <contour>
      <point x="251" y="91" type="curve" smooth="yes"/>
      <point x="200" y="91"/>
      <point x="156" y="102"/>
      <point x="108" y="127" type="curve"/>
      <point x="90" y="127" type="line"/>
      <point x="90" y="91"/>
      <point x="90" y="61"/>
      <point x="90" y="25" type="curve"/>
      <point x="90" y="22"/>
      <point x="91" y="19"/>
      <point x="93" y="17" type="curve" smooth="yes"/>
      <point x="111" y="-1"/>
      <point x="179" y="-20"/>
      <point x="238" y="-20" type="curve" smooth="yes"/>
      <point x="259" y="-20" type="line" smooth="yes"/>
      <point x="425" y="-20"/>
      <point x="503" y="88"/>
      <point x="503" y="236" type="curve"/>
      <point x="503" y="252"/>
      <point x="497" y="263"/>
      <point x="380" y="229" type="curve"/>
      <point x="380" y="133"/>
      <point x="341" y="91"/>
    </contour>
    <contour>
      <point x="297" y="711" type="move" name="top"/>
    </contour>
  </outline>
</glyph>
<glyph name="L" format="1">
  <advance width="600"/>
  <unicode hex="004C"/>
  <outline>
    <contour>
      <point x="199" y="75" type="curve"/>
      <point x="199" y="689" type="line" smooth="yes"/>
      <point x="199" y="692"/>
      <point x="198" y="695"/>
      <point x="196" y="697" type="curve" smooth="yes"/>
      <point x="194" y="699"/>
      <point x="191" y="700"/>
      <point x="188" y="700" type="curve" smooth="yes"/>
      <point x="151" y="700"/>
      <point x="114" y="700"/>
      <point x="77" y="700" type="curve"/>
      <point x="77" y="667"/>
      <point x="77" y="633"/>
      <point x="77" y="600" type="curve" smooth="yes"/>
      <point x="77" y="109" type="line" smooth="yes"/>
      <point x="77" y="103"/>
      <point x="82" y="75"/>
    </contour>
    <contour>
      <point x="77" y="109" type="line"/>
      <point x="77" y="11" type="line" smooth="yes"/>
      <point x="77" y="5"/>
      <point x="82" y="0"/>
      <point x="88" y="0" type="curve" smooth="yes"/>
      <point x="537" y="0" type="line"/>
      <point x="537" y="35"/>
      <point x="537" y="64"/>
      <point x="537" y="98" type="curve" smooth="yes"/>
      <point x="537" y="104"/>
      <point x="532" y="109"/>
      <point x="526" y="109" type="curve" smooth="yes"/>
    </contour>
    <contour>
      <point x="426" y="550" type="move" name="caronslovak"/>
    </contour>
    <contour>
      <point x="138" y="711" type="move" name="top"/>
    </contour>
    <contour>
      <point x="403" y="400" type="move" name="dot"/>
    </contour>
    <contour>
      <point x="307" y="-1" type="move" name="bottom"/>
    </contour>
  </outline>
</glyph>
<glyph name="M" format="1">
  <advance width="600"/>
  <unicode hex="004D"/>
  <outline>
    <contour>
      <point x="174" y="0" type="curve"/>
      <point x="174" y="54"/>
      <point x="174" y="109"/>
      <point x="174" y="163" type="curve" smooth="yes"/>
      <point x="174" y="248"/>
      <point x="148" y="557"/>
      <point x="148" y="690" type="curve" smooth="yes"/>
      <point x="148" y="693"/>
      <point x="147" y="695"/>
      <point x="145" y="697" type="curve" smooth="yes"/>
      <point x="143" y="699"/>
      <point x="140" y="700"/>
      <point x="137" y="700" type="curve" smooth="yes"/>
      <point x="111" y="700"/>
      <point x="77" y="700"/>
      <point x="58" y="700" type="curve"/>
      <point x="58" y="667"/>
      <point x="58" y="633"/>
      <point x="58" y="600" type="curve" smooth="yes"/>
      <point x="58" y="11" type="line" smooth="yes"/>
      <point x="58" y="8"/>
      <point x="59" y="5"/>
      <point x="61" y="3" type="curve" smooth="yes"/>
      <point x="63" y="1"/>
      <point x="66" y="0"/>
      <point x="69" y="0" type="curve" smooth="yes"/>
      <point x="104" y="0"/>
      <point x="139" y="0"/>
    </contour>
    <contour>
      <point x="542" y="0" type="curve"/>
      <point x="542" y="33"/>
      <point x="542" y="67"/>
      <point x="542" y="101" type="curve" smooth="yes"/>
      <point x="542" y="689" type="line" smooth="yes"/>
      <point x="542" y="692"/>
      <point x="541" y="695"/>
      <point x="539" y="697" type="curve" smooth="yes"/>
      <point x="537" y="699"/>
      <point x="534" y="700"/>
      <point x="531" y="700" type="curve" smooth="yes"/>
      <point x="452" y="700" type="line"/>
      <point x="452" y="697"/>
      <point x="452" y="694"/>
      <point x="452" y="690" type="curve" smooth="yes"/>
      <point x="452" y="580"/>
      <point x="426" y="246"/>
      <point x="426" y="163" type="curve" smooth="yes"/>
      <point x="426" y="112"/>
      <point x="426" y="62"/>
      <point x="426" y="11" type="curve" smooth="yes"/>
      <point x="426" y="8"/>
      <point x="427" y="5"/>
      <point x="429" y="3" type="curve" smooth="yes"/>
      <point x="431" y="1"/>
      <point x="434" y="0"/>
      <point x="437" y="0" type="curve"/>
      <point x="472" y="0"/>
      <point x="507" y="0"/>
    </contour>
    <contour>
      <point x="83" y="700" type="line"/>
      <point x="150" y="523"/>
      <point x="218" y="345"/>
      <point x="284" y="171" type="curve"/>
      <point x="287" y="165"/>
      <point x="292" y="163"/>
      <point x="296" y="163" type="curve"/>
      <point x="310" y="163"/>
      <point x="318" y="238"/>
      <point x="318" y="300" type="curve"/>
      <point x="270" y="431"/>
      <point x="225" y="559"/>
      <point x="177" y="690" type="curve"/>
      <point x="175" y="696"/>
      <point x="170" y="700"/>
      <point x="163" y="700" type="curve"/>
    </contour>
    <contour>
      <point x="456" y="700" type="curve" smooth="yes"/>
      <point x="447" y="700"/>
      <point x="438" y="700"/>
      <point x="429" y="700" type="curve"/>
      <point x="380" y="566"/>
      <point x="331" y="431"/>
      <point x="282" y="298" type="curve"/>
      <point x="268" y="257"/>
      <point x="281" y="163"/>
      <point x="296" y="163" type="curve"/>
      <point x="307" y="163" type="line"/>
      <point x="372" y="326"/>
      <point x="437" y="489"/>
      <point x="503" y="652" type="curve"/>
      <point x="513" y="678"/>
      <point x="495" y="700"/>
    </contour>
  </outline>
</glyph>
<glyph name="N" format="1">
  <advance width="600"/>
  <unicode hex="004E"/>
  <outline>
    <contour>
      <point x="183" y="0" type="curve"/>
      <point x="183" y="344" type="line"/>
      <point x="183" y="370"/>
      <point x="158" y="693"/>
      <point x="154" y="697" type="curve" smooth="yes"/>
      <point x="152" y="699"/>
      <point x="149" y="700"/>
      <point x="146" y="700" type="curve"/>
      <point x="121" y="700"/>
      <point x="75" y="700"/>
      <point x="68" y="700" type="curve"/>
      <point x="68" y="653"/>
      <point x="68" y="607"/>
      <point x="68" y="560" type="curve" smooth="yes"/>
      <point x="68" y="11" type="line"/>
      <point x="68" y="5"/>
      <point x="73" y="0"/>
      <point x="79" y="0" type="curve"/>
      <point x="113" y="0"/>
      <point x="149" y="0"/>
    </contour>
    <contour>
      <point x="532" y="0" type="line"/>
      <point x="532" y="689" type="line"/>
      <point x="532" y="695"/>
      <point x="527" y="700"/>
      <point x="521" y="700" type="curve"/>
      <point x="417" y="700" type="line"/>
      <point x="417" y="328" type="line"/>
      <point x="417" y="308"/>
      <point x="444" y="5"/>
      <point x="446" y="3" type="curve" smooth="yes"/>
      <point x="448" y="1"/>
      <point x="451" y="0"/>
      <point x="454" y="0" type="curve"/>
    </contour>
    <contour>
      <point x="146" y="700" type="line"/>
      <point x="85" y="697"/>
      <point x="90" y="685"/>
      <point x="96" y="672" type="curve" smooth="yes"/>
      <point x="202" y="451"/>
      <point x="308" y="229"/>
      <point x="415" y="8" type="curve"/>
      <point x="418" y="1"/>
      <point x="422" y="0"/>
      <point x="427" y="0" type="curve" smooth="yes"/>
      <point x="438" y="0"/>
      <point x="455" y="0"/>
      <point x="465" y="0" type="curve"/>
      <point x="474" y="4"/>
      <point x="472" y="77"/>
      <point x="469" y="118" type="curve"/>
      <point x="378" y="309"/>
      <point x="287" y="503"/>
      <point x="199" y="690" type="curve"/>
      <point x="195" y="699"/>
      <point x="192" y="700"/>
      <point x="181" y="700" type="curve"/>
    </contour>
    <contour>
      <point x="300" y="710" type="move" name="top"/>
    </contour>
    <contour>
      <point x="300" y="-1" type="move" name="bottom"/>
    </contour>
  </outline>
</glyph>
<glyph name="O" format="1">
  <advance width="600"/>
  <unicode hex="004F"/>
  <outline>
    <contour>
      <point x="297" y="720" type="curve" smooth="yes"/>
      <point x="161" y="720"/>
      <point x="59" y="631"/>
      <point x="59" y="464" type="curve" smooth="yes"/>
      <point x="59" y="227" type="line" smooth="yes"/>
      <point x="59" y="66"/>
      <point x="149" y="-20"/>
      <point x="303" y="-20" type="curve" smooth="yes"/>
      <point x="318" y="-20"/>
      <point x="330" y="-3"/>
      <point x="300" y="89" type="curve"/>
      <point x="201" y="89"/>
      <point x="175" y="148"/>
      <point x="175" y="229" type="curve" smooth="yes"/>
      <point x="175" y="462" type="line" smooth="yes"/>
      <point x="175" y="559"/>
      <point x="219" y="611"/>
      <point x="299" y="611" type="curve" smooth="yes"/>
      <point x="351" y="611"/>
      <point x="379" y="611"/>
      <point x="399" y="611" type="curve"/>
      <point x="399" y="667"/>
      <point x="386" y="720"/>
    </contour>
    <contour>
      <point x="303" y="-20" type="curve" smooth="yes"/>
      <point x="438" y="-20"/>
      <point x="540" y="70"/>
      <point x="540" y="236" type="curve" smooth="yes"/>
      <point x="540" y="473" type="line" smooth="yes"/>
      <point x="540" y="635"/>
      <point x="451" y="720"/>
      <point x="297" y="720" type="curve" smooth="yes"/>
      <point x="281" y="720"/>
      <point x="269" y="703"/>
      <point x="299" y="611" type="curve"/>
      <point x="398" y="611"/>
      <point x="425" y="552"/>
      <point x="425" y="471" type="curve" smooth="yes"/>
      <point x="425" y="238" type="line" smooth="yes"/>
      <point x="425" y="141"/>
      <point x="380" y="89"/>
      <point x="300" y="89" type="curve" smooth="yes"/>
      <point x="249" y="89"/>
      <point x="221" y="89"/>
      <point x="200" y="89" type="curve"/>
      <point x="200" y="33"/>
      <point x="213" y="-20"/>
    </contour>
    <contour>
      <point x="300" y="711" type="move" name="top"/>
    </contour>
    <contour>
      <point x="409" y="10" type="move" name="ogonek"/>
    </contour>
    <contour>
      <point x="300" y="-1" type="move" name="bottom"/>
    </contour>
  </outline>
</glyph>
<glyph name="P" format="1">
  <advance width="600"/>
  <unicode hex="0050"/>
  <outline>
    <contour>
      <point x="203" y="0" type="curve"/>
      <point x="203" y="33"/>
      <point x="203" y="66"/>
      <point x="203" y="100" type="curve" smooth="yes"/>
      <point x="203" y="649" type="line" smooth="yes"/>
      <point x="203" y="655"/>
      <point x="198" y="660"/>
      <point x="84" y="660" type="curve"/>
      <point x="84" y="11" type="line" smooth="yes"/>
      <point x="84" y="8"/>
      <point x="85" y="5"/>
      <point x="87" y="3" type="curve" smooth="yes"/>
      <point x="89" y="1"/>
      <point x="92" y="0"/>
      <point x="95" y="0" type="curve" smooth="yes"/>
      <point x="131" y="0"/>
      <point x="166" y="0"/>
    </contour>
    <contour>
      <point x="37" y="700" type="curve"/>
      <point x="37" y="665"/>
      <point x="37" y="636"/>
      <point x="37" y="602" type="curve"/>
      <point x="37" y="599"/>
      <point x="38" y="596"/>
      <point x="40" y="594" type="curve" smooth="yes"/>
      <point x="42" y="592"/>
      <point x="45" y="591"/>
      <point x="48" y="591" type="curve" smooth="yes"/>
      <point x="67" y="591"/>
      <point x="88" y="591"/>
      <point x="112" y="591" type="curve" smooth="yes"/>
      <point x="172" y="591"/>
      <point x="256" y="591"/>
      <point x="310" y="591" type="curve" smooth="yes"/>
      <point x="361" y="591"/>
      <point x="380" y="591"/>
      <point x="407" y="591" type="curve"/>
      <point x="407" y="655"/>
      <point x="374" y="700"/>
      <point x="307" y="700" type="curve" smooth="yes"/>
      <point x="234" y="700"/>
      <point x="118" y="700"/>
    </contour>
    <contour>
      <point x="542" y="428" type="curve" smooth="yes"/>
      <point x="542" y="495" type="line" smooth="yes"/>
      <point x="542" y="635"/>
      <point x="460" y="700"/>
      <point x="307" y="700" type="curve"/>
      <point x="303" y="700"/>
      <point x="287" y="685"/>
      <point x="310" y="591" type="curve"/>
      <point x="388" y="591"/>
      <point x="419" y="565"/>
      <point x="419" y="496" type="curve" smooth="yes"/>
      <point x="419" y="429" type="line" smooth="yes"/>
      <point x="419" y="372"/>
      <point x="384" y="336"/>
      <point x="322" y="336" type="curve" smooth="yes"/>
      <point x="286" y="336"/>
      <point x="213" y="336"/>
      <point x="167" y="336" type="curve"/>
      <point x="167" y="300"/>
      <point x="167" y="279"/>
      <point x="167" y="238" type="curve" smooth="yes"/>
      <point x="167" y="232"/>
      <point x="172" y="227"/>
      <point x="178" y="227" type="curve" smooth="yes"/>
      <point x="329" y="227" type="line" smooth="yes"/>
      <point x="461" y="227"/>
      <point x="542" y="302"/>
    </contour>
  </outline>
</glyph>
<glyph name="Q" format="1">
  <advance width="600"/>
  <unicode hex="0051"/>
  <outline>
    <contour>
      <point x="297" y="720" type="curve" smooth="yes"/>
      <point x="161" y="720"/>
      <point x="59" y="630"/>
      <point x="59" y="464" type="curve" smooth="yes"/>
      <point x="59" y="227" type="line" smooth="yes"/>
      <point x="59" y="66"/>
      <point x="149" y="-20"/>
      <point x="303" y="-20" type="curve" smooth="yes"/>
      <point x="318" y="-20"/>
      <point x="330" y="-3"/>
      <point x="300" y="89" type="curve"/>
      <point x="201" y="89"/>
      <point x="175" y="148"/>
      <point x="175" y="229" type="curve" smooth="yes"/>
      <point x="175" y="462" type="line" smooth="yes"/>
      <point x="175" y="559"/>
      <point x="219" y="611"/>
      <point x="299" y="611" type="curve" smooth="yes"/>
      <point x="351" y="611"/>
      <point x="378" y="611"/>
      <point x="399" y="611" type="curve"/>
      <point x="399" y="667"/>
      <point x="386" y="720"/>
    </contour>
    <contour>
      <point x="303" y="-20" type="curve" smooth="yes"/>
      <point x="438" y="-20"/>
      <point x="540" y="70"/>
      <point x="540" y="236" type="curve" smooth="yes"/>
      <point x="540" y="473" type="line" smooth="yes"/>
      <point x="540" y="635"/>
      <point x="451" y="720"/>
      <point x="297" y="720" type="curve" smooth="yes"/>
      <point x="281" y="720"/>
      <point x="269" y="703"/>
      <point x="299" y="611" type="curve"/>
      <point x="398" y="611"/>
      <point x="425" y="552"/>
      <point x="425" y="471" type="curve" smooth="yes"/>
      <point x="425" y="238" type="line" smooth="yes"/>
      <point x="425" y="141"/>
      <point x="380" y="89"/>
      <point x="300" y="89" type="curve" smooth="yes"/>
      <point x="249" y="89"/>
      <point x="221" y="89"/>
      <point x="200" y="89" type="curve"/>
      <point x="200" y="33"/>
      <point x="213" y="-20"/>
    </contour>
    <contour>
      <point x="427" y="97" type="line"/>
      <point x="332" y="57"/>
      <point x="320" y="50"/>
      <point x="331" y="32" type="curve" smooth="yes"/>
      <point x="408" y="-86" type="line" smooth="yes"/>
      <point x="440" y="-136"/>
      <point x="466" y="-157"/>
      <point x="529" y="-157" type="curve" smooth="yes"/>
      <point x="558" y="-157" type="line" smooth="yes"/>
      <point x="565" y="-157"/>
      <point x="569" y="-153"/>
      <point x="569" y="-146" type="curve" smooth="yes"/>
      <point x="569" y="-109"/>
      <point x="569" y="-72"/>
      <point x="569" y="-34" type="curve"/>
      <point x="563" y="-34" type="line"/>
      <point x="557" y="-34"/>
      <point x="553" y="-34"/>
      <point x="546" y="-34" type="curve" smooth="yes"/>
      <point x="518" y="-34"/>
      <point x="507" y="-30"/>
      <point x="492" y="-6" type="curve" smooth="yes"/>
    </contour>
  </outline>
</glyph>
<glyph name="T" format="1">
  <advance width="600"/>
  <unicode hex="0054"/>
  <outline>
    <contour>
      <point x="53" y="700" type="line"/>
      <point x="53" y="667"/>
      <point x="53" y="635"/>
      <point x="53" y="602" type="curve" smooth="yes"/>
      <point x="53" y="599"/>
      <point x="54" y="596"/>
      <point x="56" y="594" type="curve" smooth="yes"/>
      <point x="58" y="592"/>
      <point x="61" y="591"/>
      <point x="64" y="591" type="curve" smooth="yes"/>
      <point x="547" y="591" type="line"/>
      <point x="547" y="623"/>
      <point x="547" y="656"/>
      <point x="547" y="689" type="curve" smooth="yes"/>
      <point x="547" y="695"/>
      <point x="542" y="700"/>
      <point x="536" y="700" type="curve" smooth="yes"/>
    </contour>
    <contour>
      <point x="361" y="0" type="curve"/>
      <point x="361" y="33"/>
      <point x="361" y="66"/>
      <point x="361" y="100" type="curve" smooth="yes"/>
      <point x="361" y="649" type="line" smooth="yes"/>
      <point x="361" y="655"/>
      <point x="356" y="660"/>
      <point x="239" y="660" type="curve"/>
      <point x="239" y="11" type="line" smooth="yes"/>
      <point x="239" y="8"/>
      <point x="240" y="5"/>
      <point x="242" y="3" type="curve" smooth="yes"/>
      <point x="244" y="1"/>
      <point x="247" y="0"/>
      <point x="250" y="0" type="curve" smooth="yes"/>
      <point x="287" y="0"/>
      <point x="324" y="0"/>
    </contour>
    <contour>
      <point x="300" y="711" type="move" name="top"/>
    </contour>
    <contour>
      <point x="300" y="-1" type="move" name="bottom"/>
    </contour>
  </outline>
</glyph>
<glyph name="U" format="1">
  <advance width="600"/>
  <unicode hex="0055"/>
  <outline>
    <contour>
      <point x="66" y="700" type="curve"/>
      <point x="66" y="667"/>
      <point x="66" y="633"/>
      <point x="66" y="600" type="curve" smooth="yes"/>
      <point x="66" y="151" type="line"/>
      <point x="66" y="116"/>
      <point x="113" y="107"/>
      <point x="188" y="107" type="curve"/>
      <point x="188" y="135"/>
      <point x="188" y="148"/>
      <point x="188" y="184" type="curve" smooth="yes"/>
      <point x="188" y="689" type="line"/>
      <point x="188" y="695"/>
      <point x="183" y="700"/>
      <point x="177" y="700" type="curve"/>
      <point x="140" y="700"/>
      <point x="103" y="700"/>
    </contour>
    <contour>
      <point x="217" y="-13" type="curve" smooth="yes"/>
      <point x="281" y="-13"/>
      <point x="354" y="21"/>
      <point x="399" y="72" type="curve" smooth="yes"/>
      <point x="443" y="118"/>
      <point x="462" y="167"/>
      <point x="446" y="225" type="curve"/>
      <point x="369" y="137"/>
      <point x="315" y="108"/>
      <point x="253" y="108" type="curve" smooth="yes"/>
      <point x="213" y="108"/>
      <point x="188" y="135"/>
      <point x="188" y="184" type="curve"/>
      <point x="96" y="183"/>
      <point x="66" y="166"/>
      <point x="66" y="151" type="curve" smooth="yes"/>
      <point x="66" y="62"/>
      <point x="119" y="-13"/>
    </contour>
    <contour>
      <point x="532" y="0" type="curve"/>
      <point x="532" y="32"/>
      <point x="532" y="69"/>
      <point x="532" y="107" type="curve" smooth="yes"/>
      <point x="532" y="689" type="line" smooth="yes"/>
      <point x="532" y="695"/>
      <point x="527" y="700"/>
      <point x="521" y="700" type="curve" smooth="yes"/>
      <point x="484" y="700"/>
      <point x="448" y="700"/>
      <point x="410" y="700" type="curve"/>
      <point x="410" y="11" type="line" smooth="yes"/>
      <point x="410" y="8"/>
      <point x="411" y="5"/>
      <point x="413" y="3" type="curve" smooth="yes"/>
      <point x="415" y="1"/>
      <point x="418" y="0"/>
      <point x="421" y="0" type="curve" smooth="yes"/>
      <point x="459" y="0"/>
      <point x="495" y="0"/>
    </contour>
    <contour>
      <point x="300" y="711" type="move" name="top"/>
    </contour>
    <contour>
      <point x="533" y="0" type="move" name="ogonek"/>
    </contour>
    <contour>
      <point x="299" y="694" type="move" name="ring"/>
    </contour>
    <contour>
      <point x="282" y="-1" type="move" name="bottom"/>
    </contour>
  </outline>
</glyph>
<glyph name="W" format="1">
  <advance width="600"/>
  <unicode hex="0057"/>
  <outline>
    <contour>
      <point x="27" y="700" type="curve"/>
      <point x="54" y="470"/>
      <point x="82" y="240"/>
      <point x="109" y="10" type="curve"/>
      <point x="110" y="1"/>
      <point x="119" y="-3"/>
      <point x="127" y="-3" type="curve"/>
      <point x="148" y="-3" type="line" smooth="yes"/>
      <point x="168" y="-3"/>
      <point x="187" y="14"/>
      <point x="193" y="28" type="curve"/>
      <point x="175" y="247"/>
      <point x="158" y="466"/>
      <point x="140" y="685" type="curve"/>
      <point x="139" y="693"/>
      <point x="138" y="696"/>
      <point x="136" y="697" type="curve" smooth="yes"/>
      <point x="134" y="699"/>
      <point x="132" y="700"/>
      <point x="128" y="700" type="curve"/>
      <point x="94" y="700"/>
      <point x="61" y="700"/>
    </contour>
    <contour>
      <point x="463" y="700" type="curve"/>
      <point x="446" y="491"/>
      <point x="429" y="281"/>
      <point x="411" y="72" type="curve"/>
      <point x="407" y="26"/>
      <point x="400" y="11"/>
      <point x="391" y="-3" type="curve"/>
      <point x="488" y="-3" type="line"/>
      <point x="516" y="227"/>
      <point x="544" y="457"/>
      <point x="571" y="687" type="curve"/>
      <point x="572" y="693"/>
      <point x="572" y="695"/>
      <point x="570" y="697" type="curve" smooth="yes"/>
      <point x="568" y="699"/>
      <point x="567" y="700"/>
      <point x="563" y="700" type="curve"/>
      <point x="529" y="700"/>
      <point x="497" y="700"/>
    </contour>
    <contour>
      <point x="313" y="581" type="curve"/>
      <point x="260" y="581" type="line"/>
      <point x="233" y="411"/>
      <point x="207" y="242"/>
      <point x="180" y="72" type="curve"/>
      <point x="168" y="22"/>
      <point x="152" y="9"/>
      <point x="127" y="-3" type="curve"/>
      <point x="237" y="-3" type="line"/>
      <point x="266" y="185"/>
      <point x="296" y="373"/>
      <point x="325" y="562" type="curve"/>
      <point x="327" y="574"/>
      <point x="324" y="581"/>
    </contour>
    <contour>
      <point x="334" y="581" type="curve"/>
      <point x="273" y="581" type="line"/>
      <point x="303" y="391"/>
      <point x="331" y="200"/>
      <point x="361" y="10" type="curve"/>
      <point x="363" y="1"/>
      <point x="371" y="-3"/>
      <point x="379" y="-3" type="curve"/>
      <point x="408" y="-3" type="line"/>
      <point x="419" y="-3"/>
      <point x="429" y="7"/>
      <point x="431" y="21" type="curve"/>
      <point x="402" y="204"/>
      <point x="374" y="388"/>
      <point x="345" y="570" type="curve"/>
      <point x="343" y="578"/>
      <point x="340" y="581"/>
    </contour>
    <contour>
      <point x="299" y="711" type="move" name="top"/>
    </contour>
  </outline>
</glyph>
<glyph name="X" format="1">
  <advance width="600"/>
  <unicode hex="0058"/>
  <outline>
    <contour>
      <point x="458" y="0" type="curve" smooth="yes"/>
      <point x="496" y="0"/>
      <point x="539" y="0"/>
      <point x="578" y="0" type="curve"/>
      <point x="505" y="126"/>
      <point x="433" y="253"/>
      <point x="362" y="376" type="curve" smooth="yes"/>
      <point x="350" y="397"/>
      <point x="329" y="406"/>
      <point x="319" y="425" type="curve" smooth="yes"/>
      <point x="268" y="511"/>
      <point x="217" y="601"/>
      <point x="166" y="689" type="curve" smooth="yes"/>
      <point x="162" y="696"/>
      <point x="155" y="700"/>
      <point x="146" y="700" type="curve" smooth="yes"/>
      <point x="25" y="700" type="line"/>
      <point x="97" y="576"/>
      <point x="169" y="451"/>
      <point x="239" y="329" type="curve" smooth="yes"/>
      <point x="249" y="310"/>
      <point x="274" y="298"/>
      <point x="284" y="278" type="curve" smooth="yes"/>
      <point x="335" y="191"/>
      <point x="385" y="101"/>
      <point x="437" y="11" type="curve" smooth="yes"/>
      <point x="442" y="3"/>
      <point x="449" y="0"/>
    </contour>
    <contour>
      <point x="558" y="700" type="curve"/>
      <point x="447" y="700" type="line"/>
      <point x="387" y="593"/>
      <point x="327" y="486"/>
      <point x="267" y="377" type="curve"/>
      <point x="257" y="360"/>
      <point x="267" y="346"/>
      <point x="348" y="314" type="curve"/>
      <point x="421" y="436"/>
      <point x="494" y="559"/>
      <point x="567" y="681" type="curve"/>
      <point x="570" y="687"/>
      <point x="571" y="693"/>
      <point x="567" y="696" type="curve" smooth="yes"/>
      <point x="565" y="699"/>
      <point x="562" y="700"/>
    </contour>
    <contour>
      <point x="39" y="0" type="curve" smooth="yes"/>
      <point x="152" y="0" type="line"/>
      <point x="211" y="108"/>
      <point x="270" y="215"/>
      <point x="331" y="323" type="curve"/>
      <point x="340" y="339"/>
      <point x="327" y="354"/>
      <point x="249" y="386" type="curve"/>
      <point x="176" y="264"/>
      <point x="103" y="141"/>
      <point x="30" y="19" type="curve"/>
      <point x="26" y="13"/>
      <point x="26" y="7"/>
      <point x="30" y="3" type="curve" smooth="yes"/>
      <point x="32" y="1"/>
      <point x="35" y="0"/>
    </contour>
  </outline>
</glyph>
<glyph name="Y" format="1">
  <advance width="600"/>
  <unicode hex="0059"/>
  <outline>
    <contour>
      <point x="24" y="700" type="line"/>
      <point x="97" y="551"/>
      <point x="172" y="403"/>
      <point x="245" y="253" type="curve"/>
      <point x="248" y="246"/>
      <point x="255" y="243"/>
      <point x="264" y="243" type="curve"/>
      <point x="310" y="243"/>
      <point x="333" y="301"/>
      <point x="322" y="331" type="curve"/>
      <point x="268" y="449"/>
      <point x="213" y="567"/>
      <point x="160" y="685" type="curve"/>
      <point x="157" y="695"/>
      <point x="152" y="700"/>
      <point x="143" y="700" type="curve" smooth="yes"/>
    </contour>
    <contour>
      <point x="447" y="700" type="line"/>
      <point x="393" y="576"/>
      <point x="339" y="454"/>
      <point x="285" y="330" type="curve"/>
      <point x="265" y="283"/>
      <point x="269" y="260"/>
      <point x="264" y="243" type="curve"/>
      <point x="350" y="243" type="line"/>
      <point x="423" y="389"/>
      <point x="497" y="536"/>
      <point x="570" y="683" type="curve"/>
      <point x="573" y="692"/>
      <point x="568" y="700"/>
      <point x="559" y="700" type="curve"/>
    </contour>
    <contour>
      <point x="361" y="0" type="curve"/>
      <point x="361" y="33"/>
      <point x="361" y="66"/>
      <point x="361" y="100" type="curve" smooth="yes"/>
      <point x="361" y="296" type="line" smooth="yes"/>
      <point x="361" y="302"/>
      <point x="356" y="307"/>
      <point x="239" y="307" type="curve"/>
      <point x="239" y="11" type="line" smooth="yes"/>
      <point x="239" y="8"/>
      <point x="240" y="5"/>
      <point x="242" y="3" type="curve" smooth="yes"/>
      <point x="244" y="1"/>
      <point x="247" y="0"/>
      <point x="250" y="0" type="curve" smooth="yes"/>
      <point x="287" y="0"/>
      <point x="324" y="0"/>
    </contour>
    <contour>
      <point x="300" y="711" type="move" name="top"/>
    </contour>
  </outline>
</glyph>
<glyph name="Z" format="1">
  <advance width="600"/>
  <unicode hex="005A"/>
  <outline>
    <contour>
      <point x="97" y="700" type="line"/>
      <point x="97" y="665"/>
      <point x="97" y="636"/>
      <point x="97" y="602" type="curve" smooth="yes"/>
      <point x="97" y="599"/>
      <point x="98" y="596"/>
      <point x="100" y="594" type="curve" smooth="yes"/>
      <point x="102" y="592"/>
      <point x="105" y="591"/>
      <point x="108" y="591" type="curve" smooth="yes"/>
      <point x="405" y="591" type="line" smooth="yes"/>
      <point x="441" y="591"/>
      <point x="493" y="593"/>
      <point x="532" y="599" type="curve" smooth="yes"/>
      <point x="538" y="600"/>
      <point x="543" y="600"/>
      <point x="547" y="601" type="curve"/>
      <point x="547" y="689" type="line" smooth="yes"/>
      <point x="547" y="695"/>
      <point x="542" y="700"/>
      <point x="536" y="700" type="curve" smooth="yes"/>
    </contour>
    <contour>
      <point x="429" y="632" type="curve"/>
      <point x="304" y="456"/>
      <point x="178" y="275"/>
      <point x="53" y="99" type="curve"/>
      <point x="158" y="62"/>
      <point x="169" y="65"/>
      <point x="176" y="75" type="curve" smooth="yes"/>
      <point x="371" y="348"/>
      <point x="547" y="599"/>
      <point x="547" y="601" type="curve"/>
      <point x="449" y="642"/>
      <point x="437" y="643"/>
    </contour>
    <contour>
      <point x="550" y="0" type="line"/>
      <point x="550" y="35"/>
      <point x="550" y="64"/>
      <point x="550" y="98" type="curve" smooth="yes"/>
      <point x="550" y="101"/>
      <point x="549" y="104"/>
      <point x="547" y="106" type="curve" smooth="yes"/>
      <point x="545" y="108"/>
      <point x="542" y="109"/>
      <point x="539" y="109" type="curve" smooth="yes"/>
      <point x="198" y="109" type="line" smooth="yes"/>
      <point x="155" y="109"/>
      <point x="97" y="109"/>
      <point x="53" y="99" type="curve"/>
      <point x="53" y="11" type="line" smooth="yes"/>
      <point x="53" y="5"/>
      <point x="58" y="0"/>
      <point x="64" y="0" type="curve" smooth="yes"/>
    </contour>
    <contour>
      <point x="176" y="517" type="curve"/>
      <point x="176" y="572"/>
      <point x="176" y="627"/>
      <point x="176" y="682" type="curve"/>
      <point x="176" y="695"/>
      <point x="171" y="700"/>
      <point x="158" y="700" type="curve" smooth="yes"/>
      <point x="60" y="700" type="line"/>
      <point x="60" y="642"/>
      <point x="60" y="585"/>
      <point x="60" y="528" type="curve"/>
      <point x="60" y="522"/>
      <point x="65" y="517"/>
      <point x="71" y="517" type="curve" smooth="yes"/>
      <point x="106" y="517"/>
      <point x="141" y="517"/>
    </contour>
    <contour>
      <point x="300" y="711" type="move" name="top"/>
    </contour>
  </outline>
</glyph>
<glyph name="bracketleft" format="1">
  <advance width="600"/>
  <unicode hex="005B"/>
  <outline>
    <contour>
      <point x="205" y="646" type="curve" smooth="yes"/>
      <point x="205" y="-31" type="line" smooth="yes"/>
      <point x="205" y="-41"/>
      <point x="232" y="-42"/>
      <point x="327" y="-42" type="curve"/>
      <point x="327" y="742" type="line" smooth="yes"/>
      <point x="327" y="748"/>
      <point x="319" y="753"/>
      <point x="292" y="753" type="curve" smooth="yes"/>
      <point x="257" y="753"/>
      <point x="240" y="753"/>
      <point x="205" y="753" type="curve"/>
      <point x="205" y="717"/>
      <point x="205" y="682"/>
    </contour>
    <contour>
      <point x="520" y="643" type="line"/>
      <point x="520" y="678"/>
      <point x="520" y="708"/>
      <point x="520" y="742" type="curve" smooth="yes"/>
      <point x="520" y="745"/>
      <point x="519" y="748"/>
      <point x="517" y="750" type="curve" smooth="yes"/>
      <point x="515" y="752"/>
      <point x="512" y="753"/>
      <point x="509" y="753" type="curve" smooth="yes"/>
      <point x="292" y="753" type="line"/>
      <point x="292" y="648"/>
      <point x="298" y="643"/>
      <point x="303" y="643" type="curve"/>
    </contour>
    <contour>
      <point x="520" y="-141" type="line"/>
      <point x="520" y="-106"/>
      <point x="520" y="-76"/>
      <point x="520" y="-41" type="curve" smooth="yes"/>
      <point x="520" y="-35"/>
      <point x="515" y="-30"/>
      <point x="509" y="-30" type="curve" smooth="yes"/>
      <point x="205" y="-30" type="line"/>
      <point x="205" y="-130" type="line" smooth="yes"/>
      <point x="205" y="-136"/>
      <point x="210" y="-141"/>
      <point x="216" y="-141" type="curve" smooth="yes"/>
    </contour>
  </outline>
</glyph>
<glyph name="backslash" format="1">
  <advance width="600"/>
  <unicode hex="005C"/>
  <outline>
    <contour>
      <point x="72" y="750" type="curve"/>
      <point x="185" y="461"/>
      <point x="298" y="170"/>
      <point x="411" y="-119" type="curve" smooth="yes"/>
      <point x="414" y="-127"/>
      <point x="420" y="-130"/>
      <point x="426" y="-130" type="curve" smooth="yes"/>
      <point x="465" y="-130"/>
      <point x="497" y="-130"/>
      <point x="536" y="-130" type="curve"/>
      <point x="522" y="-94"/>
      <point x="507" y="-57"/>
      <point x="493" y="-21" type="curve"/>
      <point x="394" y="233"/>
      <point x="295" y="489"/>
      <point x="196" y="743" type="curve"/>
      <point x="194" y="748"/>
      <point x="190" y="750"/>
      <point x="184" y="750" type="curve" smooth="yes"/>
      <point x="145" y="750"/>
      <point x="111" y="750"/>
    </contour>
  </outline>
</glyph>
<glyph name="bracketright" format="1">
  <advance width="600"/>
  <unicode hex="005D"/>
  <outline>
    <contour>
      <point x="395" y="-33" type="curve" smooth="yes"/>
      <point x="395" y="644" type="line" smooth="yes"/>
      <point x="395" y="654"/>
      <point x="368" y="655"/>
      <point x="273" y="655" type="curve"/>
      <point x="273" y="-129" type="line" smooth="yes"/>
      <point x="273" y="-135"/>
      <point x="281" y="-140"/>
      <point x="308" y="-140" type="curve" smooth="yes"/>
      <point x="343" y="-140"/>
      <point x="360" y="-140"/>
      <point x="395" y="-140" type="curve"/>
      <point x="395" y="-104"/>
      <point x="395" y="-69"/>
    </contour>
    <contour>
      <point x="80" y="-30" type="line"/>
      <point x="80" y="-65"/>
      <point x="80" y="-95"/>
      <point x="80" y="-129" type="curve" smooth="yes"/>
      <point x="80" y="-132"/>
      <point x="81" y="-135"/>
      <point x="83" y="-137" type="curve" smooth="yes"/>
      <point x="85" y="-139"/>
      <point x="88" y="-140"/>
      <point x="91" y="-140" type="curve" smooth="yes"/>
      <point x="308" y="-140" type="line"/>
      <point x="308" y="-35"/>
      <point x="302" y="-30"/>
      <point x="297" y="-30" type="curve"/>
    </contour>
    <contour>
      <point x="80" y="754" type="line"/>
      <point x="80" y="719"/>
      <point x="80" y="689"/>
      <point x="80" y="654" type="curve" smooth="yes"/>
      <point x="80" y="648"/>
      <point x="85" y="643"/>
      <point x="91" y="643" type="curve" smooth="yes"/>
      <point x="395" y="643" type="line"/>
      <point x="395" y="743" type="line" smooth="yes"/>
      <point x="395" y="749"/>
      <point x="390" y="754"/>
      <point x="384" y="754" type="curve" smooth="yes"/>
    </contour>
  </outline>
</glyph>
<glyph name="grave" format="1">
  <advance width="600"/>
  <unicode hex="0060"/>
  <outline>
    <contour>
      <point x="406" y="408" type="curve"/>
      <point x="379" y="516"/>
      <point x="357" y="606"/>
      <point x="331" y="714" type="curve"/>
      <point x="262" y="714"/>
      <point x="228" y="714"/>
      <point x="169" y="714" type="curve" smooth="yes"/>
      <point x="161" y="714"/>
      <point x="156" y="708"/>
      <point x="160" y="700" type="curve" smooth="yes"/>
      <point x="201" y="612"/>
      <point x="246" y="518"/>
      <point x="294" y="417" type="curve" smooth="yes"/>
      <point x="297" y="411"/>
      <point x="302" y="408"/>
      <point x="310" y="408" type="curve" smooth="yes"/>
      <point x="356" y="408"/>
      <point x="377" y="408"/>
    </contour>
  </outline>
</glyph>
<glyph name="a" format="1">
  <advance width="600"/>
  <unicode hex="0061"/>
  <outline>
    <contour>
      <point x="263" y="545" type="curve" smooth="yes"/>
      <point x="196" y="545"/>
      <point x="107" y="530"/>
      <point x="93" y="517" type="curve" smooth="yes"/>
      <point x="91" y="515"/>
      <point x="90" y="512"/>
      <point x="90" y="509" type="curve" smooth="yes"/>
      <point x="90" y="477"/>
      <point x="90" y="445"/>
      <point x="90" y="414" type="curve"/>
      <point x="108" y="414" type="line"/>
      <point x="158" y="428"/>
      <point x="209" y="436"/>
      <point x="270" y="436" type="curve" smooth="yes"/>
      <point x="356" y="436"/>
      <point x="385" y="414"/>
      <point x="385" y="337" type="curve"/>
      <point x="490" y="309"/>
      <point x="504" y="312"/>
      <point x="504" y="328" type="curve"/>
      <point x="504" y="484"/>
      <point x="435" y="545"/>
    </contour>
    <contour>
      <point x="377" y="445" type="curve"/>
      <point x="383" y="416"/>
      <point x="385" y="391"/>
      <point x="385" y="350" type="curve" smooth="yes"/>
      <point x="385" y="267"/>
      <point x="385" y="201"/>
      <point x="385" y="112" type="curve" smooth="yes"/>
      <point x="385" y="68"/>
      <point x="447" y="25"/>
      <point x="514" y="31" type="curve"/>
      <point x="506" y="56"/>
      <point x="504" y="79"/>
      <point x="504" y="115" type="curve" smooth="yes"/>
      <point x="504" y="188"/>
      <point x="504" y="226"/>
      <point x="504" y="328" type="curve" smooth="yes"/>
      <point x="504" y="400"/>
      <point x="475" y="448"/>
    </contour>
    <contour>
      <point x="565" y="99" type="line"/>
      <point x="548" y="99" type="line"/>
      <point x="544" y="99"/>
      <point x="542" y="99"/>
      <point x="537" y="99" type="curve" smooth="yes"/>
      <point x="516" y="99"/>
      <point x="505" y="113"/>
      <point x="504" y="144" type="curve"/>
      <point x="395" y="145"/>
      <point x="385" y="129"/>
      <point x="385" y="112" type="curve" smooth="yes"/>
      <point x="385" y="42"/>
      <point x="439" y="-10"/>
      <point x="527" y="-10" type="curve" smooth="yes"/>
      <point x="554" y="-10" type="line" smooth="yes"/>
      <point x="561" y="-10"/>
      <point x="565" y="-6"/>
      <point x="565" y="1" type="curve"/>
    </contour>
    <contour>
      <point x="178" y="146" type="curve" smooth="yes"/>
      <point x="178" y="170" type="line" smooth="yes"/>
      <point x="178" y="207"/>
      <point x="179" y="232"/>
      <point x="189" y="257" type="curve"/>
      <point x="121" y="262"/>
      <point x="62" y="220"/>
      <point x="62" y="165" type="curve" smooth="yes"/>
      <point x="62" y="132" type="line" smooth="yes"/>
      <point x="62" y="45"/>
      <point x="117" y="-10"/>
      <point x="212" y="-10" type="curve" smooth="yes"/>
      <point x="293" y="-10"/>
      <point x="363" y="30"/>
      <point x="410" y="96" type="curve" smooth="yes"/>
      <point x="418" y="109"/>
      <point x="419" y="129"/>
      <point x="414" y="179" type="curve"/>
      <point x="358" y="116"/>
      <point x="309" y="95"/>
      <point x="237" y="95" type="curve" smooth="yes"/>
      <point x="231" y="95" type="line" smooth="yes"/>
      <point x="193" y="95"/>
      <point x="178" y="114"/>
    </contour>
    <contour>
      <point x="406" y="283" type="curve" smooth="yes"/>
      <point x="385" y="298"/>
      <point x="315" y="312"/>
      <point x="223" y="312" type="curve" smooth="yes"/>
      <point x="128" y="312"/>
      <point x="63" y="251"/>
      <point x="62" y="165" type="curve" smooth="yes"/>
      <point x="62" y="160"/>
      <point x="78" y="155"/>
      <point x="178" y="170" type="curve"/>
      <point x="178" y="200"/>
      <point x="194" y="227"/>
      <point x="241" y="227" type="curve" smooth="yes"/>
      <point x="308" y="227"/>
      <point x="383" y="225"/>
      <point x="427" y="220" type="curve"/>
      <point x="428" y="246"/>
      <point x="423" y="269"/>
    </contour>
    <contour>
      <point x="293" y="546" type="move" name="top"/>
    </contour>
    <contour>
      <point x="566" y="1" type="move" name="ogonek"/>
    </contour>
    <contour>
      <point x="286" y="-1" type="move" name="bottom"/>
    </contour>
  </outline>
</glyph>
<glyph name="h" format="1">
  <advance width="600"/>
  <unicode hex="0068"/>
  <outline>
    <contour>
      <point x="206" y="0" type="curve"/>
      <point x="206" y="739" type="line" smooth="yes"/>
      <point x="206" y="742"/>
      <point x="205" y="745"/>
      <point x="203" y="747" type="curve" smooth="yes"/>
      <point x="201" y="749"/>
      <point x="198" y="750"/>
      <point x="195" y="750" type="curve" smooth="yes"/>
      <point x="161" y="750"/>
      <point x="124" y="750"/>
      <point x="84" y="750" type="curve"/>
      <point x="84" y="726"/>
      <point x="84" y="691"/>
      <point x="84" y="651" type="curve" smooth="yes"/>
      <point x="84" y="11" type="line" smooth="yes"/>
      <point x="84" y="5"/>
      <point x="89" y="0"/>
      <point x="95" y="0" type="curve" smooth="yes"/>
      <point x="132" y="0"/>
      <point x="169" y="0"/>
    </contour>
    <contour>
      <point x="381" y="547" type="curve" smooth="yes"/>
      <point x="320" y="547"/>
      <point x="264" y="517"/>
      <point x="204" y="446" type="curve" smooth="yes"/>
      <point x="179" y="418"/>
      <point x="154" y="372"/>
      <point x="170" y="314" type="curve"/>
      <point x="244" y="397"/>
      <point x="291" y="425"/>
      <point x="343" y="425" type="curve" smooth="yes"/>
      <point x="377" y="425"/>
      <point x="396" y="405"/>
      <point x="396" y="362" type="curve"/>
      <point x="500" y="362"/>
      <point x="518" y="381"/>
      <point x="518" y="398" type="curve" smooth="yes"/>
      <point x="518" y="479"/>
      <point x="465" y="547"/>
    </contour>
    <contour>
      <point x="518" y="0" type="curve"/>
      <point x="518" y="31"/>
      <point x="518" y="64"/>
      <point x="518" y="98" type="curve" smooth="yes"/>
      <point x="518" y="398" type="line"/>
      <point x="518" y="439"/>
      <point x="447" y="460"/>
      <point x="392" y="431" type="curve"/>
      <point x="395" y="411"/>
      <point x="396" y="395"/>
      <point x="396" y="362" type="curve" smooth="yes"/>
      <point x="396" y="11" type="line" smooth="yes"/>
      <point x="396" y="5"/>
      <point x="401" y="0"/>
      <point x="407" y="0" type="curve" smooth="yes"/>
      <point x="444" y="0"/>
      <point x="481" y="0"/>
    </contour>
    <contour>
      <point x="141" y="730" type="move" name="top"/>
    </contour>
  </outline>
</glyph>
<glyph name="i" format="1">
  <advance width="600"/>
  <unicode hex="0069"/>
  <outline>
    <contour>
      <point x="83" y="535" type="curve"/>
      <point x="83" y="501"/>
      <point x="83" y="471"/>
      <point x="83" y="437" type="curve" smooth="yes"/>
      <point x="83" y="431"/>
      <point x="88" y="426"/>
      <point x="94" y="426" type="curve" smooth="yes"/>
      <point x="154" y="426"/>
      <point x="208" y="426"/>
      <point x="267" y="426" type="curve"/>
      <point x="267" y="515"/>
      <point x="263" y="535"/>
      <point x="254" y="535" type="curve" smooth="yes"/>
      <point x="191" y="535"/>
      <point x="147" y="535"/>
    </contour>
    <contour>
      <point x="366" y="532" type="curve" smooth="yes"/>
      <point x="364" y="534"/>
      <point x="361" y="535"/>
      <point x="358" y="535" type="curve" smooth="yes"/>
      <point x="254" y="535" type="line"/>
      <point x="254" y="75" type="line" smooth="yes"/>
      <point x="254" y="57"/>
      <point x="301" y="52"/>
      <point x="369" y="52" type="curve"/>
      <point x="369" y="524" type="line" smooth="yes"/>
      <point x="369" y="527"/>
      <point x="368" y="530"/>
    </contour>
    <contour>
      <point x="67" y="109" type="line"/>
      <point x="67" y="75"/>
      <point x="67" y="45"/>
      <point x="67" y="11" type="curve" smooth="yes"/>
      <point x="67" y="8"/>
      <point x="68" y="5"/>
      <point x="70" y="3" type="curve" smooth="yes"/>
      <point x="72" y="1"/>
      <point x="75" y="0"/>
      <point x="78" y="0" type="curve"/>
      <point x="537" y="0" type="line"/>
      <point x="537" y="34"/>
      <point x="537" y="64"/>
      <point x="537" y="98" type="curve" smooth="yes"/>
      <point x="537" y="104"/>
      <point x="532" y="109"/>
      <point x="526" y="109" type="curve"/>
    </contour>
    <contour>
      <point x="377" y="659" type="curve"/>
      <point x="377" y="774" type="line" smooth="yes"/>
      <point x="377" y="780"/>
      <point x="372" y="785"/>
      <point x="366" y="785" type="curve" smooth="yes"/>
      <point x="322" y="785"/>
      <point x="276" y="785"/>
      <point x="232" y="785" type="curve"/>
      <point x="232" y="670" type="line" smooth="yes"/>
      <point x="232" y="664"/>
      <point x="237" y="659"/>
      <point x="243" y="659" type="curve" smooth="yes"/>
      <point x="287" y="659"/>
      <point x="333" y="659"/>
    </contour>
    <contour>
      <point x="538" y="0" type="move" name="ogonek"/>
    </contour>
    <contour>
      <point x="302" y="-1" type="move" name="bottom"/>
    </contour>
  </outline>
</glyph>
<glyph name="j" format="1">
  <advance width="600"/>
  <unicode hex="006A"/>
  <outline>
    <contour>
      <point x="73" y="535" type="curve"/>
      <point x="73" y="501"/>
      <point x="73" y="471"/>
      <point x="73" y="437" type="curve" smooth="yes"/>
      <point x="73" y="431"/>
      <point x="78" y="426"/>
      <point x="84" y="426" type="curve" smooth="yes"/>
      <point x="188" y="426"/>
      <point x="298" y="426"/>
      <point x="402" y="426" type="curve"/>
      <point x="402" y="474"/>
      <point x="386" y="535"/>
      <point x="349" y="535" type="curve" smooth="yes"/>
      <point x="259" y="535"/>
      <point x="163" y="535"/>
    </contour>
    <contour>
      <point x="441" y="-4" type="curve" smooth="yes"/>
      <point x="441" y="524" type="line" smooth="yes"/>
      <point x="441" y="527"/>
      <point x="440" y="530"/>
      <point x="438" y="532" type="curve" smooth="yes"/>
      <point x="436" y="534"/>
      <point x="433" y="535"/>
      <point x="430" y="535" type="curve" smooth="yes"/>
      <point x="325" y="535" type="line"/>
      <point x="325" y="12" type="line" smooth="yes"/>
      <point x="325" y="-76"/>
      <point x="313" y="-114"/>
      <point x="264" y="-162" type="curve"/>
      <point x="340" y="-210"/>
      <point x="441" y="-119"/>
    </contour>
    <contour>
      <point x="196" y="-135" type="curve" smooth="yes"/>
      <point x="142" y="-135"/>
      <point x="96" y="-127"/>
      <point x="51" y="-107" type="curve"/>
      <point x="34" y="-107" type="line"/>
      <point x="34" y="-142"/>
      <point x="34" y="-177"/>
      <point x="34" y="-211" type="curve" smooth="yes"/>
      <point x="34" y="-215"/>
      <point x="35" y="-217"/>
      <point x="37" y="-219" type="curve" smooth="yes"/>
      <point x="51" y="-234"/>
      <point x="119" y="-250"/>
      <point x="194" y="-250" type="curve" smooth="yes"/>
      <point x="359" y="-250"/>
      <point x="441" y="-165"/>
      <point x="441" y="-4" type="curve" smooth="yes"/>
      <point x="441" y="17"/>
      <point x="411" y="16"/>
      <point x="325" y="12" type="curve"/>
      <point x="325" y="-89"/>
      <point x="286" y="-135"/>
    </contour>
    <contour>
      <point x="449" y="659" type="curve"/>
      <point x="449" y="774" type="line" smooth="yes"/>
      <point x="449" y="780"/>
      <point x="444" y="785"/>
      <point x="438" y="785" type="curve" smooth="yes"/>
      <point x="394" y="785"/>
      <point x="348" y="785"/>
      <point x="304" y="785" type="curve"/>
      <point x="304" y="670" type="line" smooth="yes"/>
      <point x="304" y="664"/>
      <point x="309" y="659"/>
      <point x="315" y="659" type="curve" smooth="yes"/>
      <point x="359" y="659"/>
      <point x="405" y="659"/>
    </contour>
  </outline>
</glyph>
<glyph name="k" format="1">
  <advance width="600"/>
  <unicode hex="006B"/>
  <outline>
    <contour>
      <point x="199" y="0" type="curve"/>
      <point x="199" y="739" type="line" smooth="yes"/>
      <point x="199" y="742"/>
      <point x="198" y="745"/>
      <point x="196" y="747" type="curve" smooth="yes"/>
      <point x="194" y="749"/>
      <point x="191" y="750"/>
      <point x="188" y="750" type="curve" smooth="yes"/>
      <point x="154" y="750"/>
      <point x="124" y="750"/>
      <point x="84" y="750" type="curve"/>
      <point x="84" y="726"/>
      <point x="84" y="691"/>
      <point x="84" y="651" type="curve" smooth="yes"/>
      <point x="84" y="11" type="line" smooth="yes"/>
      <point x="84" y="5"/>
      <point x="89" y="0"/>
      <point x="95" y="0" type="curve" smooth="yes"/>
      <point x="132" y="0"/>
      <point x="162" y="0"/>
    </contour>
    <contour>
      <point x="404" y="535" type="line"/>
      <point x="303" y="422"/>
      <point x="200" y="310"/>
      <point x="100" y="198" type="curve"/>
      <point x="100" y="137"/>
      <point x="145" y="103"/>
      <point x="167" y="128" type="curve" smooth="yes"/>
      <point x="287" y="255"/>
      <point x="406" y="380"/>
      <point x="532" y="513" type="curve" smooth="yes"/>
      <point x="540" y="522"/>
      <point x="541" y="525"/>
      <point x="541" y="527" type="curve" smooth="yes"/>
      <point x="541" y="531"/>
      <point x="537" y="535"/>
      <point x="532" y="535" type="curve"/>
    </contour>
    <contour>
      <point x="444" y="0" type="curve" smooth="yes"/>
      <point x="506" y="0"/>
      <point x="533" y="0"/>
      <point x="573" y="0" type="curve"/>
      <point x="485" y="110"/>
      <point x="403" y="216"/>
      <point x="316" y="327" type="curve"/>
      <point x="243" y="255"/>
      <point x="242" y="246"/>
      <point x="253" y="230" type="curve" smooth="yes"/>
      <point x="280" y="192"/>
      <point x="407" y="31"/>
      <point x="423" y="10" type="curve" smooth="yes"/>
      <point x="428" y="3"/>
      <point x="434" y="0"/>
    </contour>
    <contour>
      <point x="328" y="-1" type="move" name="bottom"/>
    </contour>
  </outline>
</glyph>
<glyph name="l" format="1">
  <advance width="600"/>
  <unicode hex="006C"/>
  <outline>
    <contour>
      <point x="83" y="750" type="curve"/>
      <point x="83" y="716"/>
      <point x="83" y="686"/>
      <point x="83" y="652" type="curve" smooth="yes"/>
      <point x="83" y="646"/>
      <point x="88" y="641"/>
      <point x="94" y="641" type="curve" smooth="yes"/>
      <point x="154" y="641"/>
      <point x="208" y="641"/>
      <point x="267" y="641" type="curve"/>
      <point x="267" y="730"/>
      <point x="263" y="750"/>
      <point x="254" y="750" type="curve" smooth="yes"/>
      <point x="191" y="750"/>
      <point x="147" y="750"/>
    </contour>
    <contour>
      <point x="366" y="747" type="curve" smooth="yes"/>
      <point x="364" y="749"/>
      <point x="361" y="750"/>
      <point x="358" y="750" type="curve" smooth="yes"/>
      <point x="254" y="750" type="line"/>
      <point x="254" y="75" type="line" smooth="yes"/>
      <point x="254" y="57"/>
      <point x="301" y="52"/>
      <point x="369" y="52" type="curve"/>
      <point x="369" y="739" type="line" smooth="yes"/>
      <point x="369" y="742"/>
      <point x="368" y="745"/>
    </contour>
    <contour>
      <point x="67" y="109" type="line"/>
      <point x="67" y="75"/>
      <point x="67" y="45"/>
      <point x="67" y="11" type="curve" smooth="yes"/>
      <point x="67" y="8"/>
      <point x="68" y="5"/>
      <point x="70" y="3" type="curve" smooth="yes"/>
      <point x="72" y="1"/>
      <point x="75" y="0"/>
      <point x="78" y="0" type="curve"/>
      <point x="537" y="0" type="line"/>
      <point x="537" y="34"/>
      <point x="537" y="64"/>
      <point x="537" y="98" type="curve" smooth="yes"/>
      <point x="537" y="104"/>
      <point x="532" y="109"/>
      <point x="526" y="109" type="curve"/>
    </contour>
    <contour>
      <point x="513" y="671" type="move" name="caronslovak"/>
    </contour>
    <contour>
      <point x="302" y="730" type="move" name="top"/>
    </contour>
    <contour>
      <point x="498" y="400" type="move" name="dot"/>
    </contour>
    <contour>
      <point x="302" y="-1" type="move" name="bottom"/>
    </contour>
  </outline>
</glyph>
<glyph name="m" format="1">
  <advance width="600"/>
  <unicode hex="006D"/>
  <outline>
    <contour>
      <point x="143" y="0" type="curve"/>
      <point x="143" y="467" type="line" smooth="yes"/>
      <point x="143" y="500"/>
      <point x="129" y="529"/>
      <point x="127" y="532" type="curve" smooth="yes"/>
      <point x="123" y="535"/>
      <point x="120" y="535"/>
      <point x="116" y="535" type="curve" smooth="yes"/>
      <point x="91" y="535"/>
      <point x="65" y="535"/>
      <point x="40" y="535" type="curve"/>
      <point x="40" y="508"/>
      <point x="40" y="473"/>
      <point x="40" y="435" type="curve" smooth="yes"/>
      <point x="40" y="11" type="line" smooth="yes"/>
      <point x="40" y="5"/>
      <point x="45" y="0"/>
      <point x="51" y="0" type="curve" smooth="yes"/>
      <point x="82" y="0"/>
      <point x="113" y="0"/>
    </contour>
    <contour>
      <point x="259" y="547" type="curve" smooth="yes"/>
      <point x="217" y="547"/>
      <point x="186" y="527"/>
      <point x="154" y="488" type="curve" smooth="yes"/>
      <point x="129" y="460"/>
      <point x="101" y="408"/>
      <point x="106" y="356" type="curve"/>
      <point x="146" y="408"/>
      <point x="185" y="425"/>
      <point x="219" y="425" type="curve" smooth="yes"/>
      <point x="240" y="425"/>
      <point x="252" y="415"/>
      <point x="252" y="387" type="curve"/>
      <point x="345" y="436"/>
      <point x="348" y="445"/>
      <point x="348" y="449" type="curve" smooth="yes"/>
      <point x="348" y="508"/>
      <point x="310" y="547"/>
    </contour>
    <contour>
      <point x="348" y="0" type="curve"/>
      <point x="348" y="449" type="line" smooth="yes"/>
      <point x="348" y="485"/>
      <point x="304" y="466"/>
      <point x="239" y="433" type="curve"/>
      <point x="247" y="421"/>
      <point x="252" y="414"/>
      <point x="252" y="387" type="curve" smooth="yes"/>
      <point x="252" y="11" type="line" smooth="yes"/>
      <point x="252" y="5"/>
      <point x="257" y="0"/>
      <point x="263" y="0" type="curve" smooth="yes"/>
      <point x="291" y="0"/>
      <point x="320" y="0"/>
    </contour>
    <contour>
      <point x="476" y="547" type="curve" smooth="yes"/>
      <point x="427" y="547"/>
      <point x="396" y="526"/>
      <point x="362" y="485" type="curve" smooth="yes"/>
      <point x="335" y="457"/>
      <point x="309" y="401"/>
      <point x="314" y="353" type="curve"/>
      <point x="356" y="407"/>
      <point x="391" y="425"/>
      <point x="424" y="425" type="curve" smooth="yes"/>
      <point x="446" y="425"/>
      <point x="457" y="415"/>
      <point x="457" y="386" type="curve"/>
      <point x="556" y="430"/>
      <point x="560" y="441"/>
      <point x="560" y="448" type="curve" smooth="yes"/>
      <point x="560" y="507"/>
      <point x="527" y="547"/>
    </contour>
    <contour>
      <point x="560" y="0" type="curve"/>
      <point x="560" y="34"/>
      <point x="560" y="67"/>
      <point x="560" y="99" type="curve" smooth="yes"/>
      <point x="560" y="448" type="line" smooth="yes"/>
      <point x="560" y="492"/>
      <point x="525" y="472"/>
      <point x="444" y="440" type="curve"/>
      <point x="453" y="425"/>
      <point x="457" y="417"/>
      <point x="457" y="387" type="curve" smooth="yes"/>
      <point x="457" y="11" type="line" smooth="yes"/>
      <point x="457" y="5"/>
      <point x="462" y="0"/>
      <point x="468" y="0" type="curve" smooth="yes"/>
      <point x="499" y="0"/>
      <point x="529" y="0"/>
    </contour>
  </outline>
</glyph>
<glyph name="p" format="1">
  <advance width="600"/>
  <unicode hex="0070"/>
  <outline>
    <contour>
      <point x="203" y="-207" type="curve"/>
      <point x="203" y="524" type="line" smooth="yes"/>
      <point x="203" y="527"/>
      <point x="202" y="530"/>
      <point x="200" y="532" type="curve" smooth="yes"/>
      <point x="198" y="534"/>
      <point x="195" y="535"/>
      <point x="192" y="535" type="curve"/>
      <point x="156" y="535"/>
      <point x="120" y="535"/>
      <point x="84" y="535" type="curve"/>
      <point x="84" y="504"/>
      <point x="84" y="471"/>
      <point x="84" y="435" type="curve" smooth="yes"/>
      <point x="84" y="-196" type="line" smooth="yes"/>
      <point x="84" y="-202"/>
      <point x="89" y="-207"/>
      <point x="95" y="-207" type="curve"/>
      <point x="131" y="-207"/>
      <point x="167" y="-207"/>
    </contour>
    <contour>
      <point x="374" y="547" type="curve" smooth="yes"/>
      <point x="314" y="547"/>
      <point x="255" y="520"/>
      <point x="202" y="465" type="curve" smooth="yes"/>
      <point x="164" y="425"/>
      <point x="156" y="383"/>
      <point x="170" y="352" type="curve"/>
      <point x="242" y="411"/>
      <point x="287" y="434"/>
      <point x="336" y="434" type="curve" smooth="yes"/>
      <point x="391" y="434"/>
      <point x="419" y="396"/>
      <point x="419" y="332" type="curve"/>
      <point x="476" y="333"/>
      <point x="538" y="340"/>
      <point x="538" y="352" type="curve" smooth="yes"/>
      <point x="538" y="469"/>
      <point x="475" y="547"/>
    </contour>
    <contour>
      <point x="351" y="-10" type="curve" smooth="yes"/>
      <point x="468" y="-10"/>
      <point x="538" y="72"/>
      <point x="538" y="213" type="curve" smooth="yes"/>
      <point x="538" y="352" type="line" smooth="yes"/>
      <point x="538" y="413"/>
      <point x="486" y="473"/>
      <point x="426" y="473" type="curve" smooth="yes"/>
      <point x="401" y="473"/>
      <point x="387" y="464"/>
      <point x="386" y="446" type="curve"/>
      <point x="408" y="412"/>
      <point x="419" y="385"/>
      <point x="419" y="332" type="curve" smooth="yes"/>
      <point x="419" y="212" type="line" smooth="yes"/>
      <point x="419" y="137"/>
      <point x="387" y="100"/>
      <point x="324" y="100" type="curve" smooth="yes"/>
      <point x="276" y="100"/>
      <point x="229" y="116"/>
      <point x="181" y="165" type="curve"/>
      <point x="168" y="156"/>
      <point x="165" y="126"/>
      <point x="167" y="111" type="curve" smooth="yes"/>
      <point x="178" y="51"/>
      <point x="259" y="-10"/>
    </contour>
  </outline>
</glyph>
<glyph name="q" format="1">
  <advance width="600"/>
  <unicode hex="0071"/>
  <outline>
    <contour>
      <point x="243" y="547" type="curve" smooth="yes"/>
      <point x="131" y="547"/>
      <point x="62" y="465"/>
      <point x="62" y="325" type="curve" smooth="yes"/>
      <point x="62" y="183" type="line" smooth="yes"/>
      <point x="62" y="124"/>
      <point x="112" y="65"/>
      <point x="172" y="65" type="curve" smooth="yes"/>
      <point x="197" y="65"/>
      <point x="211" y="74"/>
      <point x="212" y="92" type="curve"/>
      <point x="191" y="126"/>
      <point x="181" y="149"/>
      <point x="181" y="205" type="curve" smooth="yes"/>
      <point x="181" y="310" type="line" smooth="yes"/>
      <point x="181" y="386"/>
      <point x="211" y="429"/>
      <point x="276" y="429" type="curve" smooth="yes"/>
      <point x="329" y="429"/>
      <point x="372" y="391"/>
      <point x="407" y="339" type="curve"/>
      <point x="422" y="344"/>
      <point x="432" y="365"/>
      <point x="430" y="386" type="curve" smooth="yes"/>
      <point x="422" y="453"/>
      <point x="348" y="547"/>
    </contour>
    <contour>
      <point x="223" y="-10" type="curve" smooth="yes"/>
      <point x="291" y="-10"/>
      <point x="349" y="16"/>
      <point x="403" y="75" type="curve" smooth="yes"/>
      <point x="443" y="118"/>
      <point x="448" y="162"/>
      <point x="435" y="191" type="curve"/>
      <point x="362" y="130"/>
      <point x="312" y="105"/>
      <point x="262" y="105" type="curve" smooth="yes"/>
      <point x="207" y="105"/>
      <point x="181" y="144"/>
      <point x="181" y="205" type="curve"/>
      <point x="106" y="219"/>
      <point x="62" y="193"/>
      <point x="62" y="183" type="curve" smooth="yes"/>
      <point x="62" y="65"/>
      <point x="129" y="-10"/>
    </contour>
    <contour>
      <point x="516" y="-207" type="curve"/>
      <point x="516" y="435" type="line" smooth="yes"/>
      <point x="516" y="468"/>
      <point x="516" y="502"/>
      <point x="516" y="535" type="curve"/>
      <point x="480" y="535"/>
      <point x="444" y="535"/>
      <point x="408" y="535" type="curve" smooth="yes"/>
      <point x="405" y="535"/>
      <point x="402" y="534"/>
      <point x="400" y="532" type="curve" smooth="yes"/>
      <point x="398" y="530"/>
      <point x="397" y="527"/>
      <point x="397" y="524" type="curve" smooth="yes"/>
      <point x="397" y="-196" type="line" smooth="yes"/>
      <point x="397" y="-202"/>
      <point x="402" y="-207"/>
      <point x="408" y="-207" type="curve" smooth="yes"/>
      <point x="444" y="-207"/>
      <point x="480" y="-207"/>
    </contour>
  </outline>
</glyph>
<glyph name="r" format="1">
  <advance width="600"/>
  <unicode hex="0072"/>
  <outline>
    <contour>
      <point x="74" y="535" type="curve"/>
      <point x="74" y="501"/>
      <point x="74" y="471"/>
      <point x="74" y="437" type="curve" smooth="yes"/>
      <point x="74" y="431"/>
      <point x="79" y="426"/>
      <point x="85" y="426" type="curve" smooth="yes"/>
      <point x="135" y="426"/>
      <point x="209" y="426"/>
      <point x="259" y="426" type="curve"/>
      <point x="259" y="480"/>
      <point x="252" y="535"/>
      <point x="239" y="535" type="curve" smooth="yes"/>
      <point x="193" y="535"/>
      <point x="120" y="535"/>
    </contour>
    <contour>
      <point x="308" y="54" type="curve"/>
      <point x="308" y="408" type="line" smooth="yes"/>
      <point x="308" y="429"/>
      <point x="261" y="535"/>
      <point x="239" y="535" type="curve" smooth="yes"/>
      <point x="230" y="535"/>
      <point x="215" y="532"/>
      <point x="192" y="527" type="curve"/>
      <point x="192" y="65" type="line" smooth="yes"/>
      <point x="192" y="59"/>
      <point x="197" y="54"/>
    </contour>
    <contour>
      <point x="67" y="109" type="line"/>
      <point x="67" y="75"/>
      <point x="67" y="45"/>
      <point x="67" y="11" type="curve" smooth="yes"/>
      <point x="67" y="8"/>
      <point x="68" y="5"/>
      <point x="70" y="3" type="curve" smooth="yes"/>
      <point x="72" y="1"/>
      <point x="75" y="0"/>
      <point x="78" y="0" type="curve"/>
      <point x="490" y="0" type="line"/>
      <point x="490" y="34"/>
      <point x="490" y="64"/>
      <point x="490" y="98" type="curve" smooth="yes"/>
      <point x="490" y="104"/>
      <point x="485" y="109"/>
      <point x="479" y="109" type="curve"/>
    </contour>
    <contour>
      <point x="270" y="339" type="curve"/>
      <point x="346" y="408"/>
      <point x="395" y="423"/>
      <point x="453" y="423" type="curve" smooth="yes"/>
      <point x="481" y="423"/>
      <point x="508" y="420"/>
      <point x="536" y="415" type="curve"/>
      <point x="551" y="415" type="line"/>
      <point x="551" y="447"/>
      <point x="551" y="521"/>
      <point x="551" y="532" type="curve"/>
      <point x="551" y="539"/>
      <point x="547" y="543"/>
      <point x="540" y="543" type="curve" smooth="yes"/>
      <point x="485" y="543" type="line" smooth="yes"/>
      <point x="396" y="543"/>
      <point x="340" y="518"/>
      <point x="285" y="448" type="curve" smooth="yes"/>
      <point x="273" y="433"/>
      <point x="269" y="416"/>
    </contour>
    <contour>
      <point x="309" y="546" type="move" name="top"/>
    </contour>
    <contour>
      <point x="309" y="-1" type="move" name="bottom"/>
    </contour>
  </outline>
</glyph>
<glyph name="t" format="1">
  <advance width="600"/>
  <unicode hex="0074"/>
  <outline>
    <contour>
      <point x="190" y="700" type="curve"/>
      <point x="190" y="209" type="line" smooth="yes"/>
      <point x="190" y="108"/>
      <point x="254" y="45"/>
      <point x="363" y="59" type="curve"/>
      <point x="320" y="105"/>
      <point x="306" y="144"/>
      <point x="306" y="220" type="curve" smooth="yes"/>
      <point x="306" y="689" type="line" smooth="yes"/>
      <point x="306" y="695"/>
      <point x="301" y="700"/>
      <point x="295" y="700" type="curve" smooth="yes"/>
      <point x="262" y="700"/>
      <point x="226" y="700"/>
    </contour>
    <contour>
      <point x="500" y="110" type="curve"/>
      <point x="483" y="110" type="line"/>
      <point x="450" y="110"/>
      <point x="450" y="110"/>
      <point x="408" y="110" type="curve" smooth="yes"/>
      <point x="335" y="110"/>
      <point x="306" y="135"/>
      <point x="306" y="220" type="curve"/>
      <point x="214" y="242"/>
      <point x="190" y="227"/>
      <point x="190" y="209" type="curve" smooth="yes"/>
      <point x="190" y="56"/>
      <point x="278" y="0"/>
      <point x="403" y="0" type="curve" smooth="yes"/>
      <point x="489" y="0" type="line" smooth="yes"/>
      <point x="492" y="0"/>
      <point x="495" y="1"/>
      <point x="497" y="3" type="curve" smooth="yes"/>
      <point x="499" y="5"/>
      <point x="500" y="8"/>
      <point x="500" y="11" type="curve" smooth="yes"/>
      <point x="500" y="46"/>
      <point x="500" y="75"/>
    </contour>
    <contour>
      <point x="67" y="535" type="line"/>
      <point x="67" y="501"/>
      <point x="67" y="473"/>
      <point x="67" y="438" type="curve" smooth="yes"/>
      <point x="67" y="435"/>
      <point x="68" y="432"/>
      <point x="70" y="430" type="curve" smooth="yes"/>
      <point x="72" y="428"/>
      <point x="75" y="427"/>
      <point x="78" y="427" type="curve" smooth="yes"/>
      <point x="500" y="427" type="line"/>
      <point x="500" y="462"/>
      <point x="500" y="490"/>
      <point x="500" y="524" type="curve" smooth="yes"/>
      <point x="500" y="530"/>
      <point x="495" y="535"/>
      <point x="489" y="535" type="curve" smooth="yes"/>
    </contour>
    <contour>
      <point x="446" y="700" type="move" name="caronslovak"/>
    </contour>
    <contour>
      <point x="371" y="-1" type="move" name="bottom"/>
    </contour>
  </outline>
</glyph>
<glyph name="v" format="1">
  <advance width="600"/>
  <unicode hex="0076"/>
  <outline>
    <contour>
      <point x="542" y="535" type="curve" smooth="yes"/>
      <point x="435" y="535" type="line"/>
      <point x="391" y="381"/>
      <point x="345" y="229"/>
      <point x="298" y="75" type="curve"/>
      <point x="285" y="25"/>
      <point x="274" y="13"/>
      <point x="249" y="0" type="curve"/>
      <point x="385" y="0" type="line"/>
      <point x="441" y="173"/>
      <point x="497" y="346"/>
      <point x="553" y="519" type="curve"/>
      <point x="556" y="528"/>
      <point x="551" y="535"/>
    </contour>
    <contour>
      <point x="155" y="535" type="curve" smooth="yes"/>
      <point x="42" y="535" type="line"/>
      <point x="98" y="361"/>
      <point x="154" y="188"/>
      <point x="211" y="14" type="curve"/>
      <point x="214" y="4"/>
      <point x="221" y="0"/>
      <point x="229" y="0" type="curve" smooth="yes"/>
      <point x="256" y="0" type="line" smooth="yes"/>
      <point x="300" y="0"/>
      <point x="379" y="25"/>
      <point x="381" y="112" type="curve"/>
      <point x="350" y="112"/>
      <point x="328" y="112"/>
      <point x="303" y="112" type="curve" smooth="yes"/>
      <point x="297" y="112"/>
      <point x="294" y="115"/>
      <point x="292" y="122" type="curve"/>
      <point x="250" y="256"/>
      <point x="210" y="388"/>
      <point x="169" y="522" type="curve"/>
      <point x="166" y="531"/>
      <point x="162" y="535"/>
    </contour>
  </outline>
</glyph>
<glyph name="w" format="1">
  <advance width="600"/>
  <unicode hex="0077"/>
  <outline>
    <contour>
      <point x="34" y="535" type="curve"/>
      <point x="59" y="362"/>
      <point x="84" y="188"/>
      <point x="109" y="14" type="curve" smooth="yes"/>
      <point x="110" y="4"/>
      <point x="118" y="0"/>
      <point x="127" y="0" type="curve" smooth="yes"/>
      <point x="153" y="0" type="line" smooth="yes"/>
      <point x="168" y="0"/>
      <point x="185" y="14"/>
      <point x="192" y="32" type="curve" smooth="yes"/>
      <point x="176" y="195"/>
      <point x="161" y="357"/>
      <point x="145" y="520" type="curve"/>
      <point x="144" y="528"/>
      <point x="143" y="531"/>
      <point x="141" y="533" type="curve" smooth="yes"/>
      <point x="139" y="534"/>
      <point x="137" y="535"/>
      <point x="133" y="535" type="curve"/>
      <point x="98" y="535"/>
      <point x="66" y="535"/>
    </contour>
    <contour>
      <point x="308" y="423" type="curve" smooth="yes"/>
      <point x="261" y="423" type="line"/>
      <point x="234" y="307"/>
      <point x="207" y="192"/>
      <point x="180" y="75" type="curve"/>
      <point x="170" y="26"/>
      <point x="162" y="11"/>
      <point x="144" y="0" type="curve"/>
      <point x="232" y="0" type="line"/>
      <point x="260" y="135"/>
      <point x="290" y="269"/>
      <point x="319" y="403" type="curve" smooth="yes"/>
      <point x="322" y="416"/>
      <point x="318" y="423"/>
    </contour>
    <contour>
      <point x="333" y="423" type="curve" smooth="yes"/>
      <point x="278" y="423" type="line"/>
      <point x="307" y="287"/>
      <point x="337" y="150"/>
      <point x="366" y="14" type="curve" smooth="yes"/>
      <point x="368" y="4"/>
      <point x="376" y="0"/>
      <point x="385" y="0" type="curve" smooth="yes"/>
      <point x="408" y="0" type="line" smooth="yes"/>
      <point x="419" y="0"/>
      <point x="431" y="10"/>
      <point x="432" y="24" type="curve" smooth="yes"/>
      <point x="399" y="168"/>
      <point x="372" y="290"/>
      <point x="344" y="412" type="curve" smooth="yes"/>
      <point x="342" y="421"/>
      <point x="338" y="423"/>
    </contour>
    <contour>
      <point x="457" y="535" type="curve"/>
      <point x="443" y="382"/>
      <point x="428" y="229"/>
      <point x="413" y="75" type="curve"/>
      <point x="408" y="29"/>
      <point x="404" y="14"/>
      <point x="398" y="0" type="curve"/>
      <point x="488" y="0" type="line"/>
      <point x="514" y="174"/>
      <point x="539" y="349"/>
      <point x="564" y="523" type="curve"/>
      <point x="565" y="528"/>
      <point x="565" y="531"/>
      <point x="563" y="533" type="curve" smooth="yes"/>
      <point x="561" y="534"/>
      <point x="560" y="535"/>
      <point x="556" y="535" type="curve"/>
      <point x="523" y="535"/>
      <point x="490" y="535"/>
    </contour>
    <contour>
      <point x="299" y="546" type="move" name="top"/>
    </contour>
  </outline>
</glyph>
<glyph name="x" format="1">
  <advance width="600"/>
  <unicode hex="0078"/>
  <outline>
    <contour>
      <point x="426" y="0" type="curve" smooth="yes"/>
      <point x="466" y="0"/>
      <point x="509" y="0"/>
      <point x="549" y="0" type="curve"/>
      <point x="485" y="100"/>
      <point x="420" y="198"/>
      <point x="356" y="298" type="curve" smooth="yes"/>
      <point x="349" y="309"/>
      <point x="335" y="314"/>
      <point x="327" y="325" type="curve" smooth="yes"/>
      <point x="285" y="391"/>
      <point x="243" y="458"/>
      <point x="200" y="524" type="curve" smooth="yes"/>
      <point x="195" y="531"/>
      <point x="190" y="535"/>
      <point x="181" y="535" type="curve" smooth="yes"/>
      <point x="141" y="535"/>
      <point x="97" y="535"/>
      <point x="57" y="535" type="curve"/>
      <point x="119" y="439"/>
      <point x="180" y="343"/>
      <point x="242" y="247" type="curve" smooth="yes"/>
      <point x="251" y="235"/>
      <point x="265" y="230"/>
      <point x="274" y="217" type="curve" smooth="yes"/>
      <point x="317" y="149"/>
      <point x="361" y="80"/>
      <point x="406" y="11" type="curve" smooth="yes"/>
      <point x="410" y="3"/>
      <point x="417" y="0"/>
    </contour>
    <contour>
      <point x="527" y="535" type="curve" smooth="yes"/>
      <point x="415" y="535" type="line"/>
      <point x="371" y="462"/>
      <point x="330" y="390"/>
      <point x="287" y="316" type="curve" smooth="yes"/>
      <point x="279" y="300"/>
      <point x="254" y="317"/>
      <point x="245" y="301" type="curve" smooth="yes"/>
      <point x="185" y="210"/>
      <point x="125" y="118"/>
      <point x="65" y="27" type="curve" smooth="yes"/>
      <point x="60" y="19"/>
      <point x="57" y="15"/>
      <point x="57" y="10" type="curve" smooth="yes"/>
      <point x="57" y="4"/>
      <point x="61" y="0"/>
      <point x="69" y="0" type="curve" smooth="yes"/>
      <point x="185" y="0" type="line"/>
      <point x="229" y="74"/>
      <point x="272" y="148"/>
      <point x="317" y="223" type="curve" smooth="yes"/>
      <point x="327" y="242"/>
      <point x="346" y="223"/>
      <point x="357" y="242" type="curve" smooth="yes"/>
      <point x="417" y="333"/>
      <point x="476" y="423"/>
      <point x="535" y="514" type="curve" smooth="yes"/>
      <point x="538" y="519"/>
      <point x="539" y="523"/>
      <point x="539" y="526" type="curve" smooth="yes"/>
      <point x="539" y="533"/>
      <point x="534" y="535"/>
    </contour>
  </outline>
</glyph>
<glyph name="y" format="1">
  <advance width="600"/>
  <unicode hex="0079"/>
  <outline>
    <contour>
      <point x="544" y="535" type="curve" smooth="yes"/>
      <point x="506" y="535"/>
      <point x="471" y="535"/>
      <point x="440" y="535" type="curve"/>
      <point x="386" y="331"/>
      <point x="299" y="7"/>
      <point x="278" y="-72" type="curve" smooth="yes"/>
      <point x="265" y="-119"/>
      <point x="235" y="-140"/>
      <point x="190" y="-140" type="curve" smooth="yes"/>
      <point x="91" y="-140" type="line"/>
      <point x="91" y="-239" type="line" smooth="yes"/>
      <point x="91" y="-247"/>
      <point x="95" y="-250"/>
      <point x="102" y="-250" type="curve" smooth="yes"/>
      <point x="202" y="-250" type="line" smooth="yes"/>
      <point x="301" y="-250"/>
      <point x="354" y="-201"/>
      <point x="382" y="-98" type="curve" smooth="yes"/>
      <point x="436" y="104"/>
      <point x="500" y="323"/>
      <point x="556" y="519" type="curve" smooth="yes"/>
      <point x="559" y="529"/>
      <point x="551" y="535"/>
    </contour>
    <contour>
      <point x="154" y="535" type="curve" smooth="yes"/>
      <point x="114" y="535"/>
      <point x="78" y="535"/>
      <point x="43" y="535" type="curve"/>
      <point x="101" y="362"/>
      <point x="216" y="19"/>
      <point x="219" y="10" type="curve" smooth="yes"/>
      <point x="221" y="3"/>
      <point x="225" y="0"/>
      <point x="231" y="0" type="curve" smooth="yes"/>
      <point x="336" y="0" type="line" smooth="yes"/>
      <point x="359" y="0"/>
      <point x="375" y="22"/>
      <point x="377" y="98" type="curve"/>
      <point x="314" y="98" type="line"/>
      <point x="309" y="98"/>
      <point x="306" y="101"/>
      <point x="304" y="106" type="curve" smooth="yes"/>
      <point x="299" y="121"/>
      <point x="201" y="422"/>
      <point x="173" y="522" type="curve" smooth="yes"/>
      <point x="170" y="533"/>
      <point x="166" y="535"/>
    </contour>
    <contour>
      <point x="307" y="546" type="move" name="top"/>
    </contour>
  </outline>
</glyph>
<glyph name="z" format="1">
  <advance width="600"/>
  <unicode hex="007A"/>
  <outline>
    <contour>
      <point x="74" y="535" type="line"/>
      <point x="74" y="502"/>
      <point x="74" y="471"/>
      <point x="74" y="437" type="curve" smooth="yes"/>
      <point x="74" y="434"/>
      <point x="75" y="431"/>
      <point x="77" y="429" type="curve" smooth="yes"/>
      <point x="79" y="427"/>
      <point x="82" y="426"/>
      <point x="85" y="426" type="curve" smooth="yes"/>
      <point x="398" y="426" type="line" smooth="yes"/>
      <point x="439" y="426"/>
      <point x="490" y="428"/>
      <point x="527" y="434" type="curve"/>
      <point x="527" y="524" type="line" smooth="yes"/>
      <point x="527" y="527"/>
      <point x="526" y="530"/>
      <point x="524" y="532" type="curve" smooth="yes"/>
      <point x="522" y="534"/>
      <point x="519" y="535"/>
      <point x="516" y="535" type="curve" smooth="yes"/>
    </contour>
    <contour>
      <point x="415" y="467" type="curve"/>
      <point x="301" y="345"/>
      <point x="188" y="224"/>
      <point x="74" y="101" type="curve"/>
      <point x="74" y="18"/>
      <point x="166" y="42"/>
      <point x="198" y="75" type="curve" smooth="yes"/>
      <point x="318" y="205"/>
      <point x="527" y="432"/>
      <point x="527" y="434" type="curve"/>
      <point x="527" y="456"/>
      <point x="491" y="467"/>
    </contour>
    <contour>
      <point x="527" y="0" type="line"/>
      <point x="527" y="34"/>
      <point x="527" y="64"/>
      <point x="527" y="98" type="curve"/>
      <point x="527" y="104"/>
      <point x="522" y="109"/>
      <point x="516" y="109" type="curve" smooth="yes"/>
      <point x="206" y="109" type="line" smooth="yes"/>
      <point x="163" y="109"/>
      <point x="118" y="107"/>
      <point x="74" y="101" type="curve"/>
      <point x="74" y="11" type="line" smooth="yes"/>
      <point x="74" y="8"/>
      <point x="75" y="5"/>
      <point x="77" y="3" type="curve" smooth="yes"/>
      <point x="79" y="1"/>
      <point x="82" y="0"/>
      <point x="85" y="0" type="curve" smooth="yes"/>
    </contour>
    <contour>
      <point x="300" y="546" type="move" name="top"/>
    </contour>
  </outline>
</glyph>
<glyph name="braceleft" format="1">
  <advance width="600"/>
  <unicode hex="007B"/>
  <outline>
    <contour>
      <point x="378" y="650" type="curve" smooth="yes"/>
      <point x="443" y="650"/>
      <point x="441" y="650"/>
      <point x="497" y="650" type="curve"/>
      <point x="517" y="650" type="line"/>
      <point x="517" y="683"/>
      <point x="517" y="716"/>
      <point x="517" y="749" type="curve"/>
      <point x="517" y="756"/>
      <point x="513" y="760"/>
      <point x="506" y="760" type="curve" smooth="yes"/>
      <point x="332" y="760" type="line" smooth="yes"/>
      <point x="251" y="760"/>
      <point x="222" y="698"/>
      <point x="222" y="660" type="curve" smooth="yes"/>
      <point x="222" y="656" type="line" smooth="yes"/>
      <point x="222" y="648"/>
      <point x="230" y="643"/>
      <point x="337" y="611" type="curve"/>
      <point x="339" y="640"/>
      <point x="350" y="650"/>
    </contour>
    <contour>
      <point x="399" y="444" type="curve" smooth="yes"/>
      <point x="399" y="529"/>
      <point x="338" y="559"/>
      <point x="338" y="602" type="curve" smooth="yes"/>
      <point x="338" y="610"/>
      <point x="338" y="655"/>
      <point x="338" y="675" type="curve"/>
      <point x="226" y="670"/>
      <point x="222" y="666"/>
      <point x="222" y="660" type="curve" smooth="yes"/>
      <point x="222" y="615" type="line" smooth="yes"/>
      <point x="222" y="528"/>
      <point x="284" y="508"/>
      <point x="284" y="445" type="curve" smooth="yes"/>
      <point x="284" y="387"/>
      <point x="220" y="355"/>
      <point x="107" y="355" type="curve" smooth="yes"/>
      <point x="75" y="355" type="line"/>
      <point x="75" y="283" type="line" smooth="yes"/>
      <point x="75" y="275"/>
      <point x="81" y="270"/>
      <point x="89" y="270" type="curve" smooth="yes"/>
      <point x="107" y="270" type="line" smooth="yes"/>
      <point x="313" y="270"/>
      <point x="399" y="347"/>
    </contour>
    <contour>
      <point x="399" y="154" type="curve" smooth="yes"/>
      <point x="399" y="255"/>
      <point x="315" y="330"/>
      <point x="107" y="330" type="curve" smooth="yes"/>
      <point x="96" y="330"/>
      <point x="86" y="330"/>
      <point x="75" y="330" type="curve"/>
      <point x="75" y="256" type="line" smooth="yes"/>
      <point x="75" y="249"/>
      <point x="79" y="245"/>
      <point x="86" y="245" type="curve" smooth="yes"/>
      <point x="107" y="245" type="line" smooth="yes"/>
      <point x="220" y="245"/>
      <point x="284" y="210"/>
      <point x="284" y="154" type="curve" smooth="yes"/>
      <point x="284" y="90"/>
      <point x="222" y="71"/>
      <point x="222" y="-16" type="curve" smooth="yes"/>
      <point x="222" y="-61" type="line" smooth="yes"/>
      <point x="222" y="-67"/>
      <point x="227" y="-71"/>
      <point x="338" y="-75" type="curve"/>
      <point x="338" y="-51"/>
      <point x="338" y="-27"/>
      <point x="338" y="-3" type="curve" smooth="yes"/>
      <point x="338" y="41"/>
      <point x="399" y="70"/>
    </contour>
    <contour>
      <point x="378" y="-51" type="curve" smooth="yes"/>
      <point x="350" y="-51"/>
      <point x="339" y="-41"/>
      <point x="337" y="-12" type="curve"/>
      <point x="231" y="-44"/>
      <point x="222" y="-49"/>
      <point x="222" y="-57" type="curve" smooth="yes"/>
      <point x="222" y="-61" type="line" smooth="yes"/>
      <point x="222" y="-99"/>
      <point x="250" y="-161"/>
      <point x="332" y="-161" type="curve" smooth="yes"/>
      <point x="506" y="-161" type="line" smooth="yes"/>
      <point x="513" y="-161"/>
      <point x="517" y="-157"/>
      <point x="517" y="-150" type="curve"/>
      <point x="517" y="-51" type="line"/>
      <point x="497" y="-51" type="line"/>
      <point x="441" y="-51"/>
      <point x="443" y="-51"/>
    </contour>
  </outline>
</glyph>
<glyph name="bar" format="1">
  <advance width="600"/>
  <unicode hex="007C"/>
  <outline>
    <contour>
      <point x="239" y="760" type="curve"/>
      <point x="239" y="725"/>
      <point x="239" y="691"/>
      <point x="239" y="656" type="curve" smooth="yes"/>
      <point x="239" y="-149" type="line" smooth="yes"/>
      <point x="239" y="-155"/>
      <point x="244" y="-160"/>
      <point x="250" y="-160" type="curve" smooth="yes"/>
      <point x="287" y="-160"/>
      <point x="324" y="-160"/>
      <point x="361" y="-160" type="curve"/>
      <point x="361" y="749" type="line" smooth="yes"/>
      <point x="361" y="752"/>
      <point x="360" y="755"/>
      <point x="358" y="757" type="curve" smooth="yes"/>
      <point x="356" y="759"/>
      <point x="353" y="760"/>
      <point x="350" y="760" type="curve" smooth="yes"/>
      <point x="313" y="760"/>
      <point x="276" y="760"/>
    </contour>
  </outline>
</glyph>
<glyph name="braceright" format="1">
  <advance width="600"/>
  <unicode hex="007D"/>
  <outline>
    <contour>
      <point x="222" y="-51" type="curve" smooth="yes"/>
      <point x="157" y="-51"/>
      <point x="159" y="-51"/>
      <point x="103" y="-51" type="curve"/>
      <point x="83" y="-51" type="line"/>
      <point x="83" y="-84"/>
      <point x="83" y="-117"/>
      <point x="83" y="-150" type="curve"/>
      <point x="83" y="-157"/>
      <point x="87" y="-161"/>
      <point x="94" y="-161" type="curve" smooth="yes"/>
      <point x="268" y="-161" type="line" smooth="yes"/>
      <point x="349" y="-161"/>
      <point x="378" y="-99"/>
      <point x="378" y="-61" type="curve" smooth="yes"/>
      <point x="378" y="-57" type="line" smooth="yes"/>
      <point x="378" y="-49"/>
      <point x="370" y="-44"/>
      <point x="263" y="-12" type="curve"/>
      <point x="261" y="-41"/>
      <point x="250" y="-51"/>
    </contour>
    <contour>
      <point x="201" y="155" type="curve" smooth="yes"/>
      <point x="201" y="70"/>
      <point x="262" y="40"/>
      <point x="262" y="-3" type="curve" smooth="yes"/>
      <point x="262" y="-11"/>
      <point x="262" y="-56"/>
      <point x="262" y="-76" type="curve"/>
      <point x="374" y="-71"/>
      <point x="378" y="-67"/>
      <point x="378" y="-61" type="curve" smooth="yes"/>
      <point x="378" y="-16" type="line" smooth="yes"/>
      <point x="378" y="71"/>
      <point x="316" y="91"/>
      <point x="316" y="154" type="curve" smooth="yes"/>
      <point x="316" y="212"/>
      <point x="380" y="244"/>
      <point x="493" y="244" type="curve" smooth="yes"/>
      <point x="525" y="244" type="line"/>
      <point x="525" y="316" type="line" smooth="yes"/>
      <point x="525" y="324"/>
      <point x="519" y="329"/>
      <point x="511" y="329" type="curve" smooth="yes"/>
      <point x="493" y="329" type="line" smooth="yes"/>
      <point x="287" y="329"/>
      <point x="201" y="252"/>
    </contour>
    <contour>
      <point x="201" y="445" type="curve" smooth="yes"/>
      <point x="201" y="344"/>
      <point x="285" y="269"/>
      <point x="493" y="269" type="curve" smooth="yes"/>
      <point x="504" y="269"/>
      <point x="514" y="269"/>
      <point x="525" y="269" type="curve"/>
      <point x="525" y="343" type="line" smooth="yes"/>
      <point x="525" y="350"/>
      <point x="521" y="354"/>
      <point x="514" y="354" type="curve" smooth="yes"/>
      <point x="493" y="354" type="line" smooth="yes"/>
      <point x="380" y="354"/>
      <point x="316" y="389"/>
      <point x="316" y="445" type="curve" smooth="yes"/>
      <point x="316" y="509"/>
      <point x="378" y="528"/>
      <point x="378" y="615" type="curve" smooth="yes"/>
      <point x="378" y="660" type="line" smooth="yes"/>
      <point x="378" y="666"/>
      <point x="373" y="670"/>
      <point x="262" y="674" type="curve"/>
      <point x="262" y="650"/>
      <point x="262" y="626"/>
      <point x="262" y="602" type="curve" smooth="yes"/>
      <point x="262" y="558"/>
      <point x="201" y="529"/>
    </contour>
    <contour>
      <point x="222" y="650" type="curve" smooth="yes"/>
      <point x="250" y="650"/>
      <point x="261" y="640"/>
      <point x="263" y="611" type="curve"/>
      <point x="369" y="643"/>
      <point x="378" y="648"/>
      <point x="378" y="656" type="curve" smooth="yes"/>
      <point x="378" y="660" type="line" smooth="yes"/>
      <point x="378" y="698"/>
      <point x="350" y="760"/>
      <point x="268" y="760" type="curve" smooth="yes"/>
      <point x="94" y="760" type="line" smooth="yes"/>
      <point x="87" y="760"/>
      <point x="83" y="756"/>
      <point x="83" y="749" type="curve"/>
      <point x="83" y="650" type="line"/>
      <point x="103" y="650" type="line"/>
      <point x="159" y="650"/>
      <point x="157" y="650"/>
    </contour>
  </outline>
</glyph>
<glyph name="exclamdown" format="1">
  <advance width="600"/>
  <unicode hex="00A1"/>
  <outline>
    <contour>
      <point x="257" y="262" type="line"/>
      <point x="247" y="186"/>
      <point x="238" y="110"/>
      <point x="229" y="33" type="curve"/>
      <point x="229" y="-154" type="line" smooth="yes"/>
      <point x="229" y="-161"/>
      <point x="234" y="-165"/>
      <point x="240" y="-165" type="curve" smooth="yes"/>
      <point x="294" y="-165"/>
      <point x="337" y="-165"/>
      <point x="371" y="-165" type="curve"/>
      <point x="371" y="-127"/>
      <point x="371" y="-92"/>
      <point x="371" y="-55" type="curve" smooth="yes"/>
      <point x="371" y="33" type="line"/>
      <point x="346" y="252"/>
      <point x="345" y="255"/>
      <point x="341" y="259" type="curve" smooth="yes"/>
      <point x="339" y="261"/>
      <point x="337" y="262"/>
      <point x="333" y="262" type="curve"/>
    </contour>
    <contour>
      <point x="213" y="543" type="curve"/>
      <point x="213" y="382" type="line" smooth="yes"/>
      <point x="213" y="376"/>
      <point x="218" y="371"/>
      <point x="224" y="371" type="curve" smooth="yes"/>
      <point x="276" y="371"/>
      <point x="335" y="371"/>
      <point x="387" y="371" type="curve"/>
      <point x="387" y="532" type="line" smooth="yes"/>
      <point x="387" y="538"/>
      <point x="382" y="543"/>
      <point x="376" y="543" type="curve" smooth="yes"/>
      <point x="324" y="543"/>
      <point x="265" y="543"/>
    </contour>
  </outline>
</glyph>
<glyph name="cent" format="1">
  <advance width="600"/>
  <unicode hex="00A2"/>
  <outline>
    <contour>
      <point x="381" y="390" type="line"/>
      <point x="429" y="761" type="line" smooth="yes"/>
      <point x="430" y="770"/>
      <point x="425" y="774"/>
      <point x="419" y="774" type="curve" smooth="yes"/>
      <point x="377" y="774"/>
      <point x="359" y="774"/>
      <point x="316" y="774" type="curve"/>
      <point x="316" y="742"/>
      <point x="316" y="711"/>
      <point x="316" y="680" type="curve"/>
      <point x="316" y="418" type="line" smooth="yes"/>
      <point x="316" y="410"/>
      <point x="319" y="405"/>
      <point x="326" y="403" type="curve" smooth="yes"/>
    </contour>
    <contour>
      <point x="316" y="309" type="line"/>
      <point x="267" y="-62" type="line" smooth="yes"/>
      <point x="266" y="-71"/>
      <point x="271" y="-75"/>
      <point x="277" y="-75" type="curve" smooth="yes"/>
      <point x="320" y="-75"/>
      <point x="338" y="-75"/>
      <point x="381" y="-75" type="curve"/>
      <point x="381" y="-44"/>
      <point x="381" y="-12"/>
      <point x="381" y="19" type="curve"/>
      <point x="381" y="281" type="line" smooth="yes"/>
      <point x="381" y="289"/>
      <point x="378" y="294"/>
      <point x="371" y="295" type="curve" smooth="yes"/>
    </contour>
    <contour>
      <point x="343" y="630" type="curve" smooth="yes"/>
      <point x="185" y="630"/>
      <point x="77" y="535"/>
      <point x="77" y="386" type="curve" smooth="yes"/>
      <point x="77" y="311" type="line" smooth="yes"/>
      <point x="77" y="158"/>
      <point x="169" y="72"/>
      <point x="342" y="72" type="curve" smooth="yes"/>
      <point x="357" y="72"/>
      <point x="361" y="92"/>
      <point x="339" y="186" type="curve"/>
      <point x="239" y="186"/>
      <point x="196" y="230"/>
      <point x="196" y="319" type="curve" smooth="yes"/>
      <point x="196" y="382" type="line" smooth="yes"/>
      <point x="196" y="477"/>
      <point x="251" y="515"/>
      <point x="341" y="515" type="curve" smooth="yes"/>
      <point x="400" y="515"/>
      <point x="446" y="501"/>
      <point x="495" y="478" type="curve"/>
      <point x="512" y="478" type="line"/>
      <point x="512" y="510"/>
      <point x="512" y="543"/>
      <point x="512" y="579" type="curve" smooth="yes"/>
      <point x="512" y="582"/>
      <point x="511" y="585"/>
      <point x="508" y="588" type="curve" smooth="yes"/>
      <point x="493" y="604"/>
      <point x="435" y="630"/>
    </contour>
    <contour>
      <point x="154" y="255" type="curve"/>
      <point x="132" y="137"/>
      <point x="203" y="72"/>
      <point x="342" y="72" type="curve" smooth="yes"/>
      <point x="428" y="72"/>
      <point x="491" y="94"/>
      <point x="509" y="112" type="curve" smooth="yes"/>
      <point x="511" y="114"/>
      <point x="512" y="117"/>
      <point x="512" y="120" type="curve"/>
      <point x="512" y="154"/>
      <point x="512" y="188"/>
      <point x="512" y="222" type="curve"/>
      <point x="495" y="222" type="line"/>
      <point x="445" y="199"/>
      <point x="400" y="186"/>
      <point x="339" y="186" type="curve" smooth="yes"/>
      <point x="256" y="186"/>
      <point x="204" y="210"/>
    </contour>
  </outline>
</glyph>
<glyph name="sterling" format="1">
  <advance width="600"/>
  <unicode hex="00A3"/>
  <outline>
    <contour>
      <point x="375" y="605" type="curve" smooth="yes"/>
      <point x="428" y="605"/>
      <point x="462" y="594"/>
      <point x="508" y="569" type="curve"/>
      <point x="525" y="569" type="line"/>
      <point x="525" y="594"/>
      <point x="525" y="630"/>
      <point x="525" y="672" type="curve" smooth="yes"/>
      <point x="525" y="676"/>
      <point x="524" y="678"/>
      <point x="522" y="680" type="curve" smooth="yes"/>
      <point x="506" y="696"/>
      <point x="452" y="720"/>
      <point x="374" y="720" type="curve" smooth="yes"/>
      <point x="229" y="720"/>
      <point x="147" y="644"/>
      <point x="147" y="538" type="curve" smooth="yes"/>
      <point x="147" y="515" type="line" smooth="yes"/>
      <point x="147" y="502"/>
      <point x="156" y="499"/>
      <point x="263" y="515" type="curve"/>
      <point x="263" y="579"/>
      <point x="297" y="605"/>
    </contour>
    <contour>
      <point x="147" y="515" type="curve" smooth="yes"/>
      <point x="147" y="406"/>
      <point x="147" y="317"/>
      <point x="147" y="201" type="curve" smooth="yes"/>
      <point x="147" y="141"/>
      <point x="113" y="108"/>
      <point x="64" y="108" type="curve" smooth="yes"/>
      <point x="59" y="108"/>
      <point x="53" y="108"/>
      <point x="47" y="108" type="curve"/>
      <point x="43" y="108" type="line"/>
      <point x="43" y="75"/>
      <point x="43" y="50"/>
      <point x="43" y="11" type="curve" smooth="yes"/>
      <point x="43" y="3"/>
      <point x="47" y="0"/>
      <point x="54" y="0" type="curve" smooth="yes"/>
      <point x="59" y="0" type="line" smooth="yes"/>
      <point x="175" y="0"/>
      <point x="263" y="60"/>
      <point x="263" y="219" type="curve" smooth="yes"/>
      <point x="263" y="322"/>
      <point x="263" y="417"/>
      <point x="263" y="515" type="curve" smooth="yes"/>
      <point x="263" y="549"/>
      <point x="263" y="580"/>
      <point x="263" y="611" type="curve"/>
      <point x="198" y="611"/>
      <point x="147" y="576"/>
    </contour>
    <contour>
      <point x="59" y="0" type="curve"/>
      <point x="235" y="0"/>
      <point x="338" y="0"/>
      <point x="471" y="0" type="curve" smooth="yes"/>
      <point x="536" y="0" type="line" smooth="yes"/>
      <point x="544" y="0"/>
      <point x="547" y="3"/>
      <point x="547" y="11" type="curve"/>
      <point x="547" y="44"/>
      <point x="547" y="75"/>
      <point x="547" y="108" type="curve"/>
      <point x="527" y="108" type="line"/>
      <point x="502" y="108"/>
      <point x="483" y="108"/>
      <point x="451" y="108" type="curve" smooth="yes"/>
      <point x="353" y="108"/>
      <point x="280" y="108"/>
      <point x="129" y="108" type="curve"/>
      <point x="51" y="7"/>
      <point x="54" y="0"/>
    </contour>
    <contour>
      <point x="63" y="396" type="line"/>
      <point x="63" y="362"/>
      <point x="63" y="354"/>
      <point x="63" y="320" type="curve" smooth="yes"/>
      <point x="63" y="317"/>
      <point x="64" y="314"/>
      <point x="66" y="312" type="curve" smooth="yes"/>
      <point x="68" y="310"/>
      <point x="71" y="309"/>
      <point x="74" y="309" type="curve" smooth="yes"/>
      <point x="450" y="309" type="line"/>
      <point x="450" y="343"/>
      <point x="450" y="351"/>
      <point x="450" y="385" type="curve" smooth="yes"/>
      <point x="450" y="391"/>
      <point x="445" y="396"/>
      <point x="439" y="396" type="curve" smooth="yes"/>
    </contour>
  </outline>
</glyph>
<glyph name="currency" format="1">
  <advance width="600"/>
  <unicode hex="00A4"/>
  <outline>
    <contour>
      <point x="243" y="423" type="curve"/>
      <point x="214" y="451"/>
      <point x="180" y="485"/>
      <point x="151" y="515" type="curve" smooth="yes"/>
      <point x="149" y="517"/>
      <point x="147" y="518"/>
      <point x="145" y="518" type="curve" smooth="yes"/>
      <point x="143" y="518"/>
      <point x="141" y="517"/>
      <point x="139" y="515" type="curve" smooth="yes"/>
      <point x="118" y="494"/>
      <point x="95" y="471"/>
      <point x="78" y="454" type="curve"/>
      <point x="107" y="426"/>
      <point x="142" y="391"/>
      <point x="170" y="362" type="curve" smooth="yes"/>
      <point x="174" y="358"/>
      <point x="178" y="358"/>
      <point x="182" y="362" type="curve" smooth="yes"/>
      <point x="201" y="381"/>
      <point x="225" y="405"/>
    </contour>
    <contour>
      <point x="355" y="423" type="curve"/>
      <point x="363" y="415"/>
      <point x="407" y="371"/>
      <point x="416" y="362" type="curve" smooth="yes"/>
      <point x="420" y="358"/>
      <point x="424" y="358"/>
      <point x="428" y="362" type="curve" smooth="yes"/>
      <point x="456" y="391"/>
      <point x="491" y="426"/>
      <point x="520" y="454" type="curve"/>
      <point x="500" y="474"/>
      <point x="480" y="494"/>
      <point x="459" y="515" type="curve" smooth="yes"/>
      <point x="457" y="517"/>
      <point x="455" y="518"/>
      <point x="453" y="518" type="curve" smooth="yes"/>
      <point x="451" y="518"/>
      <point x="449" y="517"/>
      <point x="447" y="515" type="curve" smooth="yes"/>
      <point x="418" y="485"/>
      <point x="384" y="451"/>
    </contour>
    <contour>
      <point x="355" y="176" type="curve"/>
      <point x="384" y="147"/>
      <point x="418" y="114"/>
      <point x="447" y="84" type="curve" smooth="yes"/>
      <point x="449" y="82"/>
      <point x="451" y="81"/>
      <point x="453" y="81" type="curve" smooth="yes"/>
      <point x="455" y="81"/>
      <point x="457" y="82"/>
      <point x="459" y="84" type="curve" smooth="yes"/>
      <point x="481" y="105"/>
      <point x="503" y="128"/>
      <point x="520" y="144" type="curve"/>
      <point x="491" y="173"/>
      <point x="456" y="208"/>
      <point x="428" y="237" type="curve" smooth="yes"/>
      <point x="424" y="241"/>
      <point x="420" y="241"/>
      <point x="416" y="237" type="curve" smooth="yes"/>
      <point x="396" y="217"/>
      <point x="373" y="194"/>
    </contour>
    <contour>
      <point x="243" y="176" type="curve"/>
      <point x="235" y="184"/>
      <point x="191" y="228"/>
      <point x="182" y="237" type="curve" smooth="yes"/>
      <point x="178" y="241"/>
      <point x="174" y="241"/>
      <point x="170" y="237" type="curve" smooth="yes"/>
      <point x="142" y="208"/>
      <point x="107" y="173"/>
      <point x="78" y="144" type="curve"/>
      <point x="98" y="124"/>
      <point x="118" y="105"/>
      <point x="139" y="84" type="curve" smooth="yes"/>
      <point x="141" y="82"/>
      <point x="143" y="81"/>
      <point x="145" y="81" type="curve" smooth="yes"/>
      <point x="147" y="81"/>
      <point x="149" y="82"/>
      <point x="151" y="84" type="curve" smooth="yes"/>
      <point x="180" y="114"/>
      <point x="214" y="147"/>
    </contour>
    <contour>
      <point x="300" y="208" type="curve"/>
      <point x="243" y="208"/>
      <point x="212" y="235"/>
      <point x="212" y="280" type="curve" smooth="yes"/>
      <point x="212" y="322" type="line" smooth="yes"/>
      <point x="212" y="367"/>
      <point x="245" y="393"/>
      <point x="300" y="393" type="curve" smooth="yes"/>
      <point x="336" y="393"/>
      <point x="354" y="391"/>
      <point x="378" y="384" type="curve"/>
      <point x="384" y="434"/>
      <point x="363" y="473"/>
      <point x="300" y="473" type="curve"/>
      <point x="196" y="473"/>
      <point x="129" y="417"/>
      <point x="129" y="328" type="curve" smooth="yes"/>
      <point x="129" y="274" type="line" smooth="yes"/>
      <point x="129" y="184"/>
      <point x="196" y="128"/>
      <point x="300" y="128" type="curve"/>
      <point x="309" y="128"/>
      <point x="309" y="177"/>
    </contour>
    <contour>
      <point x="300" y="393" type="curve"/>
      <point x="357" y="393"/>
      <point x="388" y="367"/>
      <point x="388" y="322" type="curve" smooth="yes"/>
      <point x="388" y="280" type="line" smooth="yes"/>
      <point x="388" y="235"/>
      <point x="355" y="208"/>
      <point x="300" y="208" type="curve" smooth="yes"/>
      <point x="264" y="208"/>
      <point x="247" y="210"/>
      <point x="222" y="217" type="curve"/>
      <point x="216" y="169"/>
      <point x="237" y="128"/>
      <point x="300" y="128" type="curve"/>
      <point x="404" y="128"/>
      <point x="471" y="184"/>
      <point x="471" y="274" type="curve" smooth="yes"/>
      <point x="471" y="328" type="line" smooth="yes"/>
      <point x="471" y="417"/>
      <point x="404" y="473"/>
      <point x="300" y="473" type="curve"/>
      <point x="287" y="473"/>
      <point x="289" y="427"/>
    </contour>
  </outline>
</glyph>
<glyph name="yen" format="1">
  <advance width="600"/>
  <unicode hex="00A5"/>
  <outline>
    <contour>
      <point x="26" y="462" type="line"/>
      <point x="26" y="428"/>
      <point x="26" y="420"/>
      <point x="26" y="386" type="curve" smooth="yes"/>
      <point x="26" y="383"/>
      <point x="27" y="380"/>
      <point x="29" y="378" type="curve" smooth="yes"/>
      <point x="31" y="376"/>
      <point x="34" y="375"/>
      <point x="37" y="375" type="curve"/>
      <point x="215" y="375" type="line"/>
      <point x="215" y="409"/>
      <point x="215" y="417"/>
      <point x="215" y="451" type="curve" smooth="yes"/>
      <point x="215" y="457"/>
      <point x="210" y="462"/>
      <point x="204" y="462" type="curve"/>
    </contour>
    <contour>
      <point x="385" y="462" type="line"/>
      <point x="385" y="428"/>
      <point x="385" y="420"/>
      <point x="385" y="386" type="curve" smooth="yes"/>
      <point x="385" y="380"/>
      <point x="390" y="375"/>
      <point x="396" y="375" type="curve"/>
      <point x="574" y="375" type="line"/>
      <point x="574" y="409"/>
      <point x="574" y="417"/>
      <point x="574" y="451" type="curve" smooth="yes"/>
      <point x="574" y="457"/>
      <point x="569" y="462"/>
      <point x="563" y="462" type="curve"/>
    </contour>
    <contour>
      <point x="574" y="139" type="line"/>
      <point x="574" y="173"/>
      <point x="574" y="181"/>
      <point x="574" y="215" type="curve" smooth="yes"/>
      <point x="574" y="218"/>
      <point x="573" y="221"/>
      <point x="571" y="223" type="curve" smooth="yes"/>
      <point x="569" y="225"/>
      <point x="566" y="226"/>
      <point x="563" y="226" type="curve"/>
      <point x="26" y="226" type="line"/>
      <point x="26" y="192"/>
      <point x="26" y="184"/>
      <point x="26" y="150" type="curve" smooth="yes"/>
      <point x="26" y="144"/>
      <point x="31" y="139"/>
      <point x="37" y="139" type="curve"/>
    </contour>
    <contour>
      <point x="24" y="700" type="line"/>
      <point x="97" y="551"/>
      <point x="172" y="403"/>
      <point x="245" y="253" type="curve"/>
      <point x="248" y="246"/>
      <point x="255" y="243"/>
      <point x="264" y="243" type="curve"/>
      <point x="310" y="243"/>
      <point x="333" y="301"/>
      <point x="322" y="331" type="curve"/>
      <point x="268" y="449"/>
      <point x="213" y="567"/>
      <point x="160" y="685" type="curve"/>
      <point x="157" y="695"/>
      <point x="152" y="700"/>
      <point x="143" y="700" type="curve" smooth="yes"/>
    </contour>
    <contour>
      <point x="447" y="700" type="line"/>
      <point x="393" y="576"/>
      <point x="339" y="454"/>
      <point x="285" y="330" type="curve"/>
      <point x="265" y="283"/>
      <point x="269" y="260"/>
      <point x="264" y="243" type="curve"/>
      <point x="350" y="243" type="line"/>
      <point x="423" y="389"/>
      <point x="497" y="536"/>
      <point x="570" y="683" type="curve"/>
      <point x="573" y="692"/>
      <point x="568" y="700"/>
      <point x="559" y="700" type="curve"/>
    </contour>
    <contour>
      <point x="361" y="0" type="curve"/>
      <point x="361" y="33"/>
      <point x="361" y="66"/>
      <point x="361" y="100" type="curve" smooth="yes"/>
      <point x="361" y="296" type="line" smooth="yes"/>
      <point x="361" y="302"/>
      <point x="356" y="307"/>
      <point x="239" y="307" type="curve"/>
      <point x="239" y="11" type="line" smooth="yes"/>
      <point x="239" y="8"/>
      <point x="240" y="5"/>
      <point x="242" y="3" type="curve" smooth="yes"/>
      <point x="244" y="1"/>
      <point x="247" y="0"/>
      <point x="250" y="0" type="curve" smooth="yes"/>
      <point x="287" y="0"/>
      <point x="324" y="0"/>
    </contour>
  </outline>
</glyph>
<glyph name="brokenbar" format="1">
  <advance width="600"/>
  <unicode hex="00A6"/>
  <outline>
    <contour>
      <point x="239" y="760" type="curve"/>
      <point x="239" y="727"/>
      <point x="239" y="694"/>
      <point x="239" y="661" type="curve" smooth="yes"/>
      <point x="239" y="380" type="line" smooth="yes"/>
      <point x="239" y="374"/>
      <point x="244" y="369"/>
      <point x="250" y="369" type="curve" smooth="yes"/>
      <point x="287" y="369"/>
      <point x="323" y="369"/>
      <point x="361" y="369" type="curve"/>
      <point x="361" y="749" type="line" smooth="yes"/>
      <point x="361" y="752"/>
      <point x="360" y="755"/>
      <point x="358" y="757" type="curve" smooth="yes"/>
      <point x="356" y="759"/>
      <point x="353" y="760"/>
      <point x="350" y="760" type="curve" smooth="yes"/>
      <point x="312" y="760"/>
      <point x="276" y="760"/>
    </contour>
    <contour>
      <point x="239" y="231" type="curve"/>
      <point x="239" y="-149" type="line"/>
      <point x="239" y="-155"/>
      <point x="244" y="-160"/>
      <point x="250" y="-160" type="curve" smooth="yes"/>
      <point x="287" y="-160"/>
      <point x="323" y="-160"/>
      <point x="361" y="-160" type="curve"/>
      <point x="361" y="220" type="line" smooth="yes"/>
      <point x="361" y="227"/>
      <point x="357" y="231"/>
      <point x="350" y="231" type="curve" smooth="yes"/>
      <point x="312" y="231"/>
      <point x="276" y="231"/>
    </contour>
  </outline>
</glyph>
<glyph name="section" format="1">
  <advance width="600"/>
  <unicode hex="00A7"/>
  <outline>
    <contour>
      <point x="318" y="719" type="curve" smooth="yes"/>
      <point x="176" y="719"/>
      <point x="75" y="636"/>
      <point x="75" y="531" type="curve" smooth="yes"/>
      <point x="75" y="486" type="line" smooth="yes"/>
      <point x="75" y="461"/>
      <point x="128" y="430"/>
      <point x="188" y="427" type="curve"/>
      <point x="188" y="451"/>
      <point x="188" y="499"/>
      <point x="188" y="524" type="curve" smooth="yes"/>
      <point x="188" y="583"/>
      <point x="237" y="612"/>
      <point x="320" y="612" type="curve" smooth="yes"/>
      <point x="377" y="612"/>
      <point x="441" y="597"/>
      <point x="480" y="572" type="curve"/>
      <point x="518" y="639"/>
      <point x="520" y="644"/>
      <point x="520" y="652" type="curve" smooth="yes"/>
      <point x="520" y="663"/>
      <point x="518" y="666"/>
      <point x="513" y="671" type="curve" smooth="yes"/>
      <point x="488" y="696"/>
      <point x="416" y="719"/>
    </contour>
    <contour>
      <point x="383" y="388" type="curve" smooth="yes"/>
      <point x="288" y="417" type="line" smooth="yes"/>
      <point x="209" y="440"/>
      <point x="188" y="459"/>
      <point x="188" y="503" type="curve" smooth="yes"/>
      <point x="188" y="524"/>
      <point x="188" y="550"/>
      <point x="188" y="568" type="curve"/>
      <point x="128" y="567"/>
      <point x="75" y="561"/>
      <point x="75" y="486" type="curve" smooth="yes"/>
      <point x="75" y="422"/>
      <point x="110" y="356"/>
      <point x="241" y="317" type="curve" smooth="yes"/>
      <point x="336" y="288" type="line" smooth="yes"/>
      <point x="413" y="265"/>
      <point x="425" y="242"/>
      <point x="425" y="201" type="curve" smooth="yes"/>
      <point x="425" y="176" type="line" smooth="yes"/>
      <point x="425" y="144"/>
      <point x="413" y="121"/>
      <point x="373" y="88" type="curve"/>
      <point x="408" y="85"/>
      <point x="431" y="84"/>
      <point x="452" y="84" type="curve" smooth="yes"/>
      <point x="494" y="84"/>
      <point x="539" y="139"/>
      <point x="539" y="195" type="curve" smooth="yes"/>
      <point x="539" y="218" type="line" smooth="yes"/>
      <point x="539" y="298"/>
      <point x="504" y="352"/>
    </contour>
    <contour>
      <point x="380" y="129" type="curve" smooth="yes"/>
      <point x="283" y="158" type="line" smooth="yes"/>
      <point x="205" y="181"/>
      <point x="188" y="202"/>
      <point x="188" y="247" type="curve" smooth="yes"/>
      <point x="188" y="269" type="line" smooth="yes"/>
      <point x="188" y="312"/>
      <point x="200" y="334"/>
      <point x="244" y="359" type="curve"/>
      <point x="200" y="361"/>
      <point x="181" y="362"/>
      <point x="166" y="362" type="curve" smooth="yes"/>
      <point x="119" y="362"/>
      <point x="75" y="307"/>
      <point x="75" y="244" type="curve" smooth="yes"/>
      <point x="75" y="223" type="line" smooth="yes"/>
      <point x="75" y="159"/>
      <point x="108" y="98"/>
      <point x="239" y="58" type="curve" smooth="yes"/>
      <point x="334" y="29" type="line" smooth="yes"/>
      <point x="410" y="6"/>
      <point x="425" y="-11"/>
      <point x="425" y="-49" type="curve" smooth="yes"/>
      <point x="425" y="-75"/>
      <point x="425" y="-103"/>
      <point x="425" y="-127" type="curve"/>
      <point x="475" y="-127"/>
      <point x="539" y="-89"/>
      <point x="539" y="-44" type="curve"/>
      <point x="539" y="39"/>
      <point x="501" y="93"/>
    </contour>
    <contour>
      <point x="286" y="-250" type="curve" smooth="yes"/>
      <point x="444" y="-250"/>
      <point x="539" y="-173"/>
      <point x="539" y="-64" type="curve" smooth="yes"/>
      <point x="539" y="-44" type="line" smooth="yes"/>
      <point x="539" y="-27"/>
      <point x="491" y="-10"/>
      <point x="425" y="-10" type="curve"/>
      <point x="425" y="-34"/>
      <point x="425" y="-40"/>
      <point x="425" y="-61" type="curve" smooth="yes"/>
      <point x="425" y="-105"/>
      <point x="383" y="-139"/>
      <point x="293" y="-139" type="curve" smooth="yes"/>
      <point x="203" y="-139"/>
      <point x="144" y="-119"/>
      <point x="83" y="-73" type="curve"/>
      <point x="66" y="-73" type="line"/>
      <point x="66" y="-95"/>
      <point x="66" y="-136"/>
      <point x="66" y="-181" type="curve" smooth="yes"/>
      <point x="66" y="-184"/>
      <point x="67" y="-187"/>
      <point x="69" y="-189" type="curve" smooth="yes"/>
      <point x="107" y="-228"/>
      <point x="191" y="-250"/>
    </contour>
    <contour>
      <point x="520" y="514" type="curve"/>
      <point x="520" y="652" type="line" smooth="yes"/>
      <point x="520" y="664"/>
      <point x="510" y="668"/>
      <point x="407" y="668" type="curve"/>
      <point x="407" y="658"/>
      <point x="407" y="644"/>
      <point x="407" y="629" type="curve" smooth="yes"/>
      <point x="407" y="525" type="line" smooth="yes"/>
      <point x="407" y="519"/>
      <point x="409" y="518"/>
      <point x="410" y="516" type="curve" smooth="yes"/>
      <point x="412" y="515"/>
      <point x="414" y="514"/>
      <point x="418" y="514" type="curve" smooth="yes"/>
      <point x="452" y="514"/>
      <point x="486" y="514"/>
    </contour>
  </outline>
</glyph>
<glyph name="copyright" format="1">
  <advance width="600"/>
  <unicode hex="00A9"/>
  <outline>
    <contour>
      <point x="300" y="715" type="curve" smooth="yes"/>
      <point x="131" y="715"/>
      <point x="16" y="616"/>
      <point x="16" y="432" type="curve" smooth="yes"/>
      <point x="16" y="271" type="line" smooth="yes"/>
      <point x="16" y="84"/>
      <point x="124" y="-15"/>
      <point x="300" y="-15" type="curve" smooth="yes"/>
      <point x="302" y="-8"/>
      <point x="316" y="19"/>
      <point x="300" y="42" type="curve"/>
      <point x="160" y="42"/>
      <point x="76" y="123"/>
      <point x="76" y="255" type="curve" smooth="yes"/>
      <point x="76" y="446" type="line" smooth="yes"/>
      <point x="76" y="577"/>
      <point x="160" y="658"/>
      <point x="300" y="658" type="curve" smooth="yes"/>
      <point x="358" y="658"/>
      <point x="395" y="653"/>
      <point x="443" y="636" type="curve"/>
      <point x="463" y="676"/>
      <point x="399" y="715"/>
    </contour>
    <contour>
      <point x="300" y="-15" type="curve" smooth="yes"/>
      <point x="469" y="-15"/>
      <point x="584" y="84"/>
      <point x="584" y="268" type="curve" smooth="yes"/>
      <point x="584" y="429" type="line" smooth="yes"/>
      <point x="584" y="616"/>
      <point x="476" y="715"/>
      <point x="300" y="715" type="curve" smooth="yes"/>
      <point x="298" y="708"/>
      <point x="284" y="681"/>
      <point x="300" y="658" type="curve"/>
      <point x="440" y="658"/>
      <point x="524" y="577"/>
      <point x="524" y="445" type="curve" smooth="yes"/>
      <point x="524" y="254" type="line" smooth="yes"/>
      <point x="524" y="123"/>
      <point x="440" y="42"/>
      <point x="300" y="42" type="curve" smooth="yes"/>
      <point x="242" y="42"/>
      <point x="205" y="47"/>
      <point x="157" y="64" type="curve"/>
      <point x="137" y="24"/>
      <point x="201" y="-15"/>
    </contour>
    <contour>
      <point x="308" y="497" type="curve" smooth="yes"/>
      <point x="346" y="497"/>
      <point x="362" y="481"/>
      <point x="380" y="455" type="curve"/>
      <point x="415" y="496"/>
      <point x="420" y="504"/>
      <point x="420" y="511" type="curve" smooth="yes"/>
      <point x="420" y="516"/>
      <point x="419" y="518"/>
      <point x="415" y="522" type="curve" smooth="yes"/>
      <point x="391" y="549"/>
      <point x="356" y="566"/>
      <point x="308" y="566" type="curve" smooth="yes"/>
      <point x="220" y="566"/>
      <point x="169" y="516"/>
      <point x="169" y="428" type="curve" smooth="yes"/>
      <point x="169" y="273" type="line" smooth="yes"/>
      <point x="169" y="244"/>
      <point x="199" y="211"/>
      <point x="245" y="211" type="curve"/>
      <point x="245" y="234"/>
      <point x="245" y="251"/>
      <point x="245" y="276" type="curve" smooth="yes"/>
      <point x="245" y="429" type="line" smooth="yes"/>
      <point x="245" y="474"/>
      <point x="265" y="497"/>
    </contour>
    <contour>
      <point x="307" y="134" type="curve" smooth="yes"/>
      <point x="353" y="134"/>
      <point x="397" y="148"/>
      <point x="416" y="173" type="curve"/>
      <point x="420" y="178"/>
      <point x="421" y="179"/>
      <point x="421" y="187" type="curve" smooth="yes"/>
      <point x="421" y="208"/>
      <point x="421" y="228"/>
      <point x="421" y="253" type="curve"/>
      <point x="411" y="253" type="line"/>
      <point x="383" y="220"/>
      <point x="355" y="206"/>
      <point x="311" y="206" type="curve" smooth="yes"/>
      <point x="264" y="206"/>
      <point x="245" y="225"/>
      <point x="245" y="276" type="curve"/>
      <point x="183" y="287"/>
      <point x="169" y="280"/>
      <point x="169" y="273" type="curve" smooth="yes"/>
      <point x="169" y="187"/>
      <point x="212" y="134"/>
    </contour>
    <contour>
      <point x="420" y="422" type="curve"/>
      <point x="420" y="511" type="line" smooth="yes"/>
      <point x="420" y="519"/>
      <point x="404" y="522"/>
      <point x="350" y="522" type="curve"/>
      <point x="350" y="515"/>
      <point x="350" y="511"/>
      <point x="350" y="506" type="curve" smooth="yes"/>
      <point x="350" y="433" type="line" smooth="yes"/>
      <point x="350" y="426"/>
      <point x="353" y="422"/>
      <point x="361" y="422" type="curve" smooth="yes"/>
      <point x="381" y="422"/>
      <point x="397" y="422"/>
    </contour>
  </outline>
</glyph>
<glyph name="ordfeminine" format="1">
  <advance width="600"/>
  <unicode hex="00AA"/>
  <outline>
    <contour>
      <point x="269" y="759" type="curve" smooth="yes"/>
      <point x="213" y="759"/>
      <point x="138" y="745"/>
      <point x="127" y="734" type="curve" smooth="yes"/>
      <point x="126" y="732"/>
      <point x="125" y="730"/>
      <point x="125" y="727" type="curve" smooth="yes"/>
      <point x="125" y="700"/>
      <point x="125" y="674"/>
      <point x="125" y="648" type="curve"/>
      <point x="139" y="648" type="line"/>
      <point x="183" y="661"/>
      <point x="224" y="667"/>
      <point x="275" y="667" type="curve" smooth="yes"/>
      <point x="347" y="667"/>
      <point x="373" y="649"/>
      <point x="373" y="585" type="curve"/>
      <point x="461" y="561"/>
      <point x="472" y="564"/>
      <point x="472" y="577" type="curve"/>
      <point x="472" y="708"/>
      <point x="413" y="759"/>
    </contour>
    <contour>
      <point x="365" y="676" type="curve"/>
      <point x="371" y="651"/>
      <point x="373" y="630"/>
      <point x="373" y="595" type="curve" smooth="yes"/>
      <point x="373" y="526"/>
      <point x="373" y="470"/>
      <point x="373" y="396" type="curve" smooth="yes"/>
      <point x="373" y="358"/>
      <point x="424" y="323"/>
      <point x="481" y="328" type="curve"/>
      <point x="474" y="348"/>
      <point x="472" y="367"/>
      <point x="472" y="398" type="curve" smooth="yes"/>
      <point x="472" y="460"/>
      <point x="472" y="491"/>
      <point x="472" y="577" type="curve" smooth="yes"/>
      <point x="472" y="637"/>
      <point x="448" y="678"/>
    </contour>
    <contour>
      <point x="524" y="385" type="line"/>
      <point x="511" y="385" type="line"/>
      <point x="507" y="385"/>
      <point x="506" y="385"/>
      <point x="501" y="385" type="curve" smooth="yes"/>
      <point x="483" y="385"/>
      <point x="473" y="396"/>
      <point x="472" y="423" type="curve"/>
      <point x="381" y="423"/>
      <point x="373" y="410"/>
      <point x="373" y="396" type="curve" smooth="yes"/>
      <point x="373" y="337"/>
      <point x="419" y="293"/>
      <point x="492" y="293" type="curve" smooth="yes"/>
      <point x="515" y="293" type="line" smooth="yes"/>
      <point x="521" y="293"/>
      <point x="524" y="296"/>
      <point x="524" y="302" type="curve"/>
    </contour>
    <contour>
      <point x="198" y="424" type="curve" smooth="yes"/>
      <point x="198" y="445" type="line" smooth="yes"/>
      <point x="198" y="475"/>
      <point x="200" y="496"/>
      <point x="208" y="517" type="curve"/>
      <point x="151" y="521"/>
      <point x="101" y="486"/>
      <point x="101" y="440" type="curve" smooth="yes"/>
      <point x="101" y="413" type="line" smooth="yes"/>
      <point x="101" y="339"/>
      <point x="151" y="293"/>
      <point x="231" y="293" type="curve" smooth="yes"/>
      <point x="299" y="293"/>
      <point x="354" y="326"/>
      <point x="393" y="382" type="curve" smooth="yes"/>
      <point x="400" y="392"/>
      <point x="402" y="411"/>
      <point x="397" y="452" type="curve"/>
      <point x="349" y="399"/>
      <point x="312" y="381"/>
      <point x="251" y="381" type="curve" smooth="yes"/>
      <point x="247" y="381" type="line" smooth="yes"/>
      <point x="214" y="381"/>
      <point x="198" y="397"/>
    </contour>
    <contour>
      <point x="390" y="539" type="curve" smooth="yes"/>
      <point x="372" y="552"/>
      <point x="313" y="563"/>
      <point x="236" y="563" type="curve" smooth="yes"/>
      <point x="155" y="563"/>
      <point x="101" y="512"/>
      <point x="101" y="440" type="curve" smooth="yes"/>
      <point x="101" y="433"/>
      <point x="110" y="425"/>
      <point x="198" y="445" type="curve"/>
      <point x="198" y="470"/>
      <point x="213" y="492"/>
      <point x="252" y="492" type="curve" smooth="yes"/>
      <point x="308" y="492"/>
      <point x="370" y="490"/>
      <point x="408" y="486" type="curve"/>
      <point x="408" y="508"/>
      <point x="404" y="528"/>
    </contour>
  </outline>
</glyph>
<glyph name="registered" format="1">
  <advance width="600"/>
  <unicode hex="00AE"/>
  <outline>
    <contour>
      <point x="259" y="327" type="curve"/>
      <point x="259" y="353"/>
      <point x="259" y="378"/>
      <point x="259" y="404" type="curve"/>
      <point x="259" y="602" type="line"/>
      <point x="259" y="603"/>
      <point x="259" y="608"/>
      <point x="191" y="608" type="curve"/>
      <point x="191" y="338" type="line" smooth="yes"/>
      <point x="191" y="331"/>
      <point x="195" y="327"/>
      <point x="202" y="327" type="curve" smooth="yes"/>
      <point x="221" y="327"/>
      <point x="240" y="327"/>
    </contour>
    <contour>
      <point x="170" y="635" type="curve"/>
      <point x="170" y="618"/>
      <point x="170" y="603"/>
      <point x="170" y="586" type="curve"/>
      <point x="170" y="579"/>
      <point x="174" y="575"/>
      <point x="181" y="575" type="curve"/>
      <point x="187" y="575"/>
      <point x="197" y="575"/>
      <point x="203" y="575" type="curve" smooth="yes"/>
      <point x="240" y="575"/>
      <point x="288" y="575"/>
      <point x="325" y="575" type="curve" smooth="yes"/>
      <point x="359" y="575"/>
      <point x="375" y="575"/>
      <point x="394" y="575" type="curve"/>
      <point x="394" y="612"/>
      <point x="367" y="635"/>
      <point x="324" y="635" type="curve" smooth="yes"/>
      <point x="279" y="635"/>
      <point x="214" y="635"/>
    </contour>
    <contour>
      <point x="425" y="515" type="curve" smooth="yes"/>
      <point x="425" y="548" type="line" smooth="yes"/>
      <point x="425" y="603"/>
      <point x="392" y="635"/>
      <point x="324" y="635" type="curve"/>
      <point x="316" y="635"/>
      <point x="313" y="630"/>
      <point x="325" y="575" type="curve"/>
      <point x="348" y="575"/>
      <point x="358" y="566"/>
      <point x="358" y="545" type="curve" smooth="yes"/>
      <point x="358" y="518" type="line" smooth="yes"/>
      <point x="358" y="500"/>
      <point x="344" y="488"/>
      <point x="325" y="488" type="curve" smooth="yes"/>
      <point x="303" y="488"/>
      <point x="250" y="488"/>
      <point x="234" y="488" type="curve"/>
      <point x="234" y="471"/>
      <point x="234" y="456"/>
      <point x="234" y="435" type="curve" smooth="yes"/>
      <point x="234" y="432"/>
      <point x="237" y="429"/>
      <point x="240" y="429" type="curve" smooth="yes"/>
      <point x="338" y="429" type="line" smooth="yes"/>
      <point x="393" y="429"/>
      <point x="425" y="465"/>
    </contour>
    <contour>
      <point x="358" y="473" type="line"/>
      <point x="316" y="471"/>
      <point x="301" y="450"/>
      <point x="305" y="438" type="curve" smooth="yes"/>
      <point x="331" y="369" type="line" smooth="yes"/>
      <point x="345" y="334"/>
      <point x="365" y="324"/>
      <point x="405" y="324" type="curve" smooth="yes"/>
      <point x="415" y="324" type="line" smooth="yes"/>
      <point x="423" y="324"/>
      <point x="426" y="328"/>
      <point x="426" y="335" type="curve"/>
      <point x="426" y="349"/>
      <point x="426" y="371"/>
      <point x="426" y="389" type="curve"/>
      <point x="423" y="389" type="line"/>
      <point x="415" y="389"/>
      <point x="414" y="389"/>
      <point x="406" y="389" type="curve"/>
      <point x="394" y="389"/>
      <point x="391" y="391"/>
      <point x="387" y="401" type="curve" smooth="yes"/>
    </contour>
    <contour>
      <point x="300" y="760" type="curve" smooth="yes"/>
      <point x="142" y="760"/>
      <point x="46" y="684"/>
      <point x="46" y="544" type="curve" smooth="yes"/>
      <point x="46" y="417" type="line" smooth="yes"/>
      <point x="46" y="276"/>
      <point x="141" y="201"/>
      <point x="300" y="201" type="curve" smooth="yes"/>
      <point x="302" y="207"/>
      <point x="311" y="222"/>
      <point x="300" y="258" type="curve"/>
      <point x="172" y="258"/>
      <point x="106" y="315"/>
      <point x="106" y="407" type="curve" smooth="yes"/>
      <point x="106" y="552" type="line" smooth="yes"/>
      <point x="106" y="646"/>
      <point x="172" y="703"/>
      <point x="300" y="703" type="curve" smooth="yes"/>
      <point x="344" y="703"/>
      <point x="373" y="703"/>
      <point x="410" y="703" type="curve"/>
      <point x="410" y="735"/>
      <point x="378" y="760"/>
    </contour>
    <contour>
      <point x="300" y="201" type="curve" smooth="yes"/>
      <point x="462" y="201"/>
      <point x="554" y="275"/>
      <point x="554" y="413" type="curve" smooth="yes"/>
      <point x="554" y="541" type="line" smooth="yes"/>
      <point x="554" y="683"/>
      <point x="463" y="760"/>
      <point x="300" y="760" type="curve" smooth="yes"/>
      <point x="298" y="753"/>
      <point x="288" y="739"/>
      <point x="300" y="703" type="curve"/>
      <point x="432" y="703"/>
      <point x="494" y="645"/>
      <point x="494" y="550" type="curve" smooth="yes"/>
      <point x="494" y="406" type="line" smooth="yes"/>
      <point x="494" y="314"/>
      <point x="432" y="258"/>
      <point x="300" y="258" type="curve" smooth="yes"/>
      <point x="256" y="258"/>
      <point x="227" y="258"/>
      <point x="190" y="258" type="curve"/>
      <point x="190" y="226"/>
      <point x="222" y="201"/>
    </contour>
  </outline>
</glyph>
<glyph name="degree" format="1">
  <advance width="600"/>
  <unicode hex="00B0"/>
  <outline>
    <contour>
      <point x="300" y="445" type="curve"/>
      <point x="243" y="445"/>
      <point x="212" y="472"/>
      <point x="212" y="516" type="curve" smooth="yes"/>
      <point x="212" y="558" type="line" smooth="yes"/>
      <point x="212" y="604"/>
      <point x="245" y="630"/>
      <point x="300" y="630" type="curve" smooth="yes"/>
      <point x="336" y="630"/>
      <point x="354" y="628"/>
      <point x="378" y="621" type="curve"/>
      <point x="384" y="670"/>
      <point x="363" y="710"/>
      <point x="300" y="710" type="curve"/>
      <point x="196" y="710"/>
      <point x="129" y="654"/>
      <point x="129" y="565" type="curve" smooth="yes"/>
      <point x="129" y="511" type="line" smooth="yes"/>
      <point x="129" y="421"/>
      <point x="196" y="365"/>
      <point x="300" y="365" type="curve"/>
      <point x="309" y="365"/>
      <point x="309" y="414"/>
    </contour>
    <contour>
      <point x="300" y="630" type="curve"/>
      <point x="357" y="630"/>
      <point x="388" y="604"/>
      <point x="388" y="558" type="curve" smooth="yes"/>
      <point x="388" y="516" type="line" smooth="yes"/>
      <point x="388" y="472"/>
      <point x="355" y="445"/>
      <point x="300" y="445" type="curve" smooth="yes"/>
      <point x="264" y="445"/>
      <point x="247" y="447"/>
      <point x="222" y="454" type="curve"/>
      <point x="216" y="406"/>
      <point x="237" y="365"/>
      <point x="300" y="365" type="curve"/>
      <point x="404" y="365"/>
      <point x="471" y="421"/>
      <point x="471" y="511" type="curve" smooth="yes"/>
      <point x="471" y="565" type="line" smooth="yes"/>
      <point x="471" y="654"/>
      <point x="404" y="710"/>
      <point x="300" y="710" type="curve"/>
      <point x="287" y="710"/>
      <point x="289" y="663"/>
    </contour>
  </outline>
</glyph>
<glyph name="plusminus" format="1">
  <advance width="600"/>
  <unicode hex="00B1"/>
  <outline>
    <contour>
      <point x="65" y="440" type="line"/>
      <point x="65" y="405"/>
      <point x="65" y="379"/>
      <point x="65" y="344" type="curve" smooth="yes"/>
      <point x="65" y="341"/>
      <point x="66" y="338"/>
      <point x="68" y="336" type="curve" smooth="yes"/>
      <point x="70" y="334"/>
      <point x="73" y="333"/>
      <point x="76" y="333" type="curve"/>
      <point x="535" y="333" type="line"/>
      <point x="535" y="368"/>
      <point x="535" y="394"/>
      <point x="535" y="429" type="curve" smooth="yes"/>
      <point x="535" y="435"/>
      <point x="530" y="440"/>
      <point x="524" y="440" type="curve"/>
    </contour>
    <contour>
      <point x="358" y="226" type="curve"/>
      <point x="358" y="536" type="line" smooth="yes"/>
      <point x="358" y="539"/>
      <point x="357" y="542"/>
      <point x="355" y="544" type="curve" smooth="yes"/>
      <point x="353" y="546"/>
      <point x="350" y="547"/>
      <point x="347" y="547" type="curve" smooth="yes"/>
      <point x="313" y="547"/>
      <point x="283" y="547"/>
      <point x="242" y="547" type="curve"/>
      <point x="242" y="518"/>
      <point x="242" y="484"/>
      <point x="242" y="448" type="curve" smooth="yes"/>
      <point x="242" y="237" type="line" smooth="yes"/>
      <point x="242" y="231"/>
      <point x="247" y="226"/>
      <point x="253" y="226" type="curve" smooth="yes"/>
      <point x="290" y="226"/>
      <point x="321" y="226"/>
    </contour>
    <contour>
      <point x="65" y="160" type="line"/>
      <point x="65" y="125"/>
      <point x="65" y="99"/>
      <point x="65" y="64" type="curve" smooth="yes"/>
      <point x="65" y="61"/>
      <point x="66" y="58"/>
      <point x="68" y="56" type="curve" smooth="yes"/>
      <point x="70" y="54"/>
      <point x="73" y="53"/>
      <point x="76" y="53" type="curve"/>
      <point x="535" y="53" type="line"/>
      <point x="535" y="88"/>
      <point x="535" y="114"/>
      <point x="535" y="149" type="curve" smooth="yes"/>
      <point x="535" y="155"/>
      <point x="530" y="160"/>
      <point x="524" y="160" type="curve"/>
    </contour>
  </outline>
</glyph>
